<?xml version="1.0" encoding="UTF-8"?>
<svg width="21px" height="21px" viewBox="0 0 21 21" version="1.1" xmlns="http://www.w3.org/2000/svg" xmlns:xlink="http://www.w3.org/1999/xlink">
    <!-- Generator: Sketch 53 (72520) - https://sketchapp.com -->
    <title>Group 8</title>
    <desc>Created with Sketch.</desc>
    <defs>
        <polygon id="path-1" points="8.1281603e-06 0.2214 19.9194629 0.2214 19.9194629 20.69991 8.1281603e-06 20.69991"></polygon>
    </defs>
    <g id="Symbols" stroke="none" stroke-width="1" fill="none" fill-rule="evenodd">
        <g id="icon/sub-nav/activity" transform="translate(-1.000000, -2.000000)">
            <g id="Group-8" transform="translate(1.800000, 1.200000)">
                <g id="Group-3" transform="translate(0.000000, 0.678240)">
                    <mask id="mask-2" fill="white">
                        <use xlink:href="#path-1"></use>
                    </mask>
                    <g id="Clip-2"></g>
                    <path d="M15.54237,9.71361 C15.58377,10.03131 15.59367,10.24641 15.59367,10.46061 C15.59367,10.67571 15.57297,10.90071 15.54237,11.20851 L15.39927,12.36501 L16.31097,13.08231 L17.41617,13.94181 L16.69887,15.18111 L15.39927,14.65911 L14.33367,14.22891 L13.41297,14.92551 C12.97287,15.25221 12.55257,15.49881 12.13317,15.67251 L11.04777,16.11261 L10.88307,17.27001 L10.67877,18.65241 L9.24507,18.65241 L9.05067,17.27001 L8.88687,16.11261 L7.80147,15.67251 C7.36137,15.48801 6.95187,15.25221 6.54237,14.94531 L5.61087,14.22891 L4.52547,14.66901 L3.22407,15.19101 L2.50857,13.95261 L3.61377,13.09221 L4.52547,12.37581 L4.38237,11.21841 C4.35087,10.90071 4.33017,10.66581 4.33017,10.46061 C4.33017,10.25631 4.35087,10.02051 4.38237,9.71361 L4.52547,8.55621 L3.61377,7.83981 L2.50857,6.97941 L3.22407,5.74101 L4.52547,6.26301 L5.58927,6.69321 L6.51177,5.99661 C6.95187,5.66901 7.37127,5.42241 7.79157,5.24871 L8.87697,4.80861 L9.03987,3.65211 L9.24507,2.26971 L10.66887,2.26971 L10.86327,3.65211 L11.02617,4.80861 L12.11157,5.24871 C12.55257,5.43321 12.96207,5.66901 13.37157,5.97681 L14.30307,6.69321 L15.38847,6.25221 L16.68897,5.73021 L17.40537,6.96951 L16.31097,7.83981 L15.39927,8.55621 L15.54237,9.71361 Z M17.57007,11.46411 C17.61057,11.13651 17.64117,10.80891 17.64117,10.46061 C17.64117,10.11231 17.61057,9.78471 17.57007,9.45801 L19.73007,7.76781 C19.92447,7.61481 19.97577,7.33761 19.85337,7.11261 L17.80587,3.57021 C17.71317,3.40551 17.53947,3.31461 17.35497,3.31461 C17.29287,3.31461 17.23167,3.32361 17.18037,3.34521 L14.63067,4.36941 C14.09877,3.95901 13.52547,3.62061 12.89997,3.36501 L12.51207,0.65241 C12.48147,0.40581 12.26547,0.22131 12.00987,0.22131 L7.91397,0.22131 C7.65837,0.22131 7.44327,0.40581 7.41267,0.65241 L7.02297,3.36501 C6.39927,3.62061 5.82507,3.96891 5.29227,4.36941 L2.74347,3.34521 C2.68227,3.32361 2.62107,3.31461 2.55897,3.31461 C2.38527,3.31461 2.21067,3.40551 2.11887,3.57021 L0.07137,7.11261 C-0.06183,7.33761 -0.00153,7.61481 0.19377,7.76781 L2.35467,9.45711 C2.31327,9.78471 2.28267,10.12311 2.28267,10.46061 C2.28267,10.79901 2.31327,11.13651 2.35467,11.46411 L0.19377,13.15341 C-0.00153,13.30731 -0.05193,13.58361 0.07137,13.80951 L2.11887,17.35191 C2.21067,17.51571 2.38527,17.60751 2.56977,17.60751 C2.63007,17.60751 2.69217,17.59761 2.74347,17.57691 L5.29227,16.55361 C5.82507,16.96311 6.39927,17.30061 7.02297,17.55711 L7.41267,20.26971 C7.44327,20.51541 7.65837,20.69991 7.91397,20.69991 L12.00987,20.69991 C12.26547,20.69991 12.48147,20.51541 12.51207,20.26971 L12.89997,17.55711 C13.52547,17.30061 14.09877,16.95231 14.63067,16.55361 L17.18037,17.57691 C17.24247,17.59761 17.30367,17.60751 17.36487,17.60751 C17.53947,17.60751 17.71317,17.51571 17.80587,17.35191 L19.85337,13.80951 C19.97577,13.58361 19.92447,13.30731 19.73007,13.15341 L17.57007,11.46411 Z" id="Fill-1" fill="#939BA4" mask="url(#mask-2)"></path>
                </g>
                <path d="M15.37884,13.04352 L15.52194,11.88702 C15.56244,11.56842 15.57324,11.35422 15.57324,11.13912 C15.57324,10.92492 15.55254,10.69902 15.52194,10.39212 L15.37884,9.23472 L16.28964,8.51832 L17.41644,7.65792 L16.69914,6.41952 L15.39864,6.94152 L14.31324,7.38162 L13.38174,6.66432 C12.98304,6.35742 12.56274,6.11172 12.12264,5.93712 L11.03724,5.49702 L10.87344,4.34052 L10.67814,2.94732 L9.24534,2.94732 L9.05094,4.32972 L8.88714,5.48712 L7.80174,5.93712 C7.38144,6.11172 6.96114,6.35742 6.52104,6.68502 L5.60034,7.38162 L4.52484,6.95052 L3.22434,6.41952 L2.50794,7.65792 L3.61404,8.51832 L4.52484,9.23472 L4.38174,10.39212 C4.35114,10.69902 4.33044,10.93392 4.33044,11.13912 C4.33044,11.34342 4.35114,11.57922 4.38174,11.88702 L4.52484,13.04352 L3.61404,13.76082 L2.50794,14.62032 L3.22434,15.85962 L4.52484,15.33762 L5.61024,14.89752 L6.54264,15.61302 C6.94134,15.92082 7.36164,16.16652 7.80174,16.34022 L8.88714,16.78032 L9.05094,17.93772 L9.24534,19.33002 L10.66914,19.33002 L10.86264,17.94762 L11.02644,16.79112 L12.11184,16.35102 C12.53214,16.17642 12.95244,15.93072 13.39254,15.60402 L14.31324,14.90652 L15.37884,15.33762 L16.67844,15.85962 L17.39574,14.62032 L16.28964,13.76082 L15.37884,13.04352 Z" id="Fill-4" fill="#EAEAEA"></path>
                <polygon id="Fill-6" fill="#939BA4" points="10.23201 15.14502 7.47711 11.96442 5.32431 11.96442 5.32431 11.06442 7.88841 11.06442 9.68751 13.14072 10.87371 6.73452 13.04361 11.06442 14.59521 11.06442 14.59521 11.96442 12.48831 11.96442 11.27061 9.53532"></polygon>
            </g>
        </g>
    </g>
</svg>