<?xml version="1.0" encoding="UTF-8"?>
<svg width="21px" height="21px" viewBox="0 0 21 21" version="1.1" xmlns="http://www.w3.org/2000/svg" xmlns:xlink="http://www.w3.org/1999/xlink">
    <!-- Generator: Sketch 53 (72520) - https://sketchapp.com -->
    <title>Group 8</title>
    <desc>Created with Sketch.</desc>
    <defs>
        <polygon id="path-1" points="0 0.22149 19.9194583 0.22149 19.9194583 20.7 0 20.7"></polygon>
    </defs>
    <g id="Symbols" stroke="none" stroke-width="1" fill="none" fill-rule="evenodd">
        <g id="icon/sub-nav/active/activity" transform="translate(-1.000000, -2.000000)">
            <g id="Group-8" transform="translate(1.680000, 1.200000)">
                <g id="Group-3" transform="translate(0.000000, 0.678240)">
                    <mask id="mask-2" fill="white">
                        <use xlink:href="#path-1"></use>
                    </mask>
                    <g id="Clip-2"></g>
                    <path d="M15.54264,9.71379 C15.58314,10.03149 15.59394,10.24569 15.59394,10.46079 C15.59394,10.67589 15.57324,10.90089 15.54264,11.20779 L15.39954,12.36519 L16.31034,13.08159 L17.41644,13.94199 L16.69914,15.18129 L15.39954,14.65839 L14.33394,14.22909 L13.41324,14.92479 C12.97314,15.25239 12.55284,15.49899 12.13254,15.67269 L11.04714,16.11279 L10.88334,17.27019 L10.67904,18.65259 L9.24534,18.65259 L9.05094,17.27019 L8.88624,16.11279 L7.80084,15.67269 C7.36074,15.48819 6.95124,15.25239 6.54174,14.94549 L5.61024,14.22909 L4.52484,14.66919 L3.22434,15.19119 L2.50794,13.95279 L3.61404,13.09239 L4.52484,12.37599 L4.38174,11.21859 C4.35024,10.90089 4.33044,10.66599 4.33044,10.46079 C4.33044,10.25649 4.35024,10.02069 4.38174,9.71379 L4.52484,8.55639 L3.61404,7.83999 L2.50794,6.97959 L3.22434,5.74029 L4.52484,6.26319 L5.58954,6.69339 L6.51114,5.99679 C6.95124,5.66919 7.37154,5.42259 7.79184,5.24889 L8.87724,4.80879 L9.04014,3.65229 L9.24534,2.26989 L10.66824,2.26989 L10.86354,3.65229 L11.02644,4.80879 L12.11184,5.24889 C12.55284,5.43339 12.96234,5.66919 13.37184,5.97609 L14.30334,6.69339 L15.38874,6.25239 L16.68834,5.73039 L17.40564,6.96879 L16.31034,7.83999 L15.39954,8.55639 L15.54264,9.71379 Z M17.56944,11.46429 C17.61084,11.13669 17.64144,10.80909 17.64144,10.46079 C17.64144,10.11249 17.61084,9.78489 17.56944,9.45729 L19.72944,7.76799 C19.92474,7.61409 19.97604,7.33779 19.85274,7.11189 L17.80524,3.57039 C17.71254,3.40569 17.53884,3.31389 17.35524,3.31389 C17.29314,3.31389 17.23194,3.32379 17.18064,3.34449 L14.63094,4.36869 C14.09904,3.95829 13.52574,3.62079 12.90024,3.36519 L12.51144,0.65169 C12.48084,0.40599 12.26574,0.22149 12.00924,0.22149 L7.91424,0.22149 C7.65774,0.22149 7.44354,0.40599 7.41294,0.65169 L7.02324,3.36519 C6.39864,3.62079 5.82534,3.96909 5.29254,4.36869 L2.74284,3.34449 C2.68164,3.32379 2.62134,3.31389 2.55924,3.31389 C2.38554,3.31389 2.21094,3.40569 2.11914,3.57039 L0.07164,7.11189 C-0.06246,7.33779 -0.00126,7.61409 0.19404,7.76799 L2.35494,9.45729 C2.31354,9.78489 2.28294,10.12329 2.28294,10.46079 C2.28294,10.79829 2.31354,11.13669 2.35494,11.46429 L0.19404,13.15359 C-0.00126,13.30749 -0.05166,13.58379 0.07164,13.80969 L2.11914,17.35119 C2.21094,17.51589 2.38554,17.60769 2.56914,17.60769 C2.63034,17.60769 2.69244,17.59779 2.74284,17.57709 L5.29254,16.55379 C5.82534,16.96329 6.39864,17.30079 7.02324,17.55639 L7.41294,20.26989 C7.44354,20.51559 7.65774,20.70009 7.91424,20.70009 L12.00924,20.70009 C12.26574,20.70009 12.48084,20.51559 12.51144,20.26989 L12.90024,17.55639 C13.52574,17.30079 14.09904,16.95249 14.63094,16.55379 L17.18064,17.57709 C17.24274,17.59779 17.30304,17.60769 17.36424,17.60769 C17.53884,17.60769 17.71254,17.51589 17.80524,17.35119 L19.85274,13.80969 C19.97604,13.58379 19.92474,13.30749 19.72944,13.15359 L17.56944,11.46429 Z" id="Fill-1" fill="#595FAB" mask="url(#mask-2)"></path>
                </g>
                <path d="M15.3783,13.0437 L15.5214,11.8863 C15.5628,11.5686 15.5736,11.3544 15.5736,11.1393 C15.5736,10.9242 15.552,10.6992 15.5214,10.3923 L15.3783,9.2349 L16.29,8.5185 L17.4168,7.6581 L16.6995,6.4188 L15.399,6.9417 L14.3136,7.3809 L13.3821,6.6645 C12.9825,6.3567 12.5631,6.1119 12.123,5.9373 L11.0376,5.4972 L10.8729,4.3398 L10.6785,2.9475 L9.2457,2.9475 L9.0513,4.3299 L8.8866,5.4873 L7.8012,5.9373 C7.3818,6.1119 6.9615,6.3567 6.5214,6.6852 L5.6007,7.3809 L4.5243,6.9507 L3.2247,6.4188 L2.5074,7.6581 L3.6144,8.5185 L4.5243,9.2349 L4.3812,10.3923 C4.3506,10.6992 4.3308,10.9341 4.3308,11.1393 C4.3308,11.3436 4.3506,11.5794 4.3812,11.8863 L4.5243,13.0437 L3.6144,13.7601 L2.5074,14.6205 L3.2247,15.8598 L4.5243,15.3369 L5.6097,14.8968 L6.5421,15.6132 C6.9417,15.9201 7.3611,16.1667 7.8012,16.3404 L8.8866,16.7805 L9.0513,17.937 L9.2457,19.3302 L10.6686,19.3302 L10.863,17.9478 L11.0268,16.7913 L12.1122,16.3512 C12.5325,16.1766 12.9519,15.9309 13.392,15.6033 L14.3136,14.9067 L15.3783,15.3369 L16.6788,15.8598 L17.3952,14.6205 L16.29,13.7601 L15.3783,13.0437 Z" id="Fill-4" fill="#D8DCEF"></path>
                <polygon id="Fill-6" fill="#595FAB" points="10.23228 15.1452 7.47738 11.9646 5.32458 11.9646 5.32458 11.0646 7.88868 11.0646 9.68778 13.1409 10.87398 6.7347 13.04388 11.0646 14.59548 11.0646 14.59548 11.9646 12.48858 11.9646 11.27088 9.5355"></polygon>
            </g>
        </g>
    </g>
</svg>