<?xml version="1.0" encoding="UTF-8"?>
<svg width="22px" height="22px" viewBox="0 0 22 22" version="1.1" xmlns="http://www.w3.org/2000/svg" xmlns:xlink="http://www.w3.org/1999/xlink">
    <!-- Generator: Sketch 53 (72520) - https://sketchapp.com -->
    <title>Group 8</title>
    <desc>Created with Sketch.</desc>
    <g id="Symbols" stroke="none" stroke-width="1" fill="none" fill-rule="evenodd">
        <g id="icon/sub-nav/parties" transform="translate(-1.000000, -1.000000)">
            <g id="Group-8" transform="translate(1.680000, 1.200000)">
                <polygon id="Fill-1" fill="#EAEAEA" points="4.632984 5.400216 10.259784 2.441016 15.886584 5.400216"></polygon>
                <polygon id="Fill-3" fill="#939BA4" points="2.7 17.28 4.86 17.28 4.86 9.72 2.7 9.72"></polygon>
                <polygon id="Fill-4" fill="#939BA4" points="9.18 17.28 11.34 17.28 11.34 9.72 9.18 9.72"></polygon>
                <polygon id="Fill-5" fill="#939BA4" points="0 21.6 20.52 21.6 20.52 19.44 0 19.44"></polygon>
                <polygon id="Fill-6" fill="#939BA4" points="15.66 17.28 17.82 17.28 17.82 9.72 15.66 9.72"></polygon>
                <path d="M10.25946,0.000216 L0.00054,5.400216 L0.00054,7.560216 L20.51946,7.560216 L20.51946,5.400216 L10.25946,0.000216 Z M10.25946,2.441016 L15.88734,5.400216 L4.63266,5.400216 L10.25946,2.441016 Z" id="Fill-7" fill="#939BA4"></path>
            </g>
        </g>
    </g>
</svg>