<?xml version="1.0" encoding="UTF-8"?>
<svg width="18px" height="22px" viewBox="0 0 18 22" version="1.1" xmlns="http://www.w3.org/2000/svg" xmlns:xlink="http://www.w3.org/1999/xlink">
    <!-- Generator: Sketch 53 (72520) - https://sketchapp.com -->
    <title>Group 10</title>
    <desc>Created with Sketch.</desc>
    <defs>
        <polygon id="path-1" points="0.000432 0.000108 17.28 0.000108 17.28 21.6 0.000432 21.6"></polygon>
    </defs>
    <g id="Symbols" stroke="none" stroke-width="1" fill="none" fill-rule="evenodd">
        <g id="icon/sub-nav/billofsupply" transform="translate(-3.000000, -1.000000)">
            <g id="Group-10" transform="translate(3.600000, 1.200000)">
                <polygon id="Fill-1" fill="#EAEAEA" points="9.720432 2.160108 2.160432 2.160108 2.160432 19.440108 15.120432 19.440108 15.120432 6.480108 9.720432 6.480108"></polygon>
                <g id="Group-5">
                    <mask id="mask-2" fill="white">
                        <use xlink:href="#path-1"></use>
                    </mask>
                    <g id="Clip-4"></g>
                    <path d="M15.120432,19.440108 L2.160432,19.440108 L2.160432,2.160108 L9.720432,2.160108 L9.720432,6.480108 L15.120432,6.480108 L15.120432,19.440108 Z M17.280432,5.400108 L10.800432,0.000108 L2.160432,0.000108 C0.971352,0.000108 0.011232,0.972108 0.011232,2.160108 L0.000432,19.440108 C0.000432,20.628108 0.961632,21.600108 2.148552,21.600108 L15.120432,21.600108 C16.308432,21.600108 17.280432,20.628108 17.280432,19.440108 L17.280432,5.400108 Z" id="Fill-3" fill="#939BA4" mask="url(#mask-2)"></path>
                </g>
                <polygon id="Fill-6" fill="#FFFFFF" points="6.753564 8.66916 6.753564 15.72804 8.491284 15.72804 10.016244 14.89968 10.736604 13.48056 9.039924 11.90268 10.016244 10.60128 10.016244 9.08712 8.611164 8.66916"></polygon>
                <path d="M8.108856,11.295288 C8.995536,11.295288 9.569016,10.854648 9.569016,10.173168 C9.569016,9.905328 9.569016,9.086688 8.086176,9.086688 C7.819416,9.086688 7.593696,9.098568 7.413336,9.124488 L7.413336,11.295288 L8.108856,11.295288 Z M7.413336,15.112008 C7.571016,15.127128 7.778376,15.133608 8.040816,15.133608 C8.700696,15.133608 9.808776,14.960808 9.808776,13.800888 C9.808776,12.608568 8.563536,12.480048 8.028936,12.480048 L7.413336,12.480048 L7.413336,15.112008 Z M7.754616,16.342128 C6.969456,16.342128 6.432696,16.281648 6.183216,16.244928 L6.005016,16.219008 L6.005016,8.095248 L6.168096,8.059608 C6.647616,7.955928 7.362576,7.890048 8.028936,7.890048 C9.065736,7.890048 9.758016,8.082288 10.275336,8.513208 C10.740816,8.867448 10.989216,9.407448 10.989216,10.067328 C10.989216,10.777968 10.611216,11.407608 9.977256,11.792088 C10.646856,12.109608 11.275416,12.765168 11.275416,13.812768 C11.275416,14.488848 11.035656,15.070968 10.562616,15.541848 C9.989136,16.081848 9.072216,16.342128 7.754616,16.342128 L7.754616,16.342128 Z" id="Fill-8" fill="#939BA4"></path>
            </g>
        </g>
    </g>
</svg>