<?xml version="1.0" encoding="UTF-8"?>
<svg width="18px" height="22px" viewBox="0 0 18 22" version="1.1" xmlns="http://www.w3.org/2000/svg" xmlns:xlink="http://www.w3.org/1999/xlink">
    <!-- Generator: Sketch 53 (72520) - https://sketchapp.com -->
    <title>Group 10</title>
    <desc>Created with Sketch.</desc>
    <defs>
        <polygon id="path-1" points="0.000108 0.000324 17.28 0.000324 17.28 21.6 0.000108 21.6"></polygon>
    </defs>
    <g id="Symbols" stroke="none" stroke-width="1" fill="none" fill-rule="evenodd">
        <g id="icon/sub-nav/active/billofsupply" transform="translate(-3.000000, -1.000000)">
            <g id="Group-10" transform="translate(3.600000, 1.200000)">
                <polygon id="Fill-1" fill="#D8DCEF" points="9.720108 2.159784 2.160108 2.159784 2.160108 19.439784 15.120108 19.439784 15.120108 6.479784 9.720108 6.479784"></polygon>
                <g id="Group-5">
                    <mask id="mask-2" fill="white">
                        <use xlink:href="#path-1"></use>
                    </mask>
                    <g id="Clip-4"></g>
                    <path d="M15.120108,19.440324 L2.160108,19.440324 L2.160108,2.160324 L9.720108,2.160324 L9.720108,6.480324 L15.120108,6.480324 L15.120108,19.440324 Z M17.280108,5.400324 L10.800108,0.000324 L2.160108,0.000324 C0.971028,0.000324 0.010908,0.972324 0.010908,2.160324 L0.000108,19.440324 C0.000108,20.628324 0.961308,21.600324 2.149308,21.600324 L15.120108,21.600324 C16.308108,21.600324 17.280108,20.628324 17.280108,19.440324 L17.280108,5.400324 Z" id="Fill-3" fill="#595FAB" mask="url(#mask-2)"></path>
                </g>
                <polygon id="Fill-6" fill="#FFFFFF" points="6.753348 8.669376 6.753348 15.728256 8.491068 15.728256 10.016028 14.899896 10.736388 13.479696 9.039708 11.902896 10.016028 10.601496 10.016028 9.087336 8.612028 8.669376"></polygon>
                <path d="M8.108532,11.295504 C8.995212,11.295504 9.568692,10.854864 9.568692,10.173384 C9.568692,9.905544 9.568692,9.086904 8.085852,9.086904 C7.819092,9.086904 7.593372,9.098784 7.413012,9.123624 L7.413012,11.295504 L8.108532,11.295504 Z M7.413012,15.112224 C7.571772,15.126264 7.778052,15.133824 8.040492,15.133824 C8.700372,15.133824 9.808452,14.961024 9.808452,13.801104 C9.808452,12.607704 8.564292,12.480264 8.028612,12.480264 L7.413012,12.480264 L7.413012,15.112224 Z M7.755372,16.342344 C6.970212,16.342344 6.432372,16.281864 6.182892,16.245144 L6.004692,16.219224 L6.004692,8.094384 L6.167772,8.059824 C6.648372,7.955064 7.362252,7.890264 8.028612,7.890264 C9.066492,7.890264 9.758772,8.082504 10.275012,8.513424 C10.740492,8.867664 10.989972,9.407664 10.989972,10.067544 C10.989972,10.778184 10.610892,11.407824 9.976932,11.791224 C10.646532,12.108744 11.276172,12.765384 11.276172,13.812984 C11.276172,14.489064 11.035332,15.071184 10.563372,15.540984 C9.988812,16.082064 9.071892,16.342344 7.755372,16.342344 L7.755372,16.342344 Z" id="Fill-8" fill="#595FAB"></path>
            </g>
        </g>
    </g>
</svg>