<svg xmlns="http://www.w3.org/2000/svg" width="21.735" height="19.612" viewBox="0 0 21.735 19.612">
  <path id="Icon_material-business" data-name="Icon material-business" d="M13.618,8.747V4.5H3V23.612H24.235V8.747ZM7.247,21.488H5.124V19.365H7.247Zm0-4.247H5.124V15.118H7.247Zm0-4.247H5.124V10.871H7.247Zm0-4.247H5.124V6.624H7.247Zm4.247,12.741H9.371V19.365h2.124Zm0-4.247H9.371V15.118h2.124Zm0-4.247H9.371V10.871h2.124Zm0-4.247H9.371V6.624h2.124ZM22.112,21.488H13.618V19.365h2.124V17.241H13.618V15.118h2.124V12.994H13.618V10.871h8.494Zm-2.124-8.494H17.865v2.124h2.124Zm0,4.247H17.865v2.124h2.124Z" transform="translate(-2.75 -4.25)" fill="#4e515c" stroke="#fff" stroke-width="0.5"/>
</svg>
