<?xml version="1.0" encoding="UTF-8"?>
<svg width="22px" height="20px" viewBox="0 0 22 20" version="1.1" xmlns="http://www.w3.org/2000/svg" xmlns:xlink="http://www.w3.org/1999/xlink">
    <!-- Generator: Sketch 53 (72520) - https://sketchapp.com -->
    <title>Group 5</title>
    <desc>Created with Sketch.</desc>
    <g id="Symbols" stroke="none" stroke-width="1" fill="none" fill-rule="evenodd">
        <g id="icon/sub-nav/active/company" transform="translate(-1.000000, -2.000000)">
            <g id="Group-5" transform="translate(1.200000, 2.400000)">
                <path d="M15.12,15.12 L17.28,15.12 L17.28,12.96 L15.12,12.96 L15.12,15.12 Z M15.12,10.8 L17.28,10.8 L17.28,8.64 L15.12,8.64 L15.12,10.8 Z M10.8,8.64 L12.96,8.64 L12.96,10.8 L10.8,10.8 L10.8,12.96 L12.96,12.96 L12.96,15.12 L10.8,15.12 L10.8,17.28 L19.44,17.28 L19.44,6.48 L10.8,6.48 L10.8,8.64 Z" id="Fill-1" fill="#D8DCEF"></path>
                <polygon id="Fill-2" fill="#595FAB" points="15.12 15.12 17.28 15.12 17.28 12.96 15.12 12.96"></polygon>
                <polygon id="Fill-3" fill="#595FAB" points="15.12 10.8 17.28 10.8 17.28 8.64 15.12 8.64"></polygon>
                <path d="M0,0 L0,19.44 L21.6,19.44 L21.6,4.32 L10.8,4.32 L10.8,0 L0,0 Z M6.48,4.32 L8.64,4.32 L8.64,2.16 L6.48,2.16 L6.48,4.32 Z M2.16,4.32 L4.32,4.32 L4.32,2.16 L2.16,2.16 L2.16,4.32 Z M10.8,6.47892 L19.44,6.47892 L19.44,17.28 L10.8,17.28 L10.8,15.11892 L12.96,15.11892 L12.96,12.96 L10.8,12.96 L10.8,10.8 L12.96,10.8 L12.96,8.64 L10.8,8.64 L10.8,6.47892 Z M6.48,8.64 L8.64,8.64 L8.64,6.47892 L6.48,6.47892 L6.48,8.64 Z M2.16,8.64 L4.32,8.64 L4.32,6.47892 L2.16,6.47892 L2.16,8.64 Z M6.48,12.96 L8.64,12.96 L8.64,10.8 L6.48,10.8 L6.48,12.96 Z M2.16,12.96 L4.32,12.96 L4.32,10.8 L2.16,10.8 L2.16,12.96 Z M6.48,17.28 L8.64,17.28 L8.64,15.11892 L6.48,15.11892 L6.48,17.28 Z M2.16,17.28 L4.32,17.28 L4.32,15.11892 L2.16,15.11892 L2.16,17.28 Z" id="Fill-4" fill="#595FAB"></path>
            </g>
        </g>
    </g>
</svg>