<svg xmlns="http://www.w3.org/2000/svg" width="16.286" height="16.286" viewBox="0 0 16.286 16.286">
  <path id="Icon_awesome-coins" data-name="Icon awesome-coins" d="M0,12.892V14.25c0,1.123,2.736,2.036,6.107,2.036s6.107-.913,6.107-2.036V12.892C10.9,13.818,8.5,14.25,6.107,14.25S1.314,13.818,0,12.892ZM10.179,4.071c3.372,0,6.107-.913,6.107-2.036S13.55,0,10.179,0,4.071.913,4.071,2.036,6.807,4.071,10.179,4.071ZM0,9.555V11.2c0,1.123,2.736,2.036,6.107,2.036s6.107-.913,6.107-2.036V9.555C10.9,10.637,8.5,11.2,6.107,11.2S1.314,10.637,0,9.555Zm13.232.35c1.823-.353,3.054-1.008,3.054-1.762V6.785a7.811,7.811,0,0,1-3.054,1.1ZM6.107,5.089C2.736,5.089,0,6.228,0,7.634s2.736,2.545,6.107,2.545,6.107-1.139,6.107-2.545S9.479,5.089,6.107,5.089ZM13.083,6.88c1.909-.344,3.2-1.018,3.2-1.791V3.731a10.355,10.355,0,0,1-5.112,1.33A3.562,3.562,0,0,1,13.083,6.88Z" fill="#15a4f6"/>
</svg>
