<?xml version="1.0" encoding="UTF-8"?>
<svg width="18px" height="22px" viewBox="0 0 18 22" version="1.1" xmlns="http://www.w3.org/2000/svg" xmlns:xlink="http://www.w3.org/1999/xlink">
    <!-- Generator: Sketch 53 (72520) - https://sketchapp.com -->
    <title>Group 10</title>
    <desc>Created with Sketch.</desc>
    <defs>
        <polygon id="path-1" points="0 0.000324 17.27946 0.000324 17.27946 21.6 0 21.6"></polygon>
    </defs>
    <g id="Symbols" stroke="none" stroke-width="1" fill="none" fill-rule="evenodd">
        <g id="icon/sub-nav/debit-note" transform="translate(-3.000000, -1.000000)">
            <g id="Group-10" transform="translate(3.600000, 1.200000)">
                <polygon id="Fill-1" fill="#EAEAEA" points="1.268244 1.510704 1.268244 20.488464 15.958404 20.488464 16.402284 6.981984 11.028204 6.637464 10.585404 1.018224"></polygon>
                <g id="Group-5">
                    <mask id="mask-2" fill="white">
                        <use xlink:href="#path-1"></use>
                    </mask>
                    <g id="Clip-4"></g>
                    <path d="M15.11946,19.440324 L2.15946,19.440324 L2.15946,2.160324 L9.71946,2.160324 L9.71946,7.560324 L15.11946,7.560324 L15.11946,19.440324 Z M10.79946,0.000324 L2.15946,0.000324 C0.97146,0.000324 -0.00054,0.971244 -0.00054,2.160324 L-0.00054,19.440324 C-0.00054,20.628324 0.96174,21.600324 2.14866,21.600324 L15.11946,21.600324 C16.30854,21.600324 17.27946,20.628324 17.27946,19.440324 L17.27946,6.480324 L10.79946,0.000324 Z" id="Fill-3" fill="#939BA4" mask="url(#mask-2)"></path>
                </g>
                <polygon id="Fill-6" fill="#FFFFFF" points="6.004908 10.0494 6.752268 16.13952 10.342188 15.35544 11.275308 12.258 9.808668 9.85176"></polygon>
                <path d="M7.288488,15.344964 C7.463448,15.354684 7.650288,15.355764 7.799328,15.355764 C9.463608,15.355764 10.341648,14.479884 10.341648,12.824244 C10.347048,12.107124 10.156968,11.550924 9.777888,11.168604 C9.373968,10.762524 8.756208,10.556244 7.941888,10.556244 C7.666488,10.556244 7.448328,10.571364 7.288488,10.590804 L7.288488,15.344964 Z M7.625448,16.844004 C7.018488,16.844004 6.460128,16.813764 5.968728,16.757604 L5.627448,16.720884 L5.627448,9.278604 L5.954688,9.226764 C6.611328,9.128484 7.265808,9.078804 7.900848,9.078804 C9.259488,9.078804 10.257408,9.394164 10.950768,10.041084 C11.675448,10.705284 12.043728,11.631924 12.043728,12.794004 C12.043728,14.011164 11.661408,15.029604 10.937808,15.741324 C10.218528,16.461684 9.072648,16.844004 7.625448,16.844004 L7.625448,16.844004 Z" id="Fill-8" fill="#939BA4"></path>
            </g>
        </g>
    </g>
</svg>