<?xml version="1.0" encoding="UTF-8"?>
<svg width="18px" height="22px" viewBox="0 0 18 22" version="1.1" xmlns="http://www.w3.org/2000/svg" xmlns:xlink="http://www.w3.org/1999/xlink">
    <!-- Generator: Sketch 53 (72520) - https://sketchapp.com -->
    <title>Group 10</title>
    <desc>Created with Sketch.</desc>
    <defs>
        <polygon id="path-1" points="0.000108 0.000324 17.28 0.000324 17.28 21.6 0.000108 21.6"></polygon>
    </defs>
    <g id="Symbols" stroke="none" stroke-width="1" fill="none" fill-rule="evenodd">
        <g id="icon/sub-nav/active/debit-note" transform="translate(-3.000000, -1.000000)">
            <g id="Group-10" transform="translate(3.600000, 1.200000)">
                <polygon id="Fill-1" fill="#D8DCEF" points="1.268892 1.510704 1.268892 20.488464 15.959052 20.488464 16.401852 6.981984 11.028852 6.637464 10.584972 1.018224"></polygon>
                <g id="Group-5">
                    <mask id="mask-2" fill="white">
                        <use xlink:href="#path-1"></use>
                    </mask>
                    <g id="Clip-4"></g>
                    <path d="M15.120108,19.440324 L2.160108,19.440324 L2.160108,2.160324 L9.720108,2.160324 L9.720108,7.560324 L15.120108,7.560324 L15.120108,19.440324 Z M10.800108,0.000324 L2.160108,0.000324 C0.971028,0.000324 0.000108,0.971244 0.000108,2.160324 L0.000108,19.440324 C0.000108,20.628324 0.961308,21.600324 2.149308,21.600324 L15.120108,21.600324 C16.308108,21.600324 17.280108,20.628324 17.280108,19.440324 L17.280108,6.480324 L10.800108,0.000324 Z" id="Fill-3" fill="#595FAB" mask="url(#mask-2)"></path>
                </g>
                <polygon id="Fill-6" fill="#FFFFFF" points="6.004476 10.0494 6.752916 16.13952 10.342836 15.35544 11.275956 12.258 9.808236 9.85176"></polygon>
                <path d="M7.288056,15.344964 C7.463016,15.354684 7.649856,15.355764 7.798896,15.355764 C9.463176,15.355764 10.341216,14.479884 10.341216,12.824244 C10.346616,12.107124 10.156536,11.550924 9.777456,11.168604 C9.373536,10.762524 8.755776,10.556244 7.941456,10.556244 C7.666056,10.556244 7.447896,10.571364 7.288056,10.590804 L7.288056,15.344964 Z M7.625016,16.844004 C7.018056,16.844004 6.459696,16.813764 5.968296,16.757604 L5.627016,16.720884 L5.627016,9.278604 L5.954256,9.226764 C6.610896,9.128484 7.265376,9.078804 7.900416,9.078804 C9.259056,9.078804 10.256976,9.394164 10.950336,10.041084 C11.675016,10.705284 12.043296,11.631924 12.043296,12.794004 C12.043296,14.011164 11.660976,15.029604 10.937376,15.741324 C10.218096,16.461684 9.072216,16.844004 7.625016,16.844004 L7.625016,16.844004 Z" id="Fill-8" fill="#595FAB"></path>
            </g>
        </g>
    </g>
</svg>