<svg xmlns="http://www.w3.org/2000/svg" width="33.263" height="39.977" viewBox="0 0 33.263 39.977">
  <g id="Icon_ionic-ios-document" data-name="Icon ionic-ios-document" transform="translate(-6.313 -2.938)">
    <path id="Path_323" data-name="Path 323" d="M22.241,12.477h7.851a.427.427,0,0,0,.431-.431h0A2.553,2.553,0,0,0,29.6,10.07L23.017,4.583a2.771,2.771,0,0,0-1.777-.638h0a.637.637,0,0,0-.638.638v6.255A1.638,1.638,0,0,0,22.241,12.477Z" transform="translate(8.052 0.002)" fill="none" stroke="#595fab" stroke-width="2"/>
    <path id="Path_324" data-name="Path 324" d="M24.075,11.533v-7.6H10.6A3.181,3.181,0,0,0,7.313,6.976v31.9A3.181,3.181,0,0,0,10.6,41.914H35.284a3.181,3.181,0,0,0,3.291-3.038V15.805H28.7A4.467,4.467,0,0,1,24.075,11.533Z" transform="translate(0)" fill="none" stroke="#595fab" stroke-width="2"/>
  </g>
</svg>
