<?xml version="1.0" encoding="UTF-8"?>
<svg width="22px" height="22px" viewBox="0 0 22 22" version="1.1" xmlns="http://www.w3.org/2000/svg" xmlns:xlink="http://www.w3.org/1999/xlink">
    <!-- Generator: Sketch 53 (72520) - https://sketchapp.com -->
    <title>Group 15</title>
    <desc>Created with Sketch.</desc>
    <defs>
        <polygon id="path-1" points="0 0.000227368421 21.6 0.000227368421 21.6 20.4631579 0 20.4631579"></polygon>
        <polygon id="path-3" points="0 20.4631579 21.6 20.4631579 21.6 0 0 0"></polygon>
    </defs>
    <g id="Symbols" stroke="none" stroke-width="1" fill="none" fill-rule="evenodd">
        <g id="icon/sub-nav/active/employee" transform="translate(-1.000000, -1.000000)">
            <g id="Group-15" transform="translate(1.200000, 1.680000)">
                <polygon id="Fill-1" fill="#595FAB" points="7.95789474 7.95789474 13.6421053 7.95789474 13.6421053 18.1894737 7.95789474 18.1894737"></polygon>
                <polygon id="Fill-3" fill="#595FAB" points="2.27368421 18.1894737 5.68421053 18.1894737 5.68421053 7.95789474 2.27368421 7.95789474"></polygon>
                <g id="Group-7">
                    <mask id="mask-2" fill="white">
                        <use xlink:href="#path-1"></use>
                    </mask>
                    <g id="Clip-6"></g>
                    <path d="M19.3263158,0.000227368421 L2.27368421,0.000227368421 C1.02315789,0.000227368421 0,1.02338526 0,2.27391158 L0,18.1897011 C0,19.4402274 1.02315789,20.4633853 2.27368421,20.4633853 L19.3263158,20.4633853 C20.5768421,20.4633853 21.6,19.4402274 21.6,18.1897011 L21.6,2.27391158 C21.6,1.02338526 20.5768421,0.000227368421 19.3263158,0.000227368421" id="Fill-5" fill="#595FAB" mask="url(#mask-2)"></path>
                </g>
                <mask id="mask-4" fill="white">
                    <use xlink:href="#path-3"></use>
                </mask>
                <g id="Clip-9"></g>
                <polygon id="Fill-8" fill="#DEDEF9" mask="url(#mask-4)" points="2.27368421 18.1894737 19.3263158 18.1894737 19.3263158 2.27368421 2.27368421 2.27368421"></polygon>
                <path d="M10.7838568,5.87485895 C11.7729095,5.87485895 12.5743832,6.67633263 12.5743832,7.66538526 C12.5743832,8.65443789 11.7729095,9.45591158 10.7838568,9.45591158 C9.79480421,9.45591158 8.99333053,8.65443789 8.99333053,7.66538526 C8.99333053,6.67633263 9.79480421,5.87485895 10.7838568,5.87485895" id="Fill-10" fill="#FFFFFF" mask="url(#mask-4)"></path>
                <path d="M4.98584842,19.1478316 L4.98584842,15.3394105 C4.98584842,14.1548211 8.35885895,12.9520421 10.7837432,12.9520421 C13.2086274,12.9520421 16.5816379,14.1548211 16.5816379,15.3394105 L16.5816379,19.1478316 L4.98584842,19.1478316 Z" id="Fill-11" fill="#FFFFFF" mask="url(#mask-4)"></path>
                <path d="M10.7838568,11.9287705 C8.50789895,11.9287705 3.96280421,13.0712968 3.96280421,15.3392968 L3.96280421,20.1708758 L17.6049095,20.1708758 L17.6049095,15.3392968 C17.6049095,13.0712968 13.0598147,11.9287705 10.7838568,11.9287705 M10.7838568,13.9750863 C12.6482779,13.9750863 15.1129516,14.8174863 15.5585937,15.4370653 L15.5585937,18.12456 L6.00912,18.12456 L6.00912,15.4370653 C6.45476211,14.8174863 8.91943579,13.9750863 10.7838568,13.9750863" id="Fill-12" fill="#595FAB" mask="url(#mask-4)"></path>
                <path d="M10.7838568,10.1241474 C9.15362526,10.1241474 7.82806737,8.79745263 7.82806737,7.16835789 C7.82806737,5.53812632 9.15362526,4.21256842 10.7838568,4.21256842 C12.4140884,4.21256842 13.7396463,5.53812632 13.7396463,7.16835789 C13.7396463,8.79745263 12.4140884,10.1241474 10.7838568,10.1241474" id="Fill-13" fill="#FFFFFF" mask="url(#mask-4)"></path>
                <path d="M10.7838568,3.18929684 C8.58520421,3.18929684 6.80490947,4.96959158 6.80490947,7.16824421 C6.80490947,9.36689684 8.58520421,11.1471916 10.7838568,11.1471916 C12.9825095,11.1471916 14.7628042,9.36689684 14.7628042,7.16824421 C14.7628042,4.96959158 12.9825095,3.18929684 10.7838568,3.18929684 M10.7838568,5.23561263 C11.8490779,5.23561263 12.7164884,6.10302316 12.7164884,7.16824421 C12.7164884,8.23346526 11.8490779,9.10087579 10.7838568,9.10087579 C9.71863579,9.10087579 8.85122526,8.23346526 8.85122526,7.16824421 C8.85122526,6.10302316 9.71863579,5.23561263 10.7838568,5.23561263" id="Fill-14" fill="#595FAB" mask="url(#mask-4)"></path>
            </g>
        </g>
    </g>
</svg>