<?xml version="1.0" encoding="UTF-8"?>
<svg width="22px" height="22px" viewBox="0 0 22 22" version="1.1" xmlns="http://www.w3.org/2000/svg" xmlns:xlink="http://www.w3.org/1999/xlink">
    <!-- Generator: Sketch 53 (72520) - https://sketchapp.com -->
    <title>Group 15</title>
    <desc>Created with Sketch.</desc>
    <defs>
        <polygon id="path-1" points="0.000113684211 0.000227368421 21.6 0.000227368421 21.6 20.4631579 0.000113684211 20.4631579"></polygon>
        <polygon id="path-3" points="0 20.4631579 21.6 20.4631579 21.6 0 0 0"></polygon>
    </defs>
    <g id="Symbols" stroke="none" stroke-width="1" fill="none" fill-rule="evenodd">
        <g id="icon/sub-nav/employee" transform="translate(-1.000000, -1.000000)">
            <g id="Group-15" transform="translate(1.200000, 1.680000)">
                <polygon id="Fill-1" fill="#595FAB" points="7.95789474 7.95789474 13.6421053 7.95789474 13.6421053 18.1894737 7.95789474 18.1894737"></polygon>
                <polygon id="Fill-3" fill="#595FAB" points="2.27368421 18.1894737 5.68421053 18.1894737 5.68421053 7.95789474 2.27368421 7.95789474"></polygon>
                <g id="Group-7">
                    <mask id="mask-2" fill="white">
                        <use xlink:href="#path-1"></use>
                    </mask>
                    <g id="Clip-6"></g>
                    <path d="M19.3264295,0.000227368421 L2.27379789,0.000227368421 C1.02327158,0.000227368421 0.000113684211,1.02338526 0.000113684211,2.27391158 L0.000113684211,18.1897011 C0.000113684211,19.4402274 1.02327158,20.4633853 2.27379789,20.4633853 L19.3264295,20.4633853 C20.5769558,20.4633853 21.6001137,19.4402274 21.6001137,18.1897011 L21.6001137,2.27391158 C21.6001137,1.02338526 20.5769558,0.000227368421 19.3264295,0.000227368421" id="Fill-5" fill="#939BA4" mask="url(#mask-2)"></path>
                </g>
                <mask id="mask-4" fill="white">
                    <use xlink:href="#path-3"></use>
                </mask>
                <g id="Clip-9"></g>
                <polygon id="Fill-8" fill="#E9EBED" mask="url(#mask-4)" points="2.27368421 18.1894737 19.3263158 18.1894737 19.3263158 2.27368421 2.27368421 2.27368421"></polygon>
                <path d="M10.7835158,5.87485895 C11.7725684,5.87485895 12.5740421,6.67633263 12.5740421,7.66538526 C12.5740421,8.65443789 11.7725684,9.45591158 10.7835158,9.45591158 C9.79446316,9.45591158 8.99298947,8.65443789 8.99298947,7.66538526 C8.99298947,6.67633263 9.79446316,5.87485895 10.7835158,5.87485895" id="Fill-10" fill="#FFFFFF" mask="url(#mask-4)"></path>
                <path d="M4.92889263,19.2044463 L4.92889263,15.3391832 C4.92889263,14.1273095 8.33487158,12.8949726 10.7836295,12.8949726 C13.2323874,12.8949726 16.6383663,14.1273095 16.6383663,15.3391832 L16.6383663,19.2044463 L4.92889263,19.2044463 Z" id="Fill-11" fill="#FFFFFF" mask="url(#mask-4)"></path>
                <path d="M10.7835158,11.9287705 C8.50755789,11.9287705 3.96246316,13.0712968 3.96246316,15.3392968 L3.96246316,20.1708758 L17.6045684,20.1708758 L17.6045684,15.3392968 C17.6045684,13.0712968 13.0606105,11.9287705 10.7835158,11.9287705 M10.7835158,13.8614021 C12.8389263,13.8614021 15.3172421,14.81976 15.6719368,15.3995495 L15.6719368,18.2382442 L5.89509474,18.2382442 L5.89509474,15.3995495 C6.25092632,14.81976 8.72810526,13.8614021 10.7835158,13.8614021" id="Fill-12" fill="#939BA4" mask="url(#mask-4)"></path>
                <path d="M10.7835158,10.1807621 C9.12258947,10.1807621 7.77088421,8.83019368 7.77088421,7.16813053 C7.77088421,5.50720421 9.12258947,4.15549895 10.7835158,4.15549895 C12.4444421,4.15549895 13.7961474,5.50720421 13.7961474,7.16813053 C13.7961474,8.83019368 12.4444421,10.1807621 10.7835158,10.1807621" id="Fill-13" fill="#FFFFFF" mask="url(#mask-4)"></path>
                <path d="M10.7835158,3.18929684 C8.58486316,3.18929684 6.80456842,4.96959158 6.80456842,7.16824421 C6.80456842,9.36689684 8.58486316,11.1471916 10.7835158,11.1471916 C12.9821684,11.1471916 14.7624632,9.36689684 14.7624632,7.16824421 C14.7624632,4.96959158 12.9821684,3.18929684 10.7835158,3.18929684 M10.7835158,5.12192842 C11.9124,5.12192842 12.8298316,6.03936 12.8298316,7.16824421 C12.8298316,8.29712842 11.9124,9.21456 10.7835158,9.21456 C9.65576842,9.21456 8.7372,8.29712842 8.7372,7.16824421 C8.7372,6.03936 9.65576842,5.12192842 10.7835158,5.12192842" id="Fill-14" fill="#939BA4" mask="url(#mask-4)"></path>
            </g>
        </g>
    </g>
</svg>