<?xml version="1.0" encoding="UTF-8"?>
<svg width="18px" height="22px" viewBox="0 0 18 22" version="1.1" xmlns="http://www.w3.org/2000/svg" xmlns:xlink="http://www.w3.org/1999/xlink">
    <!-- Generator: Sketch 53 (72520) - https://sketchapp.com -->
    <title>Group 8</title>
    <desc>Created with Sketch.</desc>
    <defs>
        <polygon id="path-1" points="0.000108 0.000216 17.28 0.000216 17.28 21.6 0.000108 21.6"></polygon>
    </defs>
    <g id="Symbols" stroke="none" stroke-width="1" fill="none" fill-rule="evenodd">
        <g id="icon/sub-nav/active/estimate" transform="translate(-3.000000, -1.000000)">
            <g id="Group-8" transform="translate(3.600000, 1.200000)">
                <polygon id="Fill-1" fill="#D8DCEF" points="1.268892 1.511028 1.268892 20.488788 15.959052 20.488788 16.401852 6.982308 11.028852 6.637788 10.584972 1.017468"></polygon>
                <g id="Group-5">
                    <mask id="mask-2" fill="white">
                        <use xlink:href="#path-1"></use>
                    </mask>
                    <g id="Clip-4"></g>
                    <path d="M15.120108,19.440216 L2.160108,19.440216 L2.160108,2.160216 L9.720108,2.160216 L9.720108,7.560216 L15.120108,7.560216 L15.120108,19.440216 Z M10.800108,0.000216 L2.160108,0.000216 C0.971028,0.000216 0.000108,0.972216 0.000108,2.160216 L0.000108,19.440216 C0.000108,20.628216 0.961308,21.600216 2.149308,21.600216 L15.120108,21.600216 C16.308108,21.600216 17.280108,20.628216 17.280108,19.440216 L17.280108,6.480216 L10.800108,0.000216 Z" id="Fill-3" fill="#595FAB" mask="url(#mask-2)"></path>
                </g>
                <polygon id="Fill-6" fill="#595FAB" points="7.999992 15.029496 7.999992 13.354416 10.710792 13.354416 10.710792 11.771136 7.999992 11.771136 7.999992 10.406016 10.865232 10.406016 10.865232 8.813016 6.260112 8.813016 6.260112 16.625736 11.020752 16.625736 11.020752 15.029496"></polygon>
            </g>
        </g>
    </g>
</svg>