<?xml version="1.0" encoding="UTF-8"?>
<svg width="22px" height="22px" viewBox="0 0 22 22" version="1.1" xmlns="http://www.w3.org/2000/svg" xmlns:xlink="http://www.w3.org/1999/xlink">
    <!-- Generator: Sketch 53 (72520) - https://sketchapp.com -->
    <title>Group 8</title>
    <desc>Created with Sketch.</desc>
    <defs>
        <polygon id="path-1" points="0 0.000196363636 21.5998036 0.000196363636 21.5998036 21.6 0 21.6"></polygon>
    </defs>
    <g id="Symbols" stroke="none" stroke-width="1" fill="none" fill-rule="evenodd">
        <g id="icon/main-nav/gps" transform="translate(-1.000000, -1.000000)">
            <g id="Group-8" transform="translate(1.200000, 1.200000)">
                <path d="M10.7998036,8.83656 C11.8837309,8.83656 12.76344,9.71528727 12.76344,10.8001964 C12.76344,11.8841236 11.8837309,12.7638327 10.7998036,12.7638327 C9.71587636,12.7638327 8.83616727,11.8841236 8.83616727,10.8001964 C8.83616727,9.71528727 9.71587636,8.83656 10.7998036,8.83656" id="Fill-1" fill="#EAEAEA"></path>
                <path d="M10.7998036,12.7638327 C9.71980364,12.7638327 8.83616727,11.8801964 8.83616727,10.8001964 C8.83616727,9.72019636 9.71980364,8.83656 10.7998036,8.83656 C11.8807855,8.83656 12.76344,9.72019636 12.76344,10.8001964 C12.76344,11.8801964 11.8807855,12.7638327 10.7998036,12.7638327 M10.7998036,6.87292364 C8.62998545,6.87292364 6.87253091,8.63037818 6.87253091,10.8001964 C6.87253091,12.9700145 8.62998545,14.7274691 10.7998036,14.7274691 C12.9696218,14.7274691 14.7270764,12.9700145 14.7270764,10.8001964 C14.7270764,8.63037818 12.9696218,6.87292364 10.7998036,6.87292364" id="Fill-3" fill="#939BA4"></path>
                <g id="Group-7">
                    <mask id="mask-2" fill="white">
                        <use xlink:href="#path-1"></use>
                    </mask>
                    <g id="Clip-6"></g>
                    <path d="M10.7998036,17.6729236 C7.00016727,17.6729236 3.92707636,14.5998327 3.92707636,10.8001964 C3.92707636,7.00056 7.00016727,3.92746909 10.7998036,3.92746909 C14.59944,3.92746909 17.6725309,7.00056 17.6725309,10.8001964 C17.6725309,14.5998327 14.59944,17.6729236 10.7998036,17.6729236 L10.7998036,17.6729236 Z M19.5772582,9.81837818 C19.1256218,5.72419636 15.8758036,2.47437818 11.7816218,2.02274182 L11.7816218,0.000196363636 L9.81798545,0.000196363636 L9.81798545,2.02274182 C5.72380364,2.47437818 2.47496727,5.72419636 2.02333091,9.81837818 L-0.000196363636,9.81837818 L-0.000196363636,11.7820145 L2.02333091,11.7820145 C2.47496727,15.8761964 5.72380364,19.1260145 9.81798545,19.5776509 L9.81798545,21.6001964 L11.7816218,21.6001964 L11.7816218,19.5776509 C15.8758036,19.1260145 19.1256218,15.8761964 19.5772582,11.7820145 L21.5998036,11.7820145 L21.5998036,9.81837818 L19.5772582,9.81837818 Z" id="Fill-5" fill="#939BA4" mask="url(#mask-2)"></path>
                </g>
            </g>
        </g>
    </g>
</svg>