<?xml version="1.0" encoding="UTF-8"?>
<svg width="22px" height="22px" viewBox="0 0 22 22" version="1.1" xmlns="http://www.w3.org/2000/svg" xmlns:xlink="http://www.w3.org/1999/xlink">
    <!-- Generator: Sketch 53 (72520) - https://sketchapp.com -->
    <title>Group 8</title>
    <desc>Created with Sketch.</desc>
    <defs>
        <polygon id="path-1" points="0.000392727273 0.000196363636 21.6 0.000196363636 21.6 21.6 0.000392727273 21.6"></polygon>
    </defs>
    <g id="Symbols" stroke="none" stroke-width="1" fill="none" fill-rule="evenodd">
        <g id="icon/main-nav/active/gps" transform="translate(-1.000000, -1.000000)">
            <g id="Group-8" transform="translate(1.200000, 1.200000)">
                <path d="M10.8003927,8.83656 C11.88432,8.83656 12.7640291,9.71528727 12.7640291,10.8001964 C12.7640291,11.8841236 11.88432,12.7638327 10.8003927,12.7638327 C9.71548364,12.7638327 8.83675636,11.8841236 8.83675636,10.8001964 C8.83675636,9.71528727 9.71548364,8.83656 10.8003927,8.83656" id="Fill-1" fill="#D8DCEF"></path>
                <path d="M10.8003927,12.7638327 C9.71941091,12.7638327 8.83675636,11.8801964 8.83675636,10.8001964 C8.83675636,9.72019636 9.71941091,8.83656 10.8003927,8.83656 C11.8803927,8.83656 12.7640291,9.72019636 12.7640291,10.8001964 C12.7640291,11.8801964 11.8803927,12.7638327 10.8003927,12.7638327 M10.8003927,6.87292364 C8.63057455,6.87292364 6.87312,8.63037818 6.87312,10.8001964 C6.87312,12.9700145 8.63057455,14.7274691 10.8003927,14.7274691 C12.9702109,14.7274691 14.7276655,12.9700145 14.7276655,10.8001964 C14.7276655,8.63037818 12.9702109,6.87292364 10.8003927,6.87292364" id="Fill-3" fill="#595FAB"></path>
                <g id="Group-7">
                    <mask id="mask-2" fill="white">
                        <use xlink:href="#path-1"></use>
                    </mask>
                    <g id="Clip-6"></g>
                    <path d="M10.8003927,17.6729236 C7.00075636,17.6729236 3.92766545,14.5998327 3.92766545,10.8001964 C3.92766545,7.00056 7.00075636,3.92746909 10.8003927,3.92746909 C14.5990473,3.92746909 17.67312,7.00056 17.67312,10.8001964 C17.67312,14.5998327 14.5990473,17.6729236 10.8003927,17.6729236 L10.8003927,17.6729236 Z M19.5768655,9.81837818 C19.1252291,5.72419636 15.8763927,2.47437818 11.7822109,2.02274182 L11.7822109,0.000196363636 L9.81857455,0.000196363636 L9.81857455,2.02274182 C5.72341091,2.47437818 2.47457455,5.72419636 2.02293818,9.81837818 L0.000392727273,9.81837818 L0.000392727273,11.7820145 L2.02293818,11.7820145 C2.47457455,15.8761964 5.72341091,19.1260145 9.81857455,19.5776509 L9.81857455,21.6001964 L11.7822109,21.6001964 L11.7822109,19.5776509 C15.8763927,19.1260145 19.1252291,15.8761964 19.5768655,11.7820145 L21.6003927,11.7820145 L21.6003927,9.81837818 L19.5768655,9.81837818 Z" id="Fill-5" fill="#595FAB" mask="url(#mask-2)"></path>
                </g>
            </g>
        </g>
    </g>
</svg>