<?xml version="1.0" encoding="UTF-8"?>
<svg width="22px" height="21px" viewBox="0 0 22 21" version="1.1" xmlns="http://www.w3.org/2000/svg" xmlns:xlink="http://www.w3.org/1999/xlink">
    <!-- Generator: Sketch 53 (72520) - https://sketchapp.com -->
    <title>Group 6</title>
    <desc>Created with Sketch.</desc>
    <defs>
        <polygon id="path-1" points="0 0.0244173913 20.5777565 0.0244173913 20.5777565 20.6606817 0 20.6606817"></polygon>
    </defs>
    <g id="Symbols" stroke="none" stroke-width="1" fill="none" fill-rule="evenodd">
        <g id="icon/sub-nav/active/parts" transform="translate(-1.000000, -2.000000)">
            <g id="Group-6" transform="translate(1.680000, 1.200000)">
                <path d="M10.256713,7.7774087 C10.4821043,6.46356522 10.1064522,5.06332174 9.0921913,4.05845217 C8.2094087,3.16627826 7.02610435,2.75306087 5.86158261,2.81973913 L8.76349565,5.72165217 L4.78158261,9.70262609 L1.87966957,6.80071304 C1.81393043,7.96523478 2.22714783,9.13914783 3.10993043,10.0313217 C4.08662609,11.0080174 5.42958261,11.394 6.7068,11.2052348 C7.37358261,11.1113217 8.02158261,10.8493043 8.58506087,10.4351478 L17.4692348,19.3193217 L18.2956696,18.492887 L9.42088696,9.61810435 C9.86227826,9.05462609 10.1440174,8.4348 10.256713,7.7774087" id="Fill-1" fill="#DEDEF9"></path>
                <g id="Group-5" transform="translate(0.000000, 0.914901)">
                    <mask id="mask-2" fill="white">
                        <use xlink:href="#path-1"></use>
                    </mask>
                    <g id="Clip-4"></g>
                    <path d="M17.4786261,18.4044209 L8.59445217,9.52024696 C8.02158261,9.94285565 7.38297391,10.1964209 6.7161913,10.2903339 C5.43897391,10.4790991 4.09601739,10.0931165 3.11932174,9.11642087 C2.22714783,8.23363826 1.81393043,7.05033391 1.87966957,5.88581217 L4.78158261,8.78772522 L8.76349565,4.8067513 L5.86158261,1.90483826 C7.02610435,1.83816 8.20001739,2.25137739 9.0921913,3.13416 C10.1064522,4.14842087 10.4914957,5.54866435 10.256713,6.85311652 C10.1440174,7.51050783 9.86227826,8.13127304 9.43027826,8.68442087 L18.3050609,17.5601426 L17.4786261,18.4044209 Z M20.2960174,16.9018122 L11.7781043,8.38389913 C12.6514957,6.18633391 12.200713,3.59433391 10.4257565,1.80998609 C8.26575652,-0.350013913 4.90366957,-0.547231304 2.50888696,1.20049043 L6.10575652,4.79642087 L4.7721913,6.13092522 L1.17532174,2.53405565 C-0.57146087,4.91944696 -0.374243478,8.28059478 1.78575652,10.4415339 C3.53253913,12.1873774 6.07758261,12.6475513 8.25636522,11.8305078 L16.8118435,20.3859861 C17.1781043,20.752247 17.7697565,20.752247 18.1360174,20.3859861 L20.2960174,18.2269252 C20.6716696,17.8700557 20.6716696,17.268073 20.2960174,16.9018122 L20.2960174,16.9018122 Z" id="Fill-3" fill="#595FAB" mask="url(#mask-2)"></path>
                </g>
            </g>
        </g>
    </g>
</svg>