<?xml version="1.0" encoding="UTF-8"?>
<svg width="22px" height="21px" viewBox="0 0 22 21" version="1.1" xmlns="http://www.w3.org/2000/svg" xmlns:xlink="http://www.w3.org/1999/xlink">
    <!-- Generator: Sketch 53 (72520) - https://sketchapp.com -->
    <title>Group 6</title>
    <desc>Created with Sketch.</desc>
    <defs>
        <polygon id="path-1" points="2.77698125e-05 0.0244173913 20.5779443 0.0244173913 20.5779443 20.6608696 2.77698125e-05 20.6608696"></polygon>
    </defs>
    <g id="Symbols" stroke="none" stroke-width="1" fill="none" fill-rule="evenodd">
        <g id="icon/sub-nav/parts" transform="translate(-1.000000, -2.000000)">
            <g id="Group-6" transform="translate(1.680000, 1.200000)">
                <path d="M10.2569948,7.77769043 C10.4823861,6.46290783 10.1067339,5.06360348 9.09247304,4.05873391 C8.20969043,3.16656 7.02638609,2.75334261 5.86186435,2.81908174 L8.76377739,5.72099478 L4.78186435,9.70290783 L1.8799513,6.80099478 C1.81421217,7.96551652 2.22742957,9.13942957 3.11021217,10.0316035 C4.08690783,11.00736 5.42986435,11.3933426 6.70708174,11.2055165 C7.37386435,11.1116035 8.02186435,10.848647 8.58534261,10.4354296 L17.4695165,19.3196035 L18.2959513,18.4931687 L9.4211687,9.61838609 C9.86256,9.05490783 10.1442991,8.43508174 10.2569948,7.77769043" id="Fill-1" fill="#EAEAEA"></path>
                <g id="Group-5" transform="translate(0.000000, 0.914901)">
                    <mask id="mask-2" fill="white">
                        <use xlink:href="#path-1"></use>
                    </mask>
                    <g id="Clip-4"></g>
                    <path d="M17.4788139,18.4047026 L8.59464,9.5205287 C8.02177043,9.94313739 7.38316174,10.1967026 6.71637913,10.2906157 C5.43916174,10.4784417 4.09620522,10.0924591 3.11950957,9.11670261 C2.22733565,8.23392 1.81411826,7.05061565 1.87985739,5.88609391 L4.78177043,8.78800696 L8.76368348,4.80609391 L5.86177043,1.90418087 C7.02629217,1.83844174 8.20020522,2.25165913 9.09237913,3.13444174 C10.10664,4.14870261 10.4916835,5.54800696 10.2569009,6.85339826 C10.1442052,7.50985043 9.86246609,8.13061565 9.43046609,8.68376348 L18.3052487,17.5594852 L17.4788139,18.4047026 Z M20.2962052,16.9011548 L11.7782922,8.38418087 C12.6516835,6.18661565 12.2009009,3.59367652 10.4259443,1.81026783 C8.26594435,-0.349732174 4.90385739,-0.546949565 2.50907478,1.19983304 L6.10594435,4.79670261 L4.77237913,6.13026783 L1.17550957,2.53339826 C-0.571273043,4.91878957 -0.374055652,8.28087652 1.78594435,10.4408765 C3.53272696,12.1876591 6.07777043,12.647833 8.25655304,11.8307896 L16.8120313,20.3862678 C17.1782922,20.7525287 17.7699443,20.7525287 18.1362052,20.3862678 L20.2962052,18.2262678 C20.6718574,17.8693983 20.6718574,17.2683548 20.2962052,16.9011548 L20.2962052,16.9011548 Z" id="Fill-3" fill="#939BA4" mask="url(#mask-2)"></path>
                </g>
            </g>
        </g>
    </g>
</svg>