<?xml version="1.0" encoding="UTF-8"?>
<svg width="18px" height="22px" viewBox="0 0 18 22" version="1.1" xmlns="http://www.w3.org/2000/svg" xmlns:xlink="http://www.w3.org/1999/xlink">
    <!-- Generator: Sketch 53 (72520) - https://sketchapp.com -->
    <title>Group 8</title>
    <desc>Created with Sketch.</desc>
    <defs>
        <polygon id="path-1" points="0.000432 0.000216 17.28 0.000216 17.28 21.6 0.000432 21.6"></polygon>
    </defs>
    <g id="Symbols" stroke="none" stroke-width="1" fill="none" fill-rule="evenodd">
        <g id="icon/sub-nav/invoices" transform="translate(-3.000000, -1.000000)">
            <g id="Group-8" transform="translate(3.600000, 1.200000)">
                <polygon id="Fill-1" fill="#EAEAEA" points="2.160432 2.160216 10.891152 2.160216 16.354872 7.352856 16.354872 20.199456 0.997272 20.199456"></polygon>
                <polygon id="Fill-3" fill="#939BA4" points="7.8192 11.04732 9.46188 11.04732 9.46188 9.40464 7.8192 9.40464"></polygon>
                <polygon id="Fill-4" fill="#939BA4" points="7.8192 17.0802 9.46188 17.0802 9.46188 12.15108 7.8192 12.15108"></polygon>
                <g id="Group-7">
                    <mask id="mask-2" fill="white">
                        <use xlink:href="#path-1"></use>
                    </mask>
                    <g id="Clip-6"></g>
                    <path d="M15.120432,19.440216 L2.160432,19.440216 L2.160432,2.160216 L9.720432,2.160216 L9.720432,7.560216 L15.120432,7.560216 L15.120432,19.440216 Z M10.800432,0.000216 L2.160432,0.000216 C0.971352,0.000216 0.000432,0.972216 0.000432,2.160216 L0.000432,19.440216 C0.000432,20.628216 0.961632,21.600216 2.148552,21.600216 L15.120432,21.600216 C16.308432,21.600216 17.280432,20.628216 17.280432,19.440216 L17.280432,6.480216 L10.800432,0.000216 Z" id="Fill-5" fill="#939BA4" mask="url(#mask-2)"></path>
                </g>
            </g>
        </g>
    </g>
</svg>