<svg width="22" height="22" xmlns="http://www.w3.org/2000/svg">
 <g>
  <title>background</title>
  <rect x="-1" y="-1" width="24" height="24" id="canvas_background" fill="none"/>
 </g>

 <g>
  <title>Layer 1</title>
  <path fill="#595fab" stroke="null" d="m18.563502,0.069413l-14.853305,0c-0.358155,0 -0.64805,0.302896 -0.64805,0.677115l0,1.877417c-0.915046,0.292063 -1.586858,1.172313 -1.586858,2.223197s0.671812,1.931134 1.586858,2.223197l0,0.79674c-0.915046,0.292062 -1.586858,1.172764 -1.586858,2.223197s0.671812,1.930683 1.586858,2.223197l0,0.796739c-0.915046,0.292063 -1.586858,1.172765 -1.586858,2.223197s0.671812,1.930683 1.586858,2.223197l0,1.877868c0,0.001354 0.000432,0.002257 0.000432,0.003611c0,0.001355 -0.000432,0.002709 -0.000432,0.004063c0.013393,1.217906 0.611327,2.528802 1.892306,2.528802l13.033149,0c0.358155,0 0.64805,-0.302896 0.64805,-0.677116s-0.289895,-0.677116 -0.64805,-0.677116l-13.033149,0c-0.247987,0 -0.39315,-0.240601 -0.477829,-0.505128l14.086878,0c0.358156,0 0.64805,-0.302897 0.64805,-0.677116l0,-18.687946c0,-0.374219 -0.290326,-0.677115 -0.64805,-0.677115zm-15.792545,4.777729c0,-0.278069 0.112328,-0.52815 0.290758,-0.706458l0,1.413367c-0.17843,-0.178759 -0.290758,-0.42884 -0.290758,-0.706909zm0,5.243134c0,-0.278069 0.112328,-0.528151 0.290758,-0.706909l0,1.413366c-0.17843,-0.178307 -0.290758,-0.428388 -0.290758,-0.706457zm0,5.243133c0,-0.278069 0.112328,-0.52815 0.290758,-0.706909l0,1.413367c-0.17843,-0.178307 -0.290758,-0.428389 -0.290758,-0.706458zm15.144495,3.423949l-13.557205,0l0,-4.130406c0.17843,0.178758 0.290759,0.42884 0.290759,0.706457c0,0.37422 0.289894,0.677116 0.64805,0.677116s0.648049,-0.302896 0.648049,-0.677116c0,-1.050432 -0.671811,-1.931134 -1.586858,-2.223197l0,-3.726394c0.17843,0.178759 0.290759,0.42884 0.290759,0.706458c0,0.374219 0.289894,0.677115 0.64805,0.677115s0.648049,-0.302896 0.648049,-0.677115c0,-1.050884 -0.671811,-1.931135 -1.586858,-2.223197l0,-3.726395c0.17843,0.178759 0.290759,0.428841 0.290759,0.706458c0,0.374219 0.289894,0.677116 0.64805,0.677116s0.648049,-0.302897 0.648049,-0.677116c0,-1.050884 -0.671811,-1.930683 -1.586858,-2.223197l0,-1.200752l13.557205,0l0,17.334165z" id="svg_1"/>
  <path fill="#595fab" stroke="null" d="m7.776076,8.016601l7.071517,0c0.366553,0 0.663245,-0.316807 0.663245,-0.708213l0,-3.527842c0,-0.391405 -0.296692,-0.708212 -0.663245,-0.708212l-7.071517,0c-0.366553,0 -0.663245,0.316807 -0.663245,0.708212l0,3.527842c0,0.391406 0.297134,0.708213 0.663245,0.708213zm0.663245,-3.527843l5.745027,0l0,2.111418l-5.745027,0l0,-2.111418z" id="svg_2"/>
  <text x="0" y="77" fill="#000000" font-size="5px" font-weight="bold" font-family="'Helvetica Neue', Helvetica, Arial-Unicode, Arial, Sans-serif" id="svg_4">from the Noun Project</text>
 </g>
</svg>