<?xml version="1.0" encoding="UTF-8"?>
<svg width="22px" height="22px" viewBox="0 0 22 22" version="1.1" xmlns="http://www.w3.org/2000/svg" xmlns:xlink="http://www.w3.org/1999/xlink">
    <!-- Generator: Sketch 53 (72520) - https://sketchapp.com -->
    <title>Group 3</title>
    <desc>Created with Sketch.</desc>
    <defs>
        <polygon id="path-1" points="0 0 21.44136 0 21.44136 21.44124 0 21.44124"></polygon>
    </defs>
    <g id="Symbols" stroke="none" stroke-width="1" fill="none" fill-rule="evenodd">
        <g id="icon/main-nav/active/onboarding-dashboard" transform="translate(-1.000000, -1.000000)">
            <g id="Group-3" transform="translate(1.200000, 1.200000)">
                <mask id="mask-2" fill="white">
                    <use xlink:href="#path-1"></use>
                </mask>
                <g id="Clip-2"></g>
                <path d="M12.85296,6.6924 C12.33936,6.6924 11.90496,6.87 11.54976,7.2252 C11.19456,7.5816 11.01696,8.0256 11.01696,8.5596 C11.01696,9.0912 11.19456,9.5364 11.54976,9.8916 C11.90496,10.2468 12.35016,10.4244 12.88176,10.4244 C13.41576,10.4244 13.85976,10.2468 14.21496,9.8916 C14.57016,9.5364 14.74896,9.0912 14.74896,8.5596 C14.74896,8.0256 14.57016,7.5816 14.21496,7.2252 C13.85976,6.87 13.40496,6.6924 12.85296,6.6924 L12.85296,6.6924 Z M6.92976,18.1236 L7.10736,19.6644 L5.62656,21.204 L3.85056,21.204 L6.92976,18.1236 Z M1.77696,14.334 L3.31656,14.5116 L0.23736,17.5908 L0.23736,15.8148 L1.77696,14.334 Z M3.55296,16.1112 L5.33016,17.8872 L2.01336,21.264 L0.17736,21.264 L0.17736,19.4268 L3.55296,16.1112 Z M-0.00024,12.498 L3.55296,8.9436 L6.75216,8.292 C8.96256,5.5284 11.56896,3.456 14.57016,2.0724 C17.57136,0.6912 19.86096,0 21.44136,0 C21.44136,1.5792 20.75016,3.87 19.36776,6.87 C17.98536,9.8712 15.91296,12.4776 13.14936,14.6892 L12.49776,17.8872 L8.94336,21.4416 L8.05536,16.9992 C7.18656,16.9992 6.61296,16.95 6.33696,16.8516 C6.06096,16.7532 5.72496,16.506 5.33016,16.1112 C4.93536,15.7164 4.68816,15.3804 4.58976,15.1044 C4.49136,14.8272 4.44216,14.2548 4.44216,13.386 L-0.00024,12.498 Z" id="Fill-1" fill="#595FAB" mask="url(#mask-2)"></path>
            </g>
        </g>
    </g>
</svg>