<?xml version="1.0" encoding="UTF-8"?>
<svg width="22px" height="22px" viewBox="0 0 22 22" version="1.1" xmlns="http://www.w3.org/2000/svg" xmlns:xlink="http://www.w3.org/1999/xlink">
    <!-- Generator: Sketch 53 (72520) - https://sketchapp.com -->
    <title>Fill 1</title>
    <desc>Created with Sketch.</desc>
    <g id="Symbols" stroke="none" stroke-width="1" fill="none" fill-rule="evenodd">
        <g id="icon/main-nav/onboarding-dashboard" transform="translate(-1.000000, -1.000000)" fill="#939BA4">
            <path d="M14.1476689,7.9422175 C13.6302457,7.9422175 13.1926121,8.1199306 12.834768,8.4789836 C12.4769239,8.83682767 12.2980019,9.28413276 12.2980019,9.8221078 C12.2980019,10.3588739 12.4769239,10.806179 12.834768,11.1640231 C13.1926121,11.5218671 13.6411261,11.7007892 14.1778922,11.7007892 C14.7146583,11.7007892 15.1619634,11.5218671 15.5198075,11.1640231 C15.8788605,10.806179 16.0577825,10.3588739 16.0577825,9.8221078 C16.0577825,9.28413276 15.8788605,8.83682767 15.5198075,8.4789836 C15.1619634,8.1199306 14.7037779,7.9422175 14.1476689,7.9422175 L14.1476689,7.9422175 Z M8.18037723,19.4585101 L8.35929927,21.0107796 L6.86868529,22.5618403 L5.078256,22.5618403 L8.18037723,19.4585101 Z M2.98922035,15.6394918 L4.5414899,15.8196228 L1.43815974,18.921744 L1.43815974,17.1313147 L2.98922035,15.6394918 Z M4.77964963,17.4299211 L6.56886998,19.2191414 L3.22858902,22.621078 L1.3777131,22.621078 L1.3777131,20.771411 L4.77964963,17.4299211 Z M1.2,13.7898248 L4.77964963,10.2089663 L8.00266413,9.55372474 C10.2295181,6.76834387 12.8553199,4.68051715 15.8788605,3.28782672 C18.9011921,1.89513628 21.2090446,1.2 22.8,1.2 C22.8,2.79095539 22.1036548,5.09759893 20.7121733,8.1199306 C19.3182739,11.1446801 17.2304472,13.769273 14.4462753,15.9973359 L13.7898248,19.2191414 L10.2101752,22.8 L9.31435608,18.3245313 C8.43908882,18.3245313 7.86242794,18.274965 7.58437343,18.1758325 C7.30510998,18.0767001 6.96660883,17.8276599 6.56886998,17.4299211 C6.17113114,17.0333912 5.92209101,16.6936811 5.82416746,16.4156266 C5.72382605,16.1375721 5.67425981,15.5609112 5.67425981,14.684435 L1.2,13.7898248 Z" id="Fill-1"></path>
        </g>
    </g>
</svg>