<svg xmlns="http://www.w3.org/2000/svg" width="14.36" height="17.96" viewBox="0 0 14.36 17.96">
  <g id="_4" data-name="4" transform="translate(-6.761 -3.93)">
    <path id="Path_278" data-name="Path 278" d="M16.768,30.715a2.116,2.116,0,0,0,2.159-2.379H14.6A2.117,2.117,0,0,0,16.768,30.715Z" transform="translate(-2.836 -8.824)" fill="#817f98"/>
    <path id="Path_279" data-name="Path 279" d="M20.939,17.231c-.691-.911-2.051-1.445-2.051-5.526,0-4.188-1.849-5.872-3.573-6.276-.162-.04-.278-.094-.278-.265v-.13a1.1,1.1,0,1,0-2.191,0v.13c0,.166-.117.224-.278.265-1.728.408-3.573,2.087-3.573,6.276,0,4.08-1.36,4.61-2.051,5.526a.891.891,0,0,0,.714,1.427H20.23A.891.891,0,0,0,20.939,17.231Z" fill="#817f98"/>
  </g>
</svg>
