<?xml version="1.0" encoding="UTF-8"?>
<svg width="22px" height="22px" viewBox="0 0 22 22" version="1.1" xmlns="http://www.w3.org/2000/svg" xmlns:xlink="http://www.w3.org/1999/xlink">
    <!-- Generator: Sketch 53 (72520) - https://sketchapp.com -->
    <title>Group 8</title>
    <desc>Created with Sketch.</desc>
    <defs>
        <polygon id="path-1" points="0 0 21.5995453 0 21.5995453 20.4631579 0 20.4631579"></polygon>
    </defs>
    <g id="Symbols" stroke="none" stroke-width="1" fill="none" fill-rule="evenodd">
        <g id="icon/sub-nav/active/opening-balance" transform="translate(-1.000000, -1.000000)">
            <g id="Group-8" transform="translate(1.200000, 1.680000)">
                <path d="M11.3679663,15.9157895 C10.11744,15.9157895 9.09428211,14.8926316 9.09428211,13.6421053 L9.09428211,6.82105263 C9.09428211,5.57052632 10.11744,4.54736842 11.3679663,4.54736842 L18.1890189,4.54736842 L18.1890189,2.27368421 L2.27322947,2.27368421 L2.27322947,18.1894737 L18.1890189,18.1894737 L18.1890189,15.9157895 L11.3679663,15.9157895 Z" id="Fill-1" fill="#D8DCEF"></path>
                <g id="Group-5">
                    <mask id="mask-2" fill="white">
                        <use xlink:href="#path-1"></use>
                    </mask>
                    <g id="Clip-4"></g>
                    <path d="M2.27322947,18.1894737 L2.27322947,2.27368421 L18.1890189,2.27368421 L18.1890189,4.54736842 L11.3679663,4.54736842 C10.11744,4.54736842 9.09428211,5.57052632 9.09428211,6.82105263 L9.09428211,13.6421053 C9.09428211,14.8926316 10.11744,15.9157895 11.3679663,15.9157895 L18.1890189,15.9157895 L18.1890189,18.1894737 L2.27322947,18.1894737 Z M11.3679663,13.6421053 L19.3258611,13.6421053 L19.3258611,6.82105263 L11.3679663,6.82105263 L11.3679663,13.6421053 Z M20.4627032,4.86568421 L20.4627032,2.27368421 C20.4627032,1.02315789 19.4406821,0 18.1890189,0 L2.27322947,0 C1.01247158,0 -0.000454736842,1.02315789 -0.000454736842,2.27368421 L-0.000454736842,18.1894737 C-0.000454736842,19.44 1.01247158,20.4631579 2.27322947,20.4631579 L18.1890189,20.4631579 C19.4406821,20.4631579 20.4627032,19.44 20.4627032,18.1894737 L20.4627032,15.5974737 C21.1345768,15.1995789 21.5995453,14.4833684 21.5995453,13.6421053 L21.5995453,6.82105263 C21.5995453,5.97978947 21.1345768,5.25221053 20.4627032,4.86568421 L20.4627032,4.86568421 Z" id="Fill-3" fill="#595FAB" mask="url(#mask-2)"></path>
                </g>
                <path d="M14.7784926,8.52631579 C15.7209347,8.52631579 16.4837558,9.29027368 16.4837558,10.2315789 C16.4837558,11.1728842 15.7209347,11.9368421 14.7784926,11.9368421 C13.8371874,11.9368421 13.0732295,11.1728842 13.0732295,10.2315789 C13.0732295,9.29027368 13.8371874,8.52631579 14.7784926,8.52631579" id="Fill-6" fill="#595FAB"></path>
            </g>
        </g>
    </g>
</svg>