<?xml version="1.0" encoding="UTF-8"?>
<svg width="22px" height="22px" viewBox="0 0 22 22" version="1.1" xmlns="http://www.w3.org/2000/svg" xmlns:xlink="http://www.w3.org/1999/xlink">
    <!-- Generator: Sketch 53 (72520) - https://sketchapp.com -->
    <title>Group 8</title>
    <desc>Created with Sketch.</desc>
    <defs>
        <polygon id="path-1" points="0.000454736842 0 21.6 0 21.6 20.4631579 0.000454736842 20.4631579"></polygon>
    </defs>
    <g id="Symbols" stroke="none" stroke-width="1" fill="none" fill-rule="evenodd">
        <g id="icon/sub-nav/opening-balance" transform="translate(-1.000000, -1.000000)">
            <g id="Group-8" transform="translate(1.200000, 1.680000)">
                <path d="M11.3688758,15.9157895 C10.1172126,15.9157895 9.09519158,14.8926316 9.09519158,13.6421053 L9.09519158,6.82105263 C9.09519158,5.57052632 10.1172126,4.54736842 11.3688758,4.54736842 L18.1899284,4.54736842 L18.1899284,2.27368421 L2.27413895,2.27368421 L2.27413895,18.1894737 L18.1899284,18.1894737 L18.1899284,15.9157895 L11.3688758,15.9157895 Z" id="Fill-1" fill="#EAEAEA"></path>
                <g id="Group-5">
                    <mask id="mask-2" fill="white">
                        <use xlink:href="#path-1"></use>
                    </mask>
                    <g id="Clip-4"></g>
                    <path d="M2.27413895,18.1894737 L2.27413895,2.27368421 L18.1899284,2.27368421 L18.1899284,4.54736842 L11.3688758,4.54736842 C10.1172126,4.54736842 9.09519158,5.57052632 9.09519158,6.82105263 L9.09519158,13.6421053 C9.09519158,14.8926316 10.1172126,15.9157895 11.3688758,15.9157895 L18.1899284,15.9157895 L18.1899284,18.1894737 L2.27413895,18.1894737 Z M11.3688758,13.6421053 L19.3267705,13.6421053 L19.3267705,6.82105263 L11.3688758,6.82105263 L11.3688758,13.6421053 Z M20.4636126,4.86568421 L20.4636126,2.27368421 C20.4636126,1.02315789 19.4404547,0 18.1899284,0 L2.27413895,0 C1.01224421,0 0.000454736842,1.02315789 0.000454736842,2.27368421 L0.000454736842,18.1894737 C0.000454736842,19.44 1.01224421,20.4631579 2.27413895,20.4631579 L18.1899284,20.4631579 C19.4404547,20.4631579 20.4636126,19.44 20.4636126,18.1894737 L20.4636126,15.5974737 C21.1343495,15.1995789 21.6004547,14.4833684 21.6004547,13.6421053 L21.6004547,6.82105263 C21.6004547,5.97978947 21.1343495,5.25221053 20.4636126,4.86568421 L20.4636126,4.86568421 Z" id="Fill-3" fill="#939BA4" mask="url(#mask-2)"></path>
                </g>
                <path d="M14.7794021,8.52631579 C15.7207074,8.52631579 16.4846653,9.29027368 16.4846653,10.2315789 C16.4846653,11.1728842 15.7207074,11.9368421 14.7794021,11.9368421 C13.83696,11.9368421 13.0741389,11.1728842 13.0741389,10.2315789 C13.0741389,9.29027368 13.83696,8.52631579 14.7794021,8.52631579" id="Fill-6" fill="#939BA4"></path>
            </g>
        </g>
    </g>
</svg>