<?xml version="1.0" encoding="UTF-8"?>
<svg width="22px" height="22px" viewBox="0 0 22 22" version="1.1" xmlns="http://www.w3.org/2000/svg" xmlns:xlink="http://www.w3.org/1999/xlink">
    <!-- Generator: Sketch 53 (72520) - https://sketchapp.com -->
    <title>Group 8</title>
    <desc>Created with Sketch.</desc>
    <defs>
        <polygon id="path-1" points="0.00013636253 0 21.01032 0 21.01032 21.599784 0.00013636253 21.599784"></polygon>
    </defs>
    <g id="Symbols" stroke="none" stroke-width="1" fill="none" fill-rule="evenodd">
        <g id="icon/main-nav/active/operations" transform="translate(-1.000000, -1.000000)">
            <g id="Group-8" transform="translate(1.200000, 1.200000)">
                <path d="M10.50732,15.119784 C8.12052,15.119784 6.18732,13.186584 6.18732,10.799784 C6.18732,8.412984 8.12052,6.479784 10.50732,6.479784 C12.89412,6.479784 14.82732,8.412984 14.82732,10.799784 C14.82732,13.186584 12.89412,15.119784 10.50732,15.119784 L10.50732,15.119784 Z M18.36972,7.127784 L17.61372,5.820984 L16.2432,6.371784 L15.09732,6.836184 L14.1156,6.080184 C13.69332,5.756184 13.25052,5.496984 12.78612,5.313384 L11.6424,4.848984 L11.4696,3.628584 L11.26332,2.159784 L9.7524,2.159784 L9.54612,3.617784 L9.37332,4.838184 L8.2296,5.313384 C7.78572,5.496984 7.34292,5.756184 6.8796,6.101784 L5.90652,6.836184 L4.77252,6.382584 L3.40092,5.820984 L2.646,7.127784 L3.8124,8.034984 L4.77252,8.790984 L4.6224,10.011384 C4.59,10.335384 4.56732,10.583784 4.56732,10.799784 C4.56732,11.015784 4.59,11.264184 4.6224,11.588184 L4.77252,12.808584 L3.8124,13.564584 L2.646,14.471784 L3.40092,15.778584 L4.77252,15.227784 L5.91732,14.763384 L6.90012,15.519384 C7.3224,15.843384 7.76412,16.102584 8.2296,16.286184 L9.37332,16.750584 L9.54612,17.970984 L9.7524,19.439784 L11.25252,19.439784 L11.45772,17.981784 L11.63052,16.761384 L12.7764,16.296984 C13.2192,16.113384 13.66092,15.854184 14.1264,15.508584 L15.09732,14.774184 L16.22052,15.227784 L17.5932,15.778584 L18.3492,14.471784 L17.1828,13.564584 L16.22052,12.808584 L16.3728,11.588184 C16.416,11.253384 16.42572,11.026584 16.42572,10.799784 C16.42572,10.572984 16.40412,10.335384 16.3728,10.011384 L16.22052,8.790984 L17.1828,8.034984 L18.36972,7.127784 Z" id="Fill-1" fill="#D8DCEF"></path>
                <g id="Group-5">
                    <mask id="mask-2" fill="white">
                        <use xlink:href="#path-1"></use>
                    </mask>
                    <g id="Clip-4"></g>
                    <path d="M16.393536,10.011384 C16.436736,10.346184 16.447536,10.572984 16.447536,10.799784 C16.447536,11.026584 16.425936,11.264184 16.393536,11.588184 L16.242336,12.808584 L17.203536,13.564584 L18.369936,14.471784 L17.613936,15.778584 L16.242336,15.227784 L15.119136,14.774184 L14.147136,15.508584 C13.682736,15.854184 13.239936,16.113384 12.797136,16.296984 L11.652336,16.761384 L11.479536,17.981784 L11.263536,19.439784 L9.752616,19.439784 L9.546336,17.981784 L9.373536,16.761384 L8.228736,16.296984 C7.764336,16.102584 7.332336,15.854184 6.900336,15.530184 L5.917536,14.774184 L4.772736,15.238584 L3.401136,15.789384 L2.646216,14.482584 L3.812616,13.575384 L4.772736,12.819384 L4.622616,11.598984 C4.589136,11.264184 4.567536,11.015784 4.567536,10.799784 C4.567536,10.583784 4.589136,10.335384 4.622616,10.011384 L4.772736,8.790984 L3.812616,8.034984 L2.646216,7.127784 L3.401136,5.820984 L4.772736,6.371784 L5.895936,6.825384 L6.867936,6.090984 C7.332336,5.745384 7.776216,5.486184 8.217936,5.302584 L9.362736,4.838184 L9.535536,3.617784 L9.752616,2.159784 L11.252736,2.159784 L11.457936,3.617784 L11.630736,4.838184 L12.775536,5.302584 C13.239936,5.496984 13.671936,5.745384 14.103936,6.069384 L15.086736,6.825384 L16.232616,6.360984 L17.603136,5.810184 L18.359136,7.116984 L17.203536,8.034984 L16.242336,8.790984 L16.393536,10.011384 Z M18.531936,11.858184 C18.576216,11.512584 18.607536,11.166984 18.607536,10.799784 C18.607536,10.432584 18.576216,10.086984 18.531936,9.741384 L20.810736,7.959384 C21.015936,7.797384 21.069936,7.505784 20.940336,7.268184 L18.780336,3.531384 C18.683136,3.358584 18.499536,3.261384 18.306216,3.261384 C18.240336,3.261384 18.175536,3.272184 18.122616,3.293784 L15.432336,4.373784 C14.870736,3.941784 14.265936,3.585384 13.607136,3.315384 L13.196736,0.453384 C13.164336,0.194184 12.937536,-0.000216 12.667536,-0.000216 L8.347536,-0.000216 C8.077536,-0.000216 7.850736,0.194184 7.819416,0.453384 L7.407936,3.315384 C6.749136,3.585384 6.144336,3.952584 5.582736,4.373784 L2.893536,3.293784 C2.828736,3.272184 2.763936,3.261384 2.699136,3.261384 C2.515536,3.261384 2.331936,3.358584 2.235816,3.531384 L0.075816,7.268184 C-0.065664,7.505784 -0.000864,7.797384 0.204336,7.959384 L2.483136,9.741384 C2.439936,10.086984 2.407536,10.443384 2.407536,10.799784 C2.407536,11.156184 2.439936,11.512584 2.483136,11.858184 L0.204336,13.640184 C-0.000864,13.802184 -0.053784,14.093784 0.075816,14.331384 L2.235816,18.068184 C2.331936,18.240984 2.515536,18.338184 2.709936,18.338184 C2.775816,18.338184 2.839536,18.327384 2.893536,18.305784 L5.582736,17.225784 C6.144336,17.657784 6.749136,18.014184 7.407936,18.284184 L7.819416,21.146184 C7.850736,21.405384 8.077536,21.599784 8.347536,21.599784 L12.667536,21.599784 C12.937536,21.599784 13.164336,21.405384 13.196736,21.146184 L13.607136,18.284184 C14.265936,18.014184 14.870736,17.646984 15.432336,17.225784 L18.122616,18.305784 C18.186336,18.327384 18.251136,18.338184 18.315936,18.338184 C18.499536,18.338184 18.683136,18.240984 18.780336,18.068184 L20.940336,14.331384 C21.069936,14.093784 21.015936,13.802184 20.810736,13.640184 L18.531936,11.858184 Z" id="Fill-3" fill="#595FAB" mask="url(#mask-2)"></path>
                </g>
                <path d="M10.50732,12.959784 C9.31932,12.959784 8.34732,11.987784 8.34732,10.799784 C8.34732,9.611784 9.31932,8.639784 10.50732,8.639784 C11.6964,8.639784 12.66732,9.611784 12.66732,10.799784 C12.66732,11.987784 11.6964,12.959784 10.50732,12.959784 M10.50732,6.479784 C8.12052,6.479784 6.18732,8.412984 6.18732,10.799784 C6.18732,13.186584 8.12052,15.119784 10.50732,15.119784 C12.89412,15.119784 14.82732,13.186584 14.82732,10.799784 C14.82732,8.412984 12.89412,6.479784 10.50732,6.479784" id="Fill-6" fill="#595FAB"></path>
            </g>
        </g>
    </g>
</svg>