<svg xmlns="http://www.w3.org/2000/svg" width="21.064" height="21.056" viewBox="0 0 21.064 21.056">
  <g id="Icon_ionic-logo-buffer" data-name="Icon ionic-logo-buffer" transform="translate(-4.488 -4.5)">
    <g id="Group_415" data-name="Group 415" transform="translate(4.488 4.5)">
      <path id="Path_271" data-name="Path 271" d="M4.868,10.011l9.278,4.48a2.309,2.309,0,0,0,1.766,0l9.278-4.48c.488-.236.488-.62,0-.855l-9.278-4.48a2.309,2.309,0,0,0-1.766,0L4.868,9.155C4.38,9.391,4.38,9.775,4.868,10.011Z" transform="translate(-4.491 -4.5)" fill="#4e515c"/>
      <path id="Path_272" data-name="Path 272" d="M25.186,17.167s-1.694-.817-1.919-.927a.454.454,0,0,0-.521.005c-.236.11-6.843,3.3-6.843,3.3a2.309,2.309,0,0,1-1.766,0S7.7,16.444,7.4,16.3a.628.628,0,0,0-.718-.016l-1.831.883c-.488.236-.488.62,0,.855l9.278,4.48a2.309,2.309,0,0,0,1.766,0l9.278-4.48C25.674,17.787,25.674,17.4,25.186,17.167Z" transform="translate(-4.488 -7.067)" fill="#4e515c"/>
    </g>
    <path id="Path_273" data-name="Path 273" d="M25.187,24.15s-1.694-.817-1.919-.927a.454.454,0,0,0-.521.005c-.236.11-6.838,3.306-6.838,3.306a2.309,2.309,0,0,1-1.766,0s-6.432-3.1-6.733-3.252a.628.628,0,0,0-.718-.016l-1.831.883c-.488.236-.488.62,0,.855l9.278,4.48a2.047,2.047,0,0,0,.883.175,2.131,2.131,0,0,0,.883-.175L25.182,25C25.675,24.769,25.675,24.385,25.187,24.15Z" transform="translate(-0.002 -4.105)" fill="#4e515c"/>
  </g>
</svg>
