<?xml version="1.0" encoding="UTF-8"?>
<svg width="22px" height="22px" viewBox="0 0 22 22" version="1.1" xmlns="http://www.w3.org/2000/svg" xmlns:xlink="http://www.w3.org/1999/xlink">
    <!-- Generator: Sketch 53 (72520) - https://sketchapp.com -->
    <title>Group 11</title>
    <desc>Created with Sketch.</desc>
    <defs>
        <polygon id="path-1" points="0 20.4631579 21.6 20.4631579 21.6 0 0 0"></polygon>
    </defs>
    <g id="Symbols" stroke="none" stroke-width="1" fill="none" fill-rule="evenodd">
        <g id="icon/sub-nav/active/overview" transform="translate(-1.000000, -1.000000)">
            <g id="Group-11" transform="translate(1.200000, 1.800000)">
                <polygon id="Fill-1" fill="#D8DCEF" points="2.27368421 2.27368421 19.3263158 2.27368421 19.3263158 5.68421053 2.27368421 5.68421053"></polygon>
                <polygon id="Fill-3" fill="#D8DCEF" points="15.9157895 18.1894737 19.3263158 18.1894737 19.3263158 7.95789474 15.9157895 7.95789474"></polygon>
                <polygon id="Fill-5" fill="#D8DCEF" points="7.95789474 18.1894737 13.6421053 18.1894737 13.6421053 7.95789474 7.95789474 7.95789474"></polygon>
                <polygon id="Fill-7" fill="#D8DCEF" points="2.27368421 18.1894737 5.68421053 18.1894737 5.68421053 7.95789474 2.27368421 7.95789474"></polygon>
                <mask id="mask-2" fill="white">
                    <use xlink:href="#path-1"></use>
                </mask>
                <g id="Clip-10"></g>
                <path d="M2.27368421,5.68421053 L19.3263158,5.68421053 L19.3263158,2.27368421 L2.27368421,2.27368421 L2.27368421,5.68421053 Z M15.9157895,18.1894737 L19.3263158,18.1894737 L19.3263158,7.95789474 L15.9157895,7.95789474 L15.9157895,18.1894737 Z M7.95789474,18.1894737 L13.6421053,18.1894737 L13.6421053,7.95789474 L7.95789474,7.95789474 L7.95789474,18.1894737 Z M2.27368421,18.1894737 L5.68421053,18.1894737 L5.68421053,7.95789474 L2.27368421,7.95789474 L2.27368421,18.1894737 Z M19.3263158,0 L2.27368421,0 C1.02315789,0 0,1.02315789 0,2.27368421 L0,18.1894737 C0,19.44 1.02315789,20.4631579 2.27368421,20.4631579 L19.3263158,20.4631579 C20.5768421,20.4631579 21.6,19.44 21.6,18.1894737 L21.6,2.27368421 C21.6,1.02315789 20.5768421,0 19.3263158,0 L19.3263158,0 Z" id="Fill-9" fill="#595FAB" mask="url(#mask-2)"></path>
            </g>
        </g>
    </g>
</svg>