<svg xmlns="http://www.w3.org/2000/svg" width="20.003" height="19.418" viewBox="0 0 20.003 19.418">
  <g id="Group_656" data-name="Group 656" transform="translate(-31.59 -408.178)">
    <g id="Icon_ionic-ios-document" data-name="Icon ionic-ios-document" transform="translate(31.59 408.178)">
      <path id="Path_274" data-name="Path 274" d="M21.455,8.385h4.086a.222.222,0,0,0,.225-.225h0a1.329,1.329,0,0,0-.48-1.028L21.859,4.277a1.442,1.442,0,0,0-.925-.332h0a.332.332,0,0,0-.332.332V7.532A.853.853,0,0,0,21.455,8.385Z" transform="translate(-12.115 -3.94)" fill="#4e515c"/>
      <path id="Path_275" data-name="Path 275" d="M14.631,7.53V3.938H8.749A1.441,1.441,0,0,0,7.313,5.374V20.461A1.441,1.441,0,0,0,8.749,21.9H19.526a1.441,1.441,0,0,0,1.437-1.437V9.55H16.652A2.024,2.024,0,0,1,14.631,7.53Z" transform="translate(-7.313 -3.938)" fill="#4e515c"/>
    </g>
    <path id="Icon_ionic-ios-settings" data-name="Icon ionic-ios-settings" d="M15.163,10.311a1.5,1.5,0,0,1,.959-1.4A5.928,5.928,0,0,0,15.4,7.188a1.516,1.516,0,0,1-.608.13,1.492,1.492,0,0,1-1.365-2.1A5.91,5.91,0,0,0,11.706,4.5a1.494,1.494,0,0,1-2.791,0,5.928,5.928,0,0,0-1.728.717,1.492,1.492,0,0,1-1.365,2.1,1.466,1.466,0,0,1-.608-.13A6.059,6.059,0,0,0,4.5,8.919a1.5,1.5,0,0,1,0,2.791,5.928,5.928,0,0,0,.717,1.728,1.493,1.493,0,0,1,1.97,1.97,5.963,5.963,0,0,0,1.728.717,1.492,1.492,0,0,1,2.784,0,5.928,5.928,0,0,0,1.728-.717,1.494,1.494,0,0,1,1.97-1.97,5.963,5.963,0,0,0,.717-1.728A1.5,1.5,0,0,1,15.163,10.311Zm-4.824,2.418a2.421,2.421,0,1,1,2.421-2.421A2.421,2.421,0,0,1,10.338,12.729Z" transform="translate(35 411)" fill="#4e515c" stroke="#fff" stroke-width="0.8"/>
    <circle id="Ellipse_311" data-name="Ellipse 311" cx="2.5" cy="2.5" r="2.5" transform="translate(43 419)" fill="#fff"/>
  </g>
</svg>
