<?xml version="1.0" encoding="UTF-8"?>
<svg width="22px" height="16px" viewBox="0 0 22 16" version="1.1" xmlns="http://www.w3.org/2000/svg" xmlns:xlink="http://www.w3.org/1999/xlink">
    <!-- Generator: Sketch 53 (72520) - https://sketchapp.com -->
    <title>Group 14</title>
    <desc>Created with Sketch.</desc>
    <defs>
        <polygon id="path-1" points="0 0.221301818 15.1199018 0.221301818 15.1199018 5.89032 0 5.89032"></polygon>
    </defs>
    <g id="Symbols" stroke="none" stroke-width="1" fill="none" fill-rule="evenodd">
        <g id="icon/sub-nav/parties" transform="translate(-1.000000, -4.000000)">
            <g id="Group-14" transform="translate(1.200000, 4.080000)">
                <path d="M7.55980364,2.16039273 C8.45522182,2.16039273 9.17980364,2.88497455 9.17980364,3.77941091 C9.17980364,4.67482909 8.45522182,5.40039273 7.55980364,5.40039273 C6.66536727,5.40039273 5.93980364,4.67482909 5.93980364,3.77941091 C5.93980364,2.88497455 6.66536727,2.16039273 7.55980364,2.16039273" id="Fill-1" fill="#EAEAEA"></path>
                <path d="M2.52710182,12.9603927 L12.5927018,12.9603927 C11.6855018,12.3330109 9.49310182,11.6103927 7.55990182,11.6103927 C5.62670182,11.6103927 3.43430182,12.3330109 2.52710182,12.9603927" id="Fill-3" fill="#EAEAEA"></path>
                <path d="M7.55980364,2.16039273 C8.45620364,2.16039273 9.17980364,2.88301091 9.17980364,3.77941091 C9.17980364,4.67679273 8.45620364,5.40039273 7.55980364,5.40039273 C6.66340364,5.40039273 5.93980364,4.67679273 5.93980364,3.77941091 C5.93980364,2.88301091 6.66340364,2.16039273 7.55980364,2.16039273 M7.55980364,7.56039273 C9.64420364,7.56039273 11.3398036,5.86381091 11.3398036,3.77941091 C11.3398036,1.69501091 9.64420364,0.000392727273 7.55980364,0.000392727273 C5.47540364,0.000392727273 3.77980364,1.69501091 3.77980364,3.77941091 C3.77980364,5.86381091 5.47540364,7.56039273 7.55980364,7.56039273" id="Fill-5" fill="#939BA4"></path>
                <g id="Group-9" transform="translate(0.000000, 9.229091)">
                    <mask id="mask-2" fill="white">
                        <use xlink:href="#path-1"></use>
                    </mask>
                    <g id="Clip-8"></g>
                    <path d="M2.52710182,3.73130182 C3.43430182,3.10392 5.62670182,2.38130182 7.55990182,2.38130182 C9.49310182,2.38130182 11.6855018,3.10392 12.5927018,3.73130182 L2.52710182,3.73130182 Z M7.55990182,0.221301818 C5.03270182,0.221301818 -9.81818182e-05,1.48490182 -9.81818182e-05,4.00032 L-9.81818182e-05,5.89032 L15.1199018,5.89032 L15.1199018,4.00032 C15.1199018,1.48490182 10.0871018,0.221301818 7.55990182,0.221301818 L7.55990182,0.221301818 Z" id="Fill-7" fill="#939BA4" mask="url(#mask-2)"></path>
                </g>
                <path d="M15.1632,9.51440727 C16.416,10.4225891 17.28,11.6312073 17.28,13.2296073 L17.28,15.1196073 L21.6,15.1196073 L21.6,13.2296073 C21.6,11.0480073 17.82,9.80600727 15.1632,9.51440727" id="Fill-10" fill="#939BA4"></path>
                <path d="M14.0399018,7.56039273 C16.1243018,7.56039273 17.8199018,5.86381091 17.8199018,3.77941091 C17.8199018,1.69501091 16.1243018,0.000392727273 14.0399018,0.000392727273 C13.4567018,0.000392727273 12.9167018,0.139810909 12.4199018,0.378392727 C13.1003018,1.33959273 13.4999018,2.51581091 13.4999018,3.77941091 C13.4999018,5.04399273 13.1003018,6.22119273 12.4199018,7.18141091 C12.9167018,7.41901091 13.4567018,7.56039273 14.0399018,7.56039273" id="Fill-12" fill="#939BA4"></path>
            </g>
        </g>
    </g>
</svg>