<?xml version="1.0" encoding="UTF-8"?>
<svg width="22px" height="16px" viewBox="0 0 22 16" version="1.1" xmlns="http://www.w3.org/2000/svg" xmlns:xlink="http://www.w3.org/1999/xlink">
    <!-- Generator: Sketch 53 (72520) - https://sketchapp.com -->
    <title>Group 13</title>
    <desc>Created with Sketch.</desc>
    <g id="Symbols" stroke="none" stroke-width="1" fill="none" fill-rule="evenodd">
        <g id="icon/sub-nav/active/parties" transform="translate(-1.000000, -4.000000)">
            <g id="Group-13" transform="translate(1.200000, 4.080000)">
                <path d="M7.56019636,2.16039273 C8.45463273,2.16039273 9.18019636,2.88497455 9.18019636,3.77941091 C9.18019636,4.67482909 8.45463273,5.40039273 7.56019636,5.40039273 C6.66477818,5.40039273 5.94019636,4.67482909 5.94019636,3.77941091 C5.94019636,2.88497455 6.66477818,2.16039273 7.56019636,2.16039273" id="Fill-1" fill="#DEDEF9"></path>
                <path d="M2.52739636,12.9603927 L12.5929964,12.9603927 C11.6857964,12.3330109 9.49339636,11.6103927 7.56019636,11.6103927 C5.62699636,11.6103927 3.43459636,12.3330109 2.52739636,12.9603927" id="Fill-3" fill="#DEDEF9"></path>
                <path d="M7.56019636,2.16039273 C8.45659636,2.16039273 9.18019636,2.88301091 9.18019636,3.77941091 C9.18019636,4.67679273 8.45659636,5.40039273 7.56019636,5.40039273 C6.66379636,5.40039273 5.94019636,4.67679273 5.94019636,3.77941091 C5.94019636,2.88301091 6.66379636,2.16039273 7.56019636,2.16039273 M7.56019636,7.56039273 C9.64459636,7.56039273 11.3401964,5.86381091 11.3401964,3.77941091 C11.3401964,1.69501091 9.64459636,0.000392727273 7.56019636,0.000392727273 C5.47579636,0.000392727273 3.78019636,1.69501091 3.78019636,3.77941091 C3.78019636,5.86381091 5.47579636,7.56039273 7.56019636,7.56039273" id="Fill-5" fill="#595FAB"></path>
                <path d="M2.52739636,12.9603927 C3.43459636,12.3330109 5.62699636,11.6103927 7.56019636,11.6103927 C9.49339636,11.6103927 11.6857964,12.3330109 12.5929964,12.9603927 L2.52739636,12.9603927 Z M7.56019636,9.45039273 C5.03299636,9.45039273 0.000196363636,10.7139927 0.000196363636,13.2294109 L0.000196363636,15.1194109 L15.1201964,15.1194109 L15.1201964,13.2294109 C15.1201964,10.7139927 10.0873964,9.45039273 7.56019636,9.45039273 L7.56019636,9.45039273 Z" id="Fill-7" fill="#595FAB"></path>
                <path d="M15.1630036,9.51440727 C16.4158036,10.4225891 17.2798036,11.6312073 17.2798036,13.2296073 L17.2798036,15.1196073 L21.5998036,15.1196073 L21.5998036,13.2296073 C21.5998036,11.0480073 17.8198036,9.80600727 15.1630036,9.51440727" id="Fill-9" fill="#595FAB"></path>
                <path d="M14.0398036,7.56039273 C16.1242036,7.56039273 17.8198036,5.86381091 17.8198036,3.77941091 C17.8198036,1.69501091 16.1242036,0.000392727273 14.0398036,0.000392727273 C13.4566036,0.000392727273 12.9166036,0.139810909 12.4198036,0.378392727 C13.1002036,1.33959273 13.4998036,2.51581091 13.4998036,3.77941091 C13.4998036,5.04399273 13.1002036,6.22119273 12.4198036,7.18141091 C12.9166036,7.41901091 13.4566036,7.56039273 14.0398036,7.56039273" id="Fill-11" fill="#595FAB"></path>
            </g>
        </g>
    </g>
</svg>