<?xml version="1.0" encoding="UTF-8"?>
<svg width="22px" height="17px" viewBox="0 0 22 17" version="1.1" xmlns="http://www.w3.org/2000/svg" xmlns:xlink="http://www.w3.org/1999/xlink">
    <!-- Generator: Sketch 53 (72520) - https://sketchapp.com -->
    <title>Group 6</title>
    <desc>Created with Sketch.</desc>
    <defs>
        <polygon id="path-1" points="0 0.31658087 21.4597878 0.31658087 21.4597878 15.9652174 0 15.9652174"></polygon>
    </defs>
    <g id="Symbols" stroke="none" stroke-width="1" fill="none" fill-rule="evenodd">
        <g id="icon/main-nav/quick-action" transform="translate(-1.000000, -4.000000)">
            <g id="Group-6" transform="translate(1.200000, 3.600000)">
                <path d="M20.4926713,9.08974957 C20.4926713,12.8425148 17.4498887,15.8852974 13.6971235,15.8852974 C9.94341913,15.8852974 6.90063652,12.8425148 6.90063652,9.08974957 C6.90063652,5.33698435 9.94341913,2.29420174 13.6971235,2.29420174 C17.4498887,2.29420174 20.4926713,5.33698435 20.4926713,9.08974957" id="Fill-1" fill="#E9EBED"></path>
                <g id="Group-5" transform="translate(0.000000, 0.623113)">
                    <mask id="mask-2" fill="white">
                        <use xlink:href="#path-1"></use>
                    </mask>
                    <g id="Clip-4"></g>
                    <path d="M12.6751617,4.25153739 L14.1392661,4.25153739 L14.1392661,7.9113287 L16.3809704,10.1999896 L15.3751617,11.2518157 L12.6751617,8.55275478 L12.6751617,4.25153739 Z M13.6358922,2.28312 C11.9886574,2.3141113 10.6081357,2.88604174 9.49432696,3.9989113 C8.38051826,5.11365913 7.80858783,6.49324174 7.77853565,8.14141565 C7.80858783,9.78865043 8.38051826,11.168233 9.49432696,12.2820417 C10.6081357,13.3949113 11.9886574,13.9677809 13.6358922,13.997833 C15.283127,13.9677809 16.6636487,13.3949113 17.7774574,12.2820417 C18.890327,11.168233 19.4622574,9.78865043 19.4932487,8.14141565 C19.4622574,6.49324174 18.890327,5.11365913 17.7774574,3.9989113 C16.6636487,2.88604174 15.283127,2.3141113 13.6358922,2.28312 L13.6358922,2.28312 Z M13.6358922,0.31658087 C15.8625704,0.377624348 17.7079617,1.14019826 19.1720661,2.60430261 C20.6371096,4.06840696 21.3987443,5.91473739 21.4597878,8.14141565 C21.3987443,10.3680939 20.6371096,12.2134852 19.1720661,13.6775896 C17.7079617,15.1416939 15.8625704,15.9042678 13.6358922,15.9653113 C11.4082748,15.9042678 9.56382261,15.1416939 8.09877913,13.6775896 C6.63467478,12.2134852 5.87210087,10.3680939 5.81105739,8.14141565 C5.87210087,5.91473739 6.63467478,4.06840696 8.09877913,2.60430261 C9.56382261,1.14019826 11.4082748,0.377624348 13.6358922,0.31658087 L13.6358922,0.31658087 Z M2.8828487,4.25153739 C2.60862261,4.22148522 2.37947478,4.11442435 2.19634435,3.93035478 C2.01321391,3.74816348 1.92211826,3.51901565 1.92211826,3.24478957 C1.92211826,2.97056348 2.01321391,2.74141565 2.19634435,2.55828522 C2.37947478,2.37515478 2.60862261,2.28312 2.8828487,2.28312 L5.81105739,2.28312 C5.35370087,2.89449391 4.97147478,3.55000696 4.66719652,4.25153739 L2.8828487,4.25153739 Z M1.92211826,9.10120696 C1.64695304,9.10120696 1.41874435,9.0101113 1.23561391,8.82698087 C1.05248348,8.64385043 0.960448696,8.41564174 0.960448696,8.14141565 C0.960448696,7.86625043 1.05248348,7.63710261 1.23561391,7.45397217 C1.41874435,7.27178087 1.64695304,7.17974609 1.92211826,7.17974609 L3.93467478,7.17974609 L3.88959652,8.14141565 L3.93467478,9.10120696 L1.92211826,9.10120696 Z M0.960448696,13.997833 C0.686222609,13.997833 0.458013913,13.9057983 0.274883478,13.723607 C0.0917530435,13.5404765 -0.00028173913,13.3103896 -0.00028173913,13.0361635 C-0.00028173913,12.7628765 0.0917530435,12.5327896 0.274883478,12.3505983 C0.458013913,12.1674678 0.686222609,12.060407 0.960448696,12.0294157 L4.66719652,12.0294157 C4.97147478,12.7318852 5.35370087,13.3883374 5.81105739,13.997833 L0.960448696,13.997833 Z" id="Fill-3" fill="#939BA4" mask="url(#mask-2)"></path>
                </g>
            </g>
        </g>
    </g>
</svg>