<?xml version="1.0" encoding="UTF-8"?>
<svg width="22px" height="17px" viewBox="0 0 22 17" version="1.1" xmlns="http://www.w3.org/2000/svg" xmlns:xlink="http://www.w3.org/1999/xlink">
    <!-- Generator: Sketch 53 (72520) - https://sketchapp.com -->
    <title>Group 6</title>
    <desc>Created with Sketch.</desc>
    <defs>
        <polygon id="path-1" points="0.000187826087 0.31658087 21.4600696 0.31658087 21.4600696 15.9652174 0.000187826087 15.9652174"></polygon>
    </defs>
    <g id="Symbols" stroke="none" stroke-width="1" fill="none" fill-rule="evenodd">
        <g id="icon/main-nav/active/quick-action" transform="translate(-1.000000, -4.000000)">
            <g id="Group-6" transform="translate(1.200000, 3.600000)">
                <path d="M20.4926713,9.08974957 C20.4926713,12.8425148 17.4498887,15.8852974 13.6971235,15.8852974 C9.94341913,15.8852974 6.90063652,12.8425148 6.90063652,9.08974957 C6.90063652,5.33698435 9.94341913,2.29420174 13.6971235,2.29420174 C17.4498887,2.29420174 20.4926713,5.33698435 20.4926713,9.08974957" id="Fill-1" fill="#DEDEF9"></path>
                <g id="Group-5" transform="translate(0.000000, 0.623113)">
                    <mask id="mask-2" fill="white">
                        <use xlink:href="#path-1"></use>
                    </mask>
                    <g id="Clip-4"></g>
                    <path d="M12.6746922,4.25153739 L14.1397357,4.25153739 L14.1397357,7.9113287 L16.38144,10.1999896 L15.3746922,11.2518157 L12.6746922,8.55275478 L12.6746922,4.25153739 Z M13.6354226,2.28312 C11.989127,2.3141113 10.6076661,2.88604174 9.49479652,3.9989113 C8.38098783,5.11365913 7.80905739,6.49324174 7.77900522,8.14141565 C7.80905739,9.78865043 8.38098783,11.168233 9.49479652,12.2820417 C10.6076661,13.3949113 11.989127,13.9677809 13.6354226,13.997833 C15.2826574,13.9677809 16.6631791,13.3949113 17.7769878,12.2820417 C18.8898574,11.168233 19.462727,9.78865043 19.4927791,8.14141565 C19.462727,6.49324174 18.8898574,5.11365913 17.7769878,3.9989113 C16.6631791,2.88604174 15.2826574,2.3141113 13.6354226,2.28312 L13.6354226,2.28312 Z M13.6354226,0.31658087 C15.8621009,0.377624348 17.7084313,1.14019826 19.1725357,2.60430261 C20.63664,4.06840696 21.3992139,5.91473739 21.4602574,8.14141565 C21.3992139,10.3680939 20.63664,12.2134852 19.1725357,13.6775896 C17.7084313,15.1416939 15.8621009,15.9042678 13.6354226,15.9653113 C11.4087443,15.9042678 9.56335304,15.1416939 8.0992487,13.6775896 C6.63514435,12.2134852 5.8716313,10.3680939 5.81152696,8.14141565 C5.8716313,5.91473739 6.63514435,4.06840696 8.0992487,2.60430261 C9.56335304,1.14019826 11.4087443,0.377624348 13.6354226,0.31658087 L13.6354226,0.31658087 Z M2.88237913,4.25153739 C2.60815304,4.22148522 2.37994435,4.11442435 2.19587478,3.93035478 C2.01274435,3.74816348 1.9216487,3.51901565 1.9216487,3.24478957 C1.9216487,2.97056348 2.01274435,2.74141565 2.19587478,2.55828522 C2.37994435,2.37515478 2.60815304,2.28312 2.88237913,2.28312 L5.81152696,2.28312 C5.35417043,2.89449391 4.97194435,3.55000696 4.66766609,4.25153739 L2.88237913,4.25153739 Z M1.9216487,9.10120696 C1.64742261,9.10120696 1.41827478,9.0101113 1.23514435,8.82698087 C1.05295304,8.64385043 0.960918261,8.41564174 0.960918261,8.14141565 C0.960918261,7.86625043 1.05295304,7.63710261 1.23514435,7.45397217 C1.41827478,7.27178087 1.64742261,7.17974609 1.9216487,7.17974609 L3.93514435,7.17974609 L3.89006609,8.14141565 L3.93514435,9.10120696 L1.9216487,9.10120696 Z M0.960918261,13.997833 C0.686692174,13.997833 0.457544348,13.9057983 0.274413913,13.723607 C0.0912834783,13.5404765 0.000187826087,13.3103896 0.000187826087,13.0361635 C0.000187826087,12.7628765 0.0912834783,12.5327896 0.274413913,12.3505983 C0.457544348,12.1674678 0.686692174,12.060407 0.960918261,12.0294157 L4.66766609,12.0294157 C4.97194435,12.7318852 5.35417043,13.3883374 5.81152696,13.997833 L0.960918261,13.997833 Z" id="Fill-3" fill="#595FAB" mask="url(#mask-2)"></path>
                </g>
            </g>
        </g>
    </g>
</svg>