<svg xmlns="http://www.w3.org/2000/svg" width="40.47" height="40.47" viewBox="0 0 40.47 40.47">
  <g id="Icon_ionic-ios-close-circle-outline" data-name="Icon ionic-ios-close-circle-outline" transform="translate(-3.375 -3.375)">
    <path id="Path_319" data-name="Path 319" d="M27.489,25.293l-5.127-5.127,5.127-5.127a1.555,1.555,0,1,0-2.2-2.2l-5.127,5.127L15.037,12.84a1.555,1.555,0,0,0-2.2,2.2l5.127,5.127-5.127,5.127a1.5,1.5,0,0,0,0,2.2,1.544,1.544,0,0,0,2.2,0l5.127-5.127,5.127,5.127a1.562,1.562,0,0,0,2.2,0A1.544,1.544,0,0,0,27.489,25.293Z" transform="translate(3.446 3.444)" fill="red"/>
    <path id="Path_320" data-name="Path 320" d="M23.61,6.1a17.5,17.5,0,1,1-12.384,5.127A17.4,17.4,0,0,1,23.61,6.1m0-2.724A20.235,20.235,0,1,0,43.845,23.61,20.232,20.232,0,0,0,23.61,3.375Z" transform="translate(0 0)" fill="red"/>
  </g>
</svg>
