<?xml version="1.0" encoding="UTF-8"?>
<svg width="18px" height="22px" viewBox="0 0 18 22" version="1.1" xmlns="http://www.w3.org/2000/svg" xmlns:xlink="http://www.w3.org/1999/xlink">
    <!-- Generator: Sketch 53 (72520) - https://sketchapp.com -->
    <title>Group 12</title>
    <desc>Created with Sketch.</desc>
    <defs>
        <polygon id="path-1" points="0.000432 0 17.28 0 17.28 21.6 0.000432 21.6"></polygon>
        <polygon id="path-3" points="0 21.6 17.28 21.6 17.28 0 0 0"></polygon>
    </defs>
    <g id="Symbols" stroke="none" stroke-width="1" fill="none" fill-rule="evenodd">
        <g id="icon/main-nav/reports" transform="translate(-3.000000, -1.000000)">
            <g id="Group-12" transform="translate(3.600000, 1.200000)">
                <polygon id="Fill-1" fill="#EAEAEA" points="9.720432 2.16 2.160432 2.16 2.160432 19.44 15.120432 19.44 15.120432 7.56 9.720432 7.56"></polygon>
                <g id="Group-5">
                    <mask id="mask-2" fill="white">
                        <use xlink:href="#path-1"></use>
                    </mask>
                    <g id="Clip-4"></g>
                    <path d="M15.120432,19.44 L2.160432,19.44 L2.160432,2.16 L9.720432,2.16 L9.720432,7.56 L15.120432,7.56 L15.120432,19.44 Z M17.280432,6.48 L10.800432,0 L2.160432,0 C0.971352,0 0.011232,0.972 0.011232,2.16 L0.000432,19.44 C0.000432,20.628 0.961632,21.6 2.148552,21.6 L15.120432,21.6 C16.308432,21.6 17.280432,20.628 17.280432,19.44 L17.280432,6.48 Z" id="Fill-3" fill="#939BA4" mask="url(#mask-2)"></path>
                </g>
                <path d="M11.4156,17.5338 L13.26564,17.5338 L13.26564,13.83372 L11.4156,13.83372 L11.4156,17.5338 Z M4.01436,17.5338 L5.8644,17.5338 L5.8644,11.05812 L4.01436,11.05812 L4.01436,17.5338 Z" id="Fill-6" fill="#595FAB"></path>
                <mask id="mask-4" fill="white">
                    <use xlink:href="#path-3"></use>
                </mask>
                <g id="Clip-9"></g>
                <polygon id="Fill-8" fill="#939BA4" mask="url(#mask-4)" points="4.01436 17.5338 5.8644 17.5338 5.8644 11.05812 4.01436 11.05812"></polygon>
                <polygon id="Fill-10" fill="#939BA4" mask="url(#mask-4)" points="7.71444 17.5338 9.56556 17.5338 9.56556 9.36252 7.71444 9.36252"></polygon>
                <polygon id="Fill-11" fill="#939BA4" mask="url(#mask-4)" points="11.4156 17.5338 13.26564 17.5338 13.26564 13.83372 11.4156 13.83372"></polygon>
            </g>
        </g>
    </g>
</svg>