<?xml version="1.0" encoding="UTF-8"?>
<svg width="22px" height="22px" viewBox="0 0 22 22" version="1.1" xmlns="http://www.w3.org/2000/svg" xmlns:xlink="http://www.w3.org/1999/xlink">
    <!-- Generator: Sketch 53 (72520) - https://sketchapp.com -->
    <title>Group</title>
    <desc>Created with Sketch.</desc>
    <defs>
        <polygon id="path-1" points="0 0.000216 21.599892 0.000216 21.599892 21.6 0 21.6"></polygon>
        <polygon id="path-3" points="0 0.000108 9.916452 0.000108 9.916452 12.772728 0 12.772728"></polygon>
    </defs>
    <g id="Symbols" stroke="none" stroke-width="1" fill="none" fill-rule="evenodd">
        <g id="icon/main-nav/revenue" transform="translate(-1.000000, -1.000000)">
            <g id="Group" transform="translate(1.200000, 1.200000)">
                <g id="Group-6">
                    <path d="M20.473452,10.800216 C20.473452,5.179896 15.918012,0.625536 10.298772,0.625536 C4.678452,0.625536 0.123012,5.179896 0.123012,10.800216 C0.123012,16.419456 4.678452,20.974896 10.298772,20.974896 C15.918012,20.974896 20.473452,16.419456 20.473452,10.800216" id="Fill-1" fill="#EAEAEA"></path>
                    <g id="Group-5">
                        <mask id="mask-2" fill="white">
                            <use xlink:href="#path-1"></use>
                        </mask>
                        <g id="Clip-4"></g>
                        <path d="M10.799892,19.440216 C6.037092,19.440216 2.159892,15.563016 2.159892,10.800216 C2.159892,6.037416 6.037092,2.160216 10.799892,2.160216 C15.562692,2.160216 19.439892,6.037416 19.439892,10.800216 C19.439892,15.563016 15.562692,19.440216 10.799892,19.440216 M10.799892,0.000216 C4.838292,0.000216 -0.000108,4.838616 -0.000108,10.800216 C-0.000108,16.761816 4.838292,21.600216 10.799892,21.600216 C16.762572,21.600216 21.599892,16.761816 21.599892,10.800216 C21.599892,4.838616 16.762572,0.000216 10.799892,0.000216" id="Fill-3" fill="#939BA4" mask="url(#mask-2)"></path>
                    </g>
                </g>
                <g id="Group-3" transform="translate(5.400000, 5.400000)">
                    <mask id="mask-4" fill="white">
                        <use xlink:href="#path-3"></use>
                    </mask>
                    <g id="Clip-2"></g>
                    <path d="M-0.000108,5.773248 L4.608252,5.773248 C4.926852,5.770008 5.874012,5.654448 6.364332,5.166288 C6.437772,5.078808 6.536052,4.783968 6.607332,4.437288 L0.450252,4.437288 L0.450252,2.876688 L6.504732,2.876688 C6.023052,1.997568 4.805892,1.633608 4.521852,1.559088 L0.450252,1.560168 L0.450252,-0.000432 L9.916452,-0.000432 L9.916452,1.560168 L7.487532,1.560168 C7.818012,1.951128 8.046972,2.393928 8.165772,2.876688 L9.916452,2.876688 L9.916452,4.437288 L8.184132,4.437288 C8.093412,5.008608 7.894692,5.835888 7.461612,6.267888 C6.428052,7.298208 4.791852,7.327368 4.609332,7.327368 L3.462372,7.327368 L7.383852,11.738088 L6.222852,12.772728 L-0.000108,5.773248 Z" id="Fill-1" fill="#939BA4" mask="url(#mask-4)"></path>
                </g>
            </g>
        </g>
    </g>
</svg>