<svg xmlns="http://www.w3.org/2000/svg" width="18.25" height="16.222" viewBox="0 0 18.25 16.222">
  <path id="Icon_awesome-file-signature" data-name="Icon awesome-file-signature" d="M6.912,13.438a.351.351,0,0,0-.322-.207.346.346,0,0,0-.317.2l-.243.486a.507.507,0,0,1-.934-.066l-.533-1.6-.336,1.01a1.368,1.368,0,0,1-1.3.936H2.535a.507.507,0,1,1,0-1.014h.393a.355.355,0,0,0,.337-.243l.576-1.731a.761.761,0,0,1,1.443,0l.44,1.319a1.422,1.422,0,0,1,2.091.449.36.36,0,0,0,.3.2v-2.6l4.056-4.027V5.069H7.858a.763.763,0,0,1-.76-.76V0H.76A.759.759,0,0,0,0,.76v14.7a.759.759,0,0,0,.76.76H11.406a.759.759,0,0,0,.76-.76V14.194l-4.056,0A1.36,1.36,0,0,1,6.912,13.438Zm5.254-9.576a.758.758,0,0,0-.222-.535L8.843.222A.76.76,0,0,0,8.3,0H8.111V4.056h4.056ZM9.125,10.993V13.18h2.186l5.123-5.158L14.283,5.872,9.125,10.993ZM18.014,5.3,17,4.292a.807.807,0,0,0-1.141,0L15,5.155,17.15,7.306l.863-.863A.806.806,0,0,0,18.014,5.3Z" fill="#595fab"/>
</svg>
