<?xml version="1.0" encoding="UTF-8"?>
<svg width="22px" height="15px" viewBox="0 0 22 15" version="1.1" xmlns="http://www.w3.org/2000/svg" xmlns:xlink="http://www.w3.org/1999/xlink">
    <!-- Generator: Sketch 53 (72520) - https://sketchapp.com -->
    <title>Group 17</title>
    <desc>Created with Sketch.</desc>
    <defs>
        <polygon id="path-1" points="0 0.676434657 20.8111304 0.676434657 20.8111304 13.1472596 0 13.1472596"></polygon>
        <polygon id="path-3" points="0.411433043 0.677113043 9.59894609 0.677113043 9.59894609 5.27002435 0.411433043 5.27002435"></polygon>
    </defs>
    <g id="Symbols" stroke="none" stroke-width="1" fill="none" fill-rule="evenodd">
        <g id="icon/sub-nav/active/trip" transform="translate(-1.000000, -5.000000)">
            <g id="Group-17" transform="translate(1.500000, 4.800000)">
                <g id="Group-3" transform="translate(0.000000, 1.201617)">
                    <mask id="mask-2" fill="white">
                        <use xlink:href="#path-1"></use>
                    </mask>
                    <g id="Clip-2"></g>
                    <path d="M14.9062539,10.3811478 C14.9118887,11.016 15.4800626,11.5907478 16.1102191,11.5992 C16.7197148,11.6076522 17.3376626,11.0047304 17.347993,10.3933565 C17.3592626,9.72187826 16.7723061,9.15088696 16.0773496,9.15746087 C15.4293496,9.16403478 14.9006191,9.71624348 14.9062539,10.3811478 L14.9062539,10.3811478 Z M3.27418435,10.3041391 C3.2478887,10.9784348 3.83766261,11.6095304 4.48566261,11.6020174 C5.12333217,11.5945043 5.68493217,11.030087 5.69714087,10.3830261 C5.7102887,9.71248696 5.19940174,9.18 4.52322783,9.16215652 C3.84048,9.14431304 3.30048,9.63735652 3.27418435,10.3041391 L3.27418435,10.3041391 Z M2.35759304,8.53106087 C3.85362783,7.21158261 5.11018435,7.21533913 6.63721043,8.55735652 C6.7658713,8.67005217 6.94336696,8.72733913 7.29178435,8.91610435 L7.29178435,5.58970435 L7.29178435,2.25015652 C6.32260174,2.25015652 5.40131478,2.22573913 4.48190609,2.27175652 C4.30534957,2.2802087 4.09404522,2.53283478 3.9794713,2.7216 C3.38218435,3.70674783 2.85533217,4.73791304 2.21578435,5.69488696 C1.59971478,6.6189913 1.40249739,7.58441739 1.62882783,8.85787826 C1.91432348,8.73391304 2.18197565,8.68507826 2.35759304,8.53106087 L2.35759304,8.53106087 Z M8.88079304,8.79495652 C10.0894539,8.79495652 11.2868452,8.78274783 12.4842365,8.79965217 C12.8279583,8.80434783 13.2214539,8.76208696 13.2214539,8.76208696 C13.2214539,8.76208696 14.0093843,8.39488696 14.3258713,8.09906087 C15.3485843,7.14114783 16.9422887,7.38062609 18.0185322,8.30848696 C18.3284452,8.57426087 18.7463583,8.71137391 19.2713322,8.99123478 L19.2713322,5.82824348 C15.8237843,5.82824348 12.3997148,5.80664348 8.88079304,5.80664348 L8.88079304,8.79495652 Z M4.47439304,13.1299826 C3.93063652,13.1074435 2.98023652,12.96 2.61961043,12.606887 C2.01293217,12.0124174 1.88333217,10.8028174 1.39310609,10.0881391 C1.44757565,10.0280348 1.50298435,10.3698783 1.55651478,10.310713 L0.0247930435,10.310713 C0.08208,8.31036522 -0.363067826,6.34382609 1.01557565,4.58201739 C1.80350609,3.5762087 2.35571478,2.37975652 2.96802783,1.24528696 C3.21501913,0.789808696 3.50333217,0.655513043 4.01328,0.678991304 C5.09515826,0.730643478 6.17985391,0.694956522 7.31244522,0.694956522 C8.17456696,0.725008696 8.03088,0.73533913 8.83195826,0.73533913 C8.82256696,1.17673043 8.88079304,4.12184348 8.88079304,4.12184348 C8.88079304,4.12184348 16.7328626,4.25613913 20.8115061,4.25613913 L20.8115061,10.3482783 L18.9811409,10.3482783 C18.6167583,12.1382609 17.7471235,13.0792696 16.3637843,13.1421913 C14.6348452,13.2220174 13.639367,12.3617739 13.1679235,10.3567304 L7.42044522,10.3567304 C6.74896696,12.42 5.97888,13.1910261 4.47439304,13.1299826 L4.47439304,13.1299826 Z" id="Fill-1" fill="#595FAB" mask="url(#mask-2)"></path>
                </g>
                <path d="M8.88079304,7.00863652 L8.88079304,9.99694957 C10.0894539,9.99694957 11.2877843,9.98380174 12.4842365,10.0016452 C13.2036104,10.0119757 13.805593,9.94999304 14.4122713,9.38181913 C15.4349843,8.42390609 16.9422887,8.58261913 18.0185322,9.51048 C18.3284452,9.77531478 18.7463583,9.91242783 19.2713322,10.1932278 L19.2713322,7.02929739 C9.23860174,7.02929739 18.8975583,7.00863652 8.88079304,7.00863652" id="Fill-4" fill="#D8DCEF"></path>
                <path d="M1.62910957,10.0594017 C1.91460522,9.93543652 2.18225739,9.88660174 2.35693565,9.73258435 C3.85390957,8.41404522 5.11046609,8.41686261 6.63749217,9.75888 C6.76615304,9.87157565 6.94270957,9.92886261 7.29112696,10.1176278 L7.29112696,6.79216696 L7.29112696,3.45168 C6.32288348,3.45168 5.40159652,3.42726261 4.48218783,3.47328 C4.3056313,3.48173217 4.09432696,3.73435826 3.97975304,3.92312348 C3.38152696,4.9082713 2.85561391,5.93943652 2.21606609,6.89641043 C1.59999652,7.82051478 1.40277913,8.78688 1.62910957,10.0594017" id="Fill-6" fill="#D8DCEF"></path>
                <path d="M4.52360348,10.3634922 C3.83991652,10.3456487 3.29991652,10.8396313 3.27456,11.5054748 C3.24826435,12.1797704 3.83803826,12.8108661 4.48603826,12.803353 C5.12370783,12.7967791 5.6843687,12.2323617 5.69751652,11.5853009 C5.71066435,10.9138226 5.19977739,10.3813357 4.52360348,10.3634922" id="Fill-8" fill="#FFFFFF"></path>
                <path d="M16.0774435,10.35936 C15.4294435,10.3659339 14.900713,10.9181426 14.9063478,11.583047 C14.9119826,12.2178991 15.4801565,12.792647 16.110313,12.8010991 C16.7198087,12.8086122 17.3377565,12.2056904 17.348087,11.5943165 C17.3593565,10.9237774 16.7724,10.3527861 16.0774435,10.35936" id="Fill-10" fill="#FFFFFF"></path>
                <path d="M18.05112,5.43625043 C18.05112,3.41805913 16.4151548,1.78209391 14.3960243,1.78209391 C12.377833,1.78209391 10.7418678,3.41805913 10.7418678,5.43625043" id="Fill-12" fill="#D8DCEF"></path>
                <g id="Group-16" transform="translate(9.391304, 0.262487)">
                    <mask id="mask-4" fill="white">
                        <use xlink:href="#path-3"></use>
                    </mask>
                    <g id="Clip-15"></g>
                    <path d="M9.59894609,5.27002435 L7.72068522,5.27002435 C7.72068522,3.77305043 6.50263304,2.55499826 5.00472,2.55499826 C3.50774609,2.55499826 2.28969391,3.77305043 2.28969391,5.27002435 L0.411433043,5.27002435 C0.411433043,2.73718957 2.47188522,0.676737391 5.00472,0.676737391 C7.53849391,0.676737391 9.59894609,2.73718957 9.59894609,5.27002435" id="Fill-14" fill="#595FAB" mask="url(#mask-4)"></path>
                </g>
            </g>
        </g>
    </g>
</svg>