<?xml version="1.0" encoding="UTF-8"?>
<svg width="22px" height="15px" viewBox="0 0 22 15" version="1.1" xmlns="http://www.w3.org/2000/svg" xmlns:xlink="http://www.w3.org/1999/xlink">
    <!-- Generator: Sketch 53 (72520) - https://sketchapp.com -->
    <title>Group 19</title>
    <desc>Created with Sketch.</desc>
    <defs>
        <polygon id="path-1" points="0 0.206705342 21.281447 0.206705342 21.281447 13.1478261 0 13.1478261"></polygon>
        <polygon id="path-3" points="0.646215652 0.441391304 9.8337287 0.441391304 9.8337287 5.03542957 0.646215652 5.03542957"></polygon>
    </defs>
    <g id="Symbols" stroke="none" stroke-width="1" fill="none" fill-rule="evenodd">
        <g id="icon/sub-nav/trip" transform="translate(-1.000000, -5.000000)">
            <g id="Group-19" transform="translate(1.200000, 4.800000)">
                <path d="M15.1411304,11.5827652 C15.1467652,12.2176174 15.7149391,12.7923652 16.3460348,12.8008174 C16.9545913,12.8092696 17.5725391,12.2063478 17.5838087,11.5949739 C17.5941391,10.9234957 17.0071826,10.3525043 16.3122261,10.3590783 C15.6642261,10.3656522 15.1354957,10.9178609 15.1411304,11.5827652 L15.1411304,11.5827652 Z M3.50906087,11.5057565 C3.48276522,12.1800522 4.07253913,12.8111478 4.72053913,12.8036348 C5.3582087,12.7961217 5.9198087,12.2317043 5.93201739,11.5855826 C5.94610435,10.9141043 5.43427826,10.3816174 4.75810435,10.3637739 C4.07535652,10.3459304 3.53535652,10.8389739 3.50906087,11.5057565 L3.50906087,11.5057565 Z M2.59246957,9.73267826 C4.08850435,8.41413913 5.34506087,8.41695652 6.87208696,9.75897391 C7.00074783,9.87166957 7.17824348,9.92895652 7.5276,10.1177217 L7.5276,6.79226087 L7.5276,3.45177391 C6.55841739,3.45177391 5.6361913,3.42735652 4.71678261,3.47337391 C4.54022609,3.48182609 4.32892174,3.73445217 4.21434783,3.92321739 C3.61706087,4.90930435 3.0902087,5.94046957 2.45066087,6.89650435 C1.8345913,7.8206087 1.63737391,8.78603478 1.86370435,10.0594957 C2.1492,9.93553043 2.41685217,9.88669565 2.59246957,9.73267826 L2.59246957,9.73267826 Z M9.11566957,9.99657391 C10.3243304,9.99657391 11.5217217,9.98436522 12.719113,10.0012696 C13.0628348,10.0059652 13.4563304,9.96370435 13.4563304,9.96370435 C13.4563304,9.96370435 14.2442609,9.59650435 14.5607478,9.30067826 C15.5834609,8.34276522 17.1771652,8.58224348 18.2543478,9.51010435 C18.5633217,9.77587826 18.9812348,9.9129913 19.5062087,10.1937913 C19.5062087,7.23646957 19.5071478,9.77118261 19.5071478,7.02986087 C16.0586609,7.02986087 12.6345913,7.00826087 9.11566957,7.00826087 L9.11566957,9.99657391 Z M4.7102087,14.3316 C4.16551304,14.3090609 3.21511304,14.1625565 2.85448696,13.8085043 C2.2478087,13.2140348 2.1182087,12.0044348 1.62798261,11.2897565 C1.68245217,11.2305913 1.73786087,11.5714957 1.7913913,11.5123304 L0.259669565,11.5123304 C0.316956522,9.51198261 -0.128191304,7.54544348 1.2513913,5.78457391 C2.03838261,4.77782609 2.5905913,3.58231304 3.20290435,2.44690435 C3.44989565,1.99142609 3.7382087,1.85713043 4.24909565,1.8806087 C5.33003478,1.93226087 6.41566957,1.89657391 7.54732174,1.89657391 C8.40944348,1.92662609 8.26575652,1.93695652 9.06683478,1.93695652 C9.05744348,2.37834783 9.11566957,5.32346087 9.11566957,5.32346087 C9.11566957,5.32346087 16.9677391,5.45775652 21.0463826,5.45775652 L21.0463826,11.5498957 L19.2160174,11.5498957 C18.8525739,13.3398783 17.982,14.280887 16.5986609,14.3447478 C14.8697217,14.4245739 13.8742435,13.5643304 13.4028,11.5583478 L7.65532174,11.5583478 C6.98384348,13.6216174 6.21375652,14.3926435 4.7102087,14.3316 L4.7102087,14.3316 Z" id="Fill-1" fill="#939BA4"></path>
                <g id="Group-5" transform="translate(0.000000, 1.436682)">
                    <mask id="mask-2" fill="white">
                        <use xlink:href="#path-1"></use>
                    </mask>
                    <g id="Clip-4"></g>
                    <path d="M6.0515687,2.24377043 C5.60454261,2.24377043 5.16784696,2.24940522 4.72927304,2.27100522 C4.67856,2.28133565 4.53299478,2.41469217 4.41560348,2.60909217 C4.18551652,2.98756174 3.96669913,3.37260522 3.74788174,3.7576487 C3.40134261,4.36620522 3.04353391,4.99636174 2.64628174,5.58989217 C2.10252522,6.40599652 1.91563826,7.25121391 2.05181217,8.30022261 C2.05462957,8.29834435 2.05838609,8.29740522 2.06120348,8.29646609 C2.21897739,8.24105739 2.35327304,8.19222261 2.43685565,8.11990957 C4.03337739,6.7140313 5.40638609,6.72060522 7.02732522,8.14620522 C7.08273391,8.19410087 7.16631652,8.23636174 7.29216,8.29834435 L7.29216,2.24940522 L6.77563826,2.24658783 C6.53052522,2.24470957 6.29010783,2.24377043 6.0515687,2.24377043 L6.0515687,2.24377043 Z M7.76172522,9.07406609 L7.41518609,8.88811826 C7.28934261,8.81956174 7.18603826,8.7688487 7.09963826,8.72658783 C6.93810783,8.64770087 6.82165565,8.59041391 6.71741217,8.49931826 C5.27678609,7.2324313 4.16391652,7.22397913 2.7467687,8.47208348 C2.59650783,8.60544 2.41243826,8.67024 2.21803826,8.73879652 C2.13445565,8.7688487 2.04711652,8.79890087 1.95789913,8.83834435 L1.6855513,8.95667478 L1.63296,8.66366609 C1.40005565,7.35357913 1.59163826,6.3252313 2.25560348,5.32975304 C2.64346435,4.74937043 2.99751652,4.12672696 3.33936,3.52568348 C3.56099478,3.13594435 3.78169043,2.74714435 4.01365565,2.36491826 C4.09160348,2.23719652 4.37052522,1.81834435 4.70485565,1.80237913 C5.39229913,1.7676313 6.06659478,1.77232696 6.77845565,1.77702261 L7.76172522,1.78077913 L7.76172522,9.07406609 Z M16.1669426,7.02300522 C16.9295165,7.02300522 17.7352904,7.31695304 18.4077078,7.89545739 C18.58896,8.05135304 18.8199861,8.16029217 19.1120557,8.29928348 C19.1637078,8.32370087 19.2172383,8.34905739 19.2717078,8.37535304 L19.272647,5.82749217 C17.6348035,5.82749217 16.0035339,5.82279652 14.362873,5.81716174 C12.7043687,5.81246609 11.0383513,5.8068313 9.35073391,5.8068313 L9.35073391,8.32464 L10.1903165,8.32276174 C11.0355339,8.31994435 11.8798122,8.31806609 12.7231513,8.32933565 C12.9757774,8.3368487 13.2875687,8.30773565 13.3927513,8.29740522 C13.6275339,8.1856487 14.175047,7.90297043 14.4004383,7.69260522 C14.8784557,7.24464 15.5057948,7.02300522 16.1669426,7.02300522 L16.1669426,7.02300522 Z M19.741273,9.14825739 L19.3966122,8.96418783 C19.2219339,8.87121391 19.0613426,8.79514435 18.9101426,8.72377043 C18.5983513,8.57538783 18.32976,8.44766609 18.1015513,8.25138783 C17.1896557,7.46533565 15.6954991,7.12255304 14.7206817,8.03538783 C14.3807165,8.35375304 13.5890296,8.72377043 13.5552209,8.73973565 L13.4819687,8.76039652 C13.4650643,8.76227478 13.0922296,8.81110957 12.7156383,8.79890087 C11.8769948,8.7876313 11.0392904,8.7904487 10.1912557,8.79232696 L8.8811687,8.79514435 L8.8811687,5.33726609 L9.1159513,5.33726609 C10.8843339,5.33726609 12.6282991,5.34290087 14.3647513,5.34759652 C16.0824209,5.3532313 17.7916383,5.35792696 19.5074296,5.35792696 L19.7422122,5.35792696 L19.741273,9.14825739 Z M15.3761948,10.1446748 C15.3808904,10.6527443 15.8448209,11.1232487 16.350073,11.1298226 C16.8449948,11.1270052 17.3408557,10.6349009 17.3483687,10.1540661 C17.3530643,9.90144 17.2516383,9.65726609 17.0619339,9.46662261 C16.8665948,9.26940522 16.5970643,9.1576487 16.3237774,9.1576487 L16.3153252,9.1576487 C15.7922296,9.16234435 15.3714991,9.60467478 15.3761948,10.1446748 L15.3761948,10.1446748 Z M16.3575861,11.5993878 L16.3434991,11.5993878 C15.5837426,11.5890574 14.9132035,10.9110052 14.9066296,10.1484313 C14.9000557,9.35017043 15.529273,8.69559652 16.3096904,8.68808348 L16.3237774,8.68808348 C16.7219687,8.68808348 17.1107687,8.85055304 17.3953252,9.1360487 C17.674247,9.4168487 17.8245078,9.7812313 17.8179339,10.1625183 C17.8057252,10.8922226 17.0835339,11.5993878 16.3575861,11.5993878 L16.3575861,11.5993878 Z M4.72176,9.16140522 C4.18269913,9.16140522 3.76384696,9.55114435 3.74412522,10.0779965 C3.73285565,10.3447096 3.84461217,10.6189357 4.04840348,10.8293009 C4.23810783,11.02464 4.4963687,11.1533009 4.71800348,11.13264 C5.22982957,11.1260661 5.68718609,10.664953 5.69751652,10.1446748 C5.70878609,9.59904 5.30214261,9.1764313 4.75181217,9.16234435 C4.74148174,9.16140522 4.73209043,9.16140522 4.72176,9.16140522 L4.72176,9.16140522 Z M4.71049043,11.6022052 C4.35080348,11.6022052 3.98829913,11.4397357 3.71219478,11.1570574 C3.41824696,10.8546574 3.25859478,10.4545878 3.27456,10.060153 C3.30461217,9.28537043 3.93664696,8.69184 4.72269913,8.69184 C4.73678609,8.69184 4.74993391,8.69184 4.76496,8.69277913 C5.56697739,8.71344 6.18398609,9.35580522 6.16708174,10.153127 C6.15111652,10.9297878 5.4899687,11.593753 4.72363826,11.6022052 L4.71049043,11.6022052 Z M7.48468174,9.88641391 L13.5890296,9.88641391 L13.6312904,10.0676661 C14.0783165,11.9694052 14.9629774,12.7432487 16.587673,12.673753 C17.8573774,12.6145878 18.6415513,11.7618574 18.985273,10.066727 L19.0237774,9.87890087 L20.8118817,9.87890087 L20.8118817,4.25632696 C16.717273,4.25069217 9.18920348,4.12297043 9.11219478,4.1220313 L8.88586435,4.11827478 L8.8811687,3.89194435 C8.87929043,3.78582261 8.8351513,1.55257043 8.83139478,0.734587826 C8.47170783,0.732709565 8.35807304,0.728013913 8.11014261,0.717683478 L7.5391513,0.695144348 C7.21609043,0.695144348 6.88927304,0.697961739 6.56527304,0.70077913 C5.76419478,0.708292174 5.00913391,0.714866087 4.23810783,0.67824 C3.79108174,0.661335652 3.60513391,0.762761739 3.40979478,1.1224487 C3.27737739,1.36662261 3.14777739,1.61549217 3.01911652,1.86342261 C2.5495513,2.76029217 2.06589913,3.68721391 1.43668174,4.4920487 C0.407394783,5.80495304 0.44496,7.24933565 0.484403478,8.77730087 C0.493794783,9.13041391 0.503186087,9.48446609 0.499429565,9.84133565 L1.33619478,9.84133565 L1.32962087,9.83194435 L1.54280348,9.59810087 L1.68742957,9.61500522 C1.81890783,9.63942261 1.87619478,9.74742261 1.91376,9.84133565 L2.32416,9.84133565 L2.05462957,10.1362226 C2.16732522,10.3785183 2.26123826,10.6395965 2.35327304,10.8959791 C2.5307687,11.3927791 2.71389913,11.9064835 3.01911652,12.2041878 C3.2867687,12.4662052 4.09442087,12.6343096 4.71894261,12.6596661 C6.08162087,12.723527 6.78690783,12.032327 7.43302957,10.0488835 L7.48468174,9.88641391 Z M16.3838817,13.1480139 C14.7234991,13.1480139 13.7120557,12.2549009 13.2199513,10.3559791 L7.82558609,10.3559791 C7.11842087,12.4380313 6.25066435,13.1902748 4.70109913,13.1292313 C4.15358609,13.1066922 3.11678609,12.9583096 2.69042087,12.5394574 C2.30913391,12.1656835 2.10628174,11.600327 1.91094261,11.0546922 C1.81609043,10.7898574 1.72499478,10.535353 1.61793391,10.3109009 L0.0185947826,10.3109009 L0.0251686957,10.0695443 C0.0373773913,9.64036174 0.0261078261,9.21305739 0.0148382609,8.78950957 C-0.0255443478,7.24557913 -0.066866087,5.64905739 1.06572522,4.20279652 C1.66958609,3.43177043 2.14384696,2.5236313 2.60214261,1.64554435 C2.73268174,1.39573565 2.86228174,1.14592696 2.99657739,0.898935652 C3.27737739,0.380535652 3.64739478,0.179561739 4.26064696,0.209613913 C5.01758609,0.24530087 5.76607304,0.238726957 6.56057739,0.231213913 C6.88645565,0.228396522 7.21421217,0.22557913 7.54760348,0.22557913 L8.13174261,0.248118261 C8.41911652,0.260326957 8.52242087,0.265022609 9.06711652,0.265022609 L9.30659478,0.265022609 L9.30189913,0.50450087 C9.29438609,0.866066087 9.33289043,2.9584487 9.34603826,3.65622261 C10.6645774,3.67782261 17.4037774,3.78676174 21.0466643,3.78676174 L21.281447,3.78676174 L21.281447,10.3484661 L19.4060035,10.3484661 C18.9937252,12.1356313 18.0536557,13.0757009 16.609273,13.1423791 C16.5332035,13.1461357 16.458073,13.1480139 16.3838817,13.1480139 L16.3838817,13.1480139 Z" id="Fill-3" fill="#939BA4" mask="url(#mask-2)"></path>
                </g>
                <path d="M9.11566957,7.00863652 L9.11566957,9.99694957 C10.3243304,9.99694957 11.5226609,9.98380174 12.719113,10.0016452 C13.438487,10.0119757 14.0404696,9.94999304 14.6471478,9.38181913 C15.6698609,8.42390609 17.1771652,8.58261913 18.2543478,9.51048 C18.5633217,9.77531478 18.9812348,9.91336696 19.5062087,10.1932278 C19.5062087,7.23684522 19.5071478,9.77061913 19.5071478,7.02929739 C9.47347826,7.02929739 19.1324348,7.00863652 9.11566957,7.00863652" id="Fill-6" fill="#EAEAEA"></path>
                <path d="M1.86398609,10.0594017 C2.14948174,9.93543652 2.41713391,9.88660174 2.59181217,9.73258435 C4.08878609,8.41404522 5.34534261,8.41686261 6.8723687,9.75888 C7.00102957,9.87157565 7.17758609,9.92886261 7.52694261,10.1176278 L7.52694261,6.79216696 L7.52694261,3.45168 C6.55869913,3.45168 5.63647304,3.42726261 4.71706435,3.47328 C4.54050783,3.48173217 4.32920348,3.73435826 4.21462957,3.92312348 C3.61640348,4.90921043 3.09049043,5.94037565 2.45094261,6.89641043 C1.83487304,7.82051478 1.63765565,8.78688 1.86398609,10.0594017" id="Fill-8" fill="#EAEAEA"></path>
                <path d="M4.75838609,10.3639617 C4.07469913,10.3451791 3.53469913,10.8391617 3.50934261,11.5059443 C3.48304696,12.18024 4.07282087,12.8103965 4.72082087,12.8038226 C5.35849043,12.7963096 5.9191513,12.2318922 5.93229913,11.5857704 C5.94638609,10.9142922 5.43456,10.3818052 4.75838609,10.3639617" id="Fill-10" fill="#FFFFFF"></path>
                <path d="M16.3122261,10.35936 C15.6642261,10.3659339 15.1354957,10.9181426 15.1411304,11.583047 C15.1467652,12.2178991 15.7149391,12.792647 16.3460348,12.8010991 C16.9545913,12.8086122 17.5725391,12.2066296 17.5838087,11.5952557 C17.5941391,10.9237774 17.0071826,10.3527861 16.3122261,10.35936" id="Fill-12" fill="#FFFFFF"></path>
                <path d="M18.2859026,5.53298087 C18.2859026,3.51478957 16.6499374,1.87788522 14.630807,1.87788522 C12.6126157,1.87788522 10.9766504,3.51478957 10.9766504,5.53298087" id="Fill-14" fill="#EAEAEA"></path>
                <g id="Group-18" transform="translate(9.391304, 0.497551)">
                    <mask id="mask-4" fill="white">
                        <use xlink:href="#path-3"></use>
                    </mask>
                    <g id="Clip-17"></g>
                    <path d="M9.8337287,5.03542957 L7.95546783,5.03542957 C7.95546783,3.53845565 6.73741565,2.31946435 5.23950261,2.31946435 C3.7425287,2.31946435 2.52447652,3.53845565 2.52447652,5.03542957 L0.646215652,5.03542957 C0.646215652,2.50259478 2.70666783,0.441203478 5.23950261,0.441203478 C7.77327652,0.441203478 9.8337287,2.50259478 9.8337287,5.03542957" id="Fill-16" fill="#939BA4" mask="url(#mask-4)"></path>
                </g>
            </g>
        </g>
    </g>
</svg>