<svg xmlns="http://www.w3.org/2000/svg" viewBox="0 0 22 16" width="22" height="16">
	<style>
		tspan { white-space:pre }
		.shp0 { fill: #7c7e9b } 
		.shp1 { fill: #595fab } 
	</style>
	<g id="Layer">
		<path id="Layer" fill-rule="evenodd" class="shp0" d="M17.24 7.2C17.28 7.46 17.3 7.74 17.3 8C17.3 9.74 16.6 11.3 15.48 12.44C14.94 12.98 14.32 13.42 13.62 13.74C12.82 14.1 11.94 14.3 11 14.3C9.98 14.3 9.02 14.06 8.16 13.62C7.48 13.28 6.88 12.82 6.36 12.26C5.32 11.14 4.7 9.64 4.7 8C4.7 7.7 4.72 7.4 4.76 7.12C4.88 6.34 5.12 5.62 5.48 4.96C6.38 3.34 7.98 2.14 9.86 1.8C10.24 1.74 10.6 1.7 11 1.7C11.4 1.7 11.78 1.74 12.14 1.8C14.06 2.16 15.68 3.38 16.56 5.04C16.9 5.7 17.14 6.42 17.24 7.2ZM12.14 3.42L12.14 5.16C12.14 5.48 12.28 5.76 12.54 5.94C12.8 6.12 13.1 6.18 13.4 6.08L15.02 5.56C14.38 4.52 13.34 3.74 12.14 3.42ZM9.84 6.84C9.56 6.76 9.28 6.9 9.2 7.16C9.12 7.44 9.26 7.72 9.52 7.8C9.8 7.88 10.08 7.74 10.16 7.48C10.24 7.22 10.1 6.94 9.84 6.84ZM9.82 9.24C10.04 9.4 10.36 9.34 10.52 9.12C10.68 8.9 10.62 8.58 10.4 8.42C10.18 8.26 9.86 8.32 9.7 8.54C9.52 8.76 9.58 9.08 9.82 9.24ZM11 6.96C11.28 6.96 11.5 6.74 11.5 6.46C11.5 6.18 11.28 5.96 11 5.96C10.72 5.96 10.5 6.18 10.5 6.46C10.5 6.74 10.72 6.96 11 6.96ZM11.24 9.22C11.4 9.46 11.72 9.5 11.94 9.34C12.18 9.18 12.22 8.86 12.06 8.64C11.9 8.4 11.58 8.36 11.36 8.52C11.14 8.68 11.1 8.98 11.24 9.22ZM12.38 7.92C12.64 7.82 12.78 7.54 12.7 7.28C12.6 7.02 12.32 6.88 12.06 6.96C11.8 7.06 11.66 7.34 11.74 7.6C11.84 7.86 12.12 8.02 12.38 7.92ZM7.02 5.48L8.6 6C8.9 6.1 9.2 6.04 9.46 5.86C9.72 5.68 9.86 5.38 9.86 5.08L9.86 3.44C8.68 3.74 7.68 4.48 7.02 5.48ZM6.3 8C6.3 9.1 6.68 10.12 7.32 10.92L8.3 9.58C8.48 9.32 8.54 9.02 8.44 8.72C8.34 8.42 8.12 8.2 7.82 8.1L6.32 7.62C6.3 7.74 6.3 7.88 6.3 8ZM12.66 12.38L11.64 10.98C11.46 10.72 11.16 10.58 10.86 10.58C10.54 10.58 10.26 10.72 10.08 10.98L9.12 12.3C9.7 12.56 10.34 12.7 11 12.7C11.58 12.7 12.14 12.6 12.66 12.38ZM14.52 11.12C15.26 10.28 15.7 9.2 15.7 7.98L15.7 7.7L14 8.26C13.7 8.36 13.48 8.58 13.38 8.88C13.28 9.18 13.34 9.48 13.52 9.74L14.52 11.12Z" />
		<path id="Layer" fill-rule="evenodd" class="shp1" d="M19 8C19 12.42 15.42 16 11 16C6.58 16 3 12.42 3 8C3 3.58 6.58 0 11 0C15.42 0 19 3.58 19 8ZM16.5 8C16.5 4.96 14.04 2.5 11 2.5C7.96 2.5 5.5 4.96 5.5 8C5.5 11.04 7.96 13.5 11 13.5C14.04 13.5 16.5 11.04 16.5 8Z" />
	</g>
</svg>