<svg xmlns="http://www.w3.org/2000/svg" viewBox="0 0 22 16" width="22" height="16">
	<style>
		tspan { white-space:pre }
		.shp0 { fill: #adbcbf } 
		.shp1 { fill: #77868b } 
	</style>
	<g id="Layer">
		<path id="Layer" fill-rule="evenodd" class="shp0" d="M15.99 7.36C16.02 7.57 16.04 7.79 16.04 8C16.04 9.39 15.48 10.64 14.58 11.55C14.15 11.98 13.66 12.34 13.1 12.59C12.46 12.88 11.75 13.04 11 13.04C10.18 13.04 9.42 12.85 8.73 12.5C8.18 12.22 7.7 11.86 7.29 11.41C6.46 10.51 5.96 9.31 5.96 8C5.96 7.76 5.98 7.52 6.01 7.3C6.1 6.67 6.3 6.1 6.58 5.57C7.3 4.27 8.58 3.31 10.09 3.04C10.39 2.99 10.68 2.96 11 2.96C11.32 2.96 11.62 2.99 11.91 3.04C13.45 3.33 14.74 4.3 15.45 5.63C15.72 6.16 15.91 6.74 15.99 7.36ZM11.91 4.34L11.91 5.73C11.91 5.98 12.02 6.21 12.23 6.35C12.44 6.5 12.68 6.54 12.92 6.46L14.22 6.05C13.7 5.22 12.87 4.59 11.91 4.34ZM10.07 7.07C9.85 7.01 9.62 7.12 9.56 7.33C9.5 7.55 9.61 7.78 9.82 7.84C10.04 7.9 10.26 7.79 10.33 7.58C10.39 7.38 10.28 7.15 10.07 7.07ZM10.06 8.99C10.23 9.12 10.49 9.07 10.62 8.9C10.74 8.72 10.7 8.46 10.52 8.34C10.34 8.21 10.09 8.26 9.96 8.43C9.82 8.61 9.86 8.86 10.06 8.99ZM11 7.17C11.22 7.17 11.4 6.99 11.4 6.77C11.4 6.54 11.22 6.37 11 6.37C10.78 6.37 10.6 6.54 10.6 6.77C10.6 6.99 10.78 7.17 11 7.17ZM11.19 8.98C11.32 9.17 11.58 9.2 11.75 9.07C11.94 8.94 11.98 8.69 11.85 8.51C11.72 8.32 11.46 8.29 11.29 8.42C11.11 8.54 11.08 8.78 11.19 8.98ZM12.1 7.94C12.31 7.86 12.42 7.63 12.36 7.42C12.28 7.22 12.06 7.1 11.85 7.17C11.64 7.25 11.53 7.47 11.59 7.68C11.67 7.89 11.9 8.02 12.1 7.94ZM7.82 5.98L9.08 6.4C9.32 6.48 9.56 6.43 9.77 6.29C9.98 6.14 10.09 5.9 10.09 5.66L10.09 4.35C9.14 4.59 8.34 5.18 7.82 5.98ZM7.24 8C7.24 8.88 7.54 9.7 8.06 10.34L8.84 9.26C8.98 9.06 9.03 8.82 8.95 8.58C8.87 8.34 8.7 8.16 8.46 8.08L7.26 7.7C7.24 7.79 7.24 7.9 7.24 8ZM12.33 11.5L11.51 10.38C11.37 10.18 11.13 10.06 10.89 10.06C10.63 10.06 10.41 10.18 10.26 10.38L9.5 11.44C9.96 11.65 10.47 11.76 11 11.76C11.46 11.76 11.91 11.68 12.33 11.5ZM13.82 10.5C14.41 9.82 14.76 8.96 14.76 7.98L14.76 7.76L13.4 8.21C13.16 8.29 12.98 8.46 12.9 8.7C12.82 8.94 12.87 9.18 13.02 9.39L13.82 10.5Z" />
		<path id="Layer" fill-rule="evenodd" class="shp1" d="M17.4 8C17.4 11.54 14.54 14.4 11 14.4C7.46 14.4 4.6 11.54 4.6 8C4.6 4.46 7.46 1.6 11 1.6C14.54 1.6 17.4 4.46 17.4 8ZM15.4 8C15.4 5.57 13.43 3.6 11 3.6C8.57 3.6 6.6 5.57 6.6 8C6.6 10.43 8.57 12.4 11 12.4C13.43 12.4 15.4 10.43 15.4 8Z" />
	</g>
</svg>