<svg xmlns="http://www.w3.org/2000/svg" viewBox="0 0 22 16" width="22" height="16">
	<style>
		tspan { white-space:pre }
		.shp0 { fill: #adbcbf } 
		.shp1 { fill: #77868b } 
	</style>
	<g id="Layer">
		<path id="Layer" fill-rule="evenodd" class="shp0" d="M18.92 6.96C18.97 7.29 19 7.65 19 7.98C19 10.2 18.11 12.18 16.68 13.63C16 14.32 15.21 14.88 14.32 15.29C13.3 15.75 12.18 16 10.98 16C9.68 16 8.46 15.69 7.36 15.13C6.5 14.7 5.74 14.12 5.07 13.4C3.75 11.98 2.96 10.07 2.96 7.98C2.96 7.6 2.99 7.22 3.04 6.86C3.19 5.87 3.49 4.95 3.95 4.11C5.1 2.05 7.14 0.52 9.53 0.09C10.01 0.01 10.47 -0.04 10.98 -0.04C11.49 -0.04 11.97 0.01 12.43 0.09C14.88 0.55 16.94 2.1 18.06 4.21C18.49 5.05 18.8 5.97 18.92 6.96ZM12.43 2.15L12.43 4.36C12.43 4.77 12.61 5.13 12.94 5.36C13.27 5.59 13.65 5.66 14.04 5.54L16.1 4.87C15.28 3.55 13.96 2.56 12.43 2.15ZM9.5 6.5C9.15 6.4 8.79 6.58 8.69 6.91C8.59 7.27 8.76 7.62 9.1 7.73C9.45 7.83 9.81 7.65 9.91 7.32C10.01 6.99 9.83 6.63 9.5 6.5ZM9.48 9.56C9.76 9.76 10.17 9.69 10.37 9.41C10.57 9.13 10.5 8.72 10.22 8.51C9.94 8.31 9.53 8.39 9.33 8.67C9.1 8.95 9.17 9.35 9.48 9.56ZM10.98 6.66C11.34 6.66 11.62 6.38 11.62 6.02C11.62 5.66 11.34 5.38 10.98 5.38C10.62 5.38 10.34 5.66 10.34 6.02C10.34 6.38 10.62 6.66 10.98 6.66ZM11.29 9.53C11.49 9.84 11.9 9.89 12.18 9.69C12.48 9.48 12.53 9.07 12.33 8.79C12.13 8.49 11.72 8.44 11.44 8.64C11.16 8.85 11.11 9.23 11.29 9.53ZM12.74 7.88C13.07 7.75 13.25 7.39 13.14 7.06C13.02 6.73 12.66 6.55 12.33 6.66C12 6.78 11.82 7.14 11.92 7.47C12.05 7.8 12.41 8.01 12.74 7.88ZM5.91 4.77L7.92 5.43C8.31 5.56 8.69 5.48 9.02 5.26C9.35 5.03 9.53 4.64 9.53 4.26L9.53 2.18C8.03 2.56 6.75 3.5 5.91 4.77ZM5 7.98C5 9.38 5.48 10.68 6.3 11.7L7.54 9.99C7.77 9.66 7.85 9.28 7.72 8.9C7.59 8.51 7.31 8.23 6.93 8.11L5.02 7.5C5 7.65 5 7.83 5 7.98ZM13.09 13.56L11.79 11.77C11.57 11.44 11.18 11.26 10.8 11.26C10.39 11.26 10.04 11.44 9.81 11.77L8.59 13.45C9.33 13.78 10.14 13.96 10.98 13.96C11.72 13.96 12.43 13.84 13.09 13.56ZM15.46 11.95C16.4 10.88 16.96 9.51 16.96 7.95L16.96 7.6L14.8 8.31C14.42 8.44 14.14 8.72 14.01 9.1C13.88 9.48 13.96 9.86 14.19 10.2L15.46 11.95Z" />
		<path id="Layer" fill-rule="evenodd" class="shp1" d="M17.4 8C17.4 11.54 14.54 14.4 11 14.4C7.46 14.4 4.6 11.54 4.6 8C4.6 4.46 7.46 1.6 11 1.6C14.54 1.6 17.4 4.46 17.4 8ZM15.4 8C15.4 5.57 13.43 3.6 11 3.6C8.57 3.6 6.6 5.57 6.6 8C6.6 10.43 8.57 12.4 11 12.4C13.43 12.4 15.4 10.43 15.4 8Z" />
	</g>
</svg>