<svg xmlns="http://www.w3.org/2000/svg" viewBox="0 0 26 19" width="26" height="19">
	<style>
		tspan { white-space:pre }
		.shp0 { fill: #adbcbf } 
		.shp1 { fill: #77868b } 
	</style>
	<g id="Layer">
		<path id="Layer" fill-rule="evenodd" class="shp0" d="M22.36 8.27C22.42 8.66 22.45 9.08 22.45 9.48C22.45 12.11 21.4 14.46 19.72 16.19C18.9 17 17.97 17.67 16.92 18.15C15.71 18.7 14.39 19 12.98 19C11.44 19 10 18.64 8.7 17.97C7.68 17.46 6.78 16.76 6 15.92C4.43 14.22 3.5 11.96 3.5 9.48C3.5 9.02 3.53 8.57 3.59 8.15C3.77 6.97 4.13 5.88 4.67 4.88C6.03 2.43 8.43 0.62 11.26 0.1C11.83 0.01 12.37 -0.05 12.98 -0.05C13.58 -0.05 14.15 0.01 14.69 0.1C17.58 0.65 20.02 2.49 21.34 5C21.85 6 22.21 7.09 22.36 8.27ZM14.69 2.55L14.69 5.18C14.69 5.67 14.9 6.09 15.29 6.36C15.68 6.63 16.14 6.72 16.59 6.57L19.02 5.79C18.06 4.22 16.5 3.04 14.69 2.55ZM11.23 7.72C10.81 7.6 10.39 7.81 10.27 8.21C10.15 8.63 10.36 9.05 10.75 9.17C11.17 9.29 11.59 9.08 11.71 8.69C11.83 8.3 11.62 7.87 11.23 7.72ZM11.2 11.35C11.53 11.59 12.01 11.5 12.25 11.17C12.49 10.84 12.4 10.35 12.07 10.11C11.74 9.87 11.26 9.96 11.02 10.29C10.75 10.63 10.84 11.11 11.2 11.35ZM12.98 7.9C13.4 7.9 13.73 7.57 13.73 7.15C13.73 6.72 13.4 6.39 12.98 6.39C12.56 6.39 12.22 6.72 12.22 7.15C12.22 7.57 12.56 7.9 12.98 7.9ZM13.34 11.32C13.58 11.68 14.06 11.74 14.39 11.5C14.75 11.26 14.81 10.78 14.57 10.44C14.33 10.08 13.85 10.02 13.52 10.26C13.19 10.5 13.13 10.96 13.34 11.32ZM15.05 9.36C15.44 9.2 15.65 8.78 15.53 8.39C15.38 7.99 14.96 7.78 14.57 7.9C14.18 8.06 13.97 8.48 14.09 8.87C14.24 9.26 14.66 9.51 15.05 9.36ZM6.99 5.67L9.37 6.45C9.82 6.6 10.27 6.51 10.66 6.24C11.05 5.97 11.26 5.52 11.26 5.06L11.26 2.58C9.49 3.04 7.98 4.16 6.99 5.67ZM5.91 9.48C5.91 11.14 6.48 12.68 7.44 13.89L8.91 11.86C9.19 11.47 9.28 11.02 9.12 10.56C8.97 10.11 8.64 9.78 8.19 9.63L5.94 8.9C5.91 9.08 5.91 9.29 5.91 9.48ZM15.47 16.1L13.94 13.98C13.67 13.59 13.22 13.38 12.77 13.38C12.28 13.38 11.86 13.59 11.59 13.98L10.15 15.98C11.02 16.37 11.98 16.58 12.98 16.58C13.85 16.58 14.69 16.43 15.47 16.1ZM18.27 14.19C19.39 12.92 20.05 11.29 20.05 9.45L20.05 9.02L17.49 9.87C17.04 10.02 16.71 10.35 16.56 10.81C16.41 11.26 16.5 11.71 16.77 12.11L18.27 14.19Z" />
		<path id="Layer" fill-rule="evenodd" class="shp1" d="M20.56 9.5C20.56 13.7 17.18 17.1 13 17.1C8.82 17.1 5.44 13.7 5.44 9.5C5.44 5.3 8.82 1.9 13 1.9C17.18 1.9 20.56 5.3 20.56 9.5ZM18.2 9.5C18.2 6.61 15.87 4.28 13 4.28C10.13 4.28 7.8 6.61 7.8 9.5C7.8 12.39 10.13 14.72 13 14.72C15.87 14.72 18.2 12.39 18.2 9.5Z" />
	</g>
</svg>