<svg xmlns="http://www.w3.org/2000/svg" width="20.818" height="16.656" viewBox="0 0 20.818 16.656">
  <path id="Icon_awesome-user-edit" data-name="Icon awesome-user-edit" d="M7.287,8.328A4.164,4.164,0,1,0,3.123,4.164,4.163,4.163,0,0,0,7.287,8.328ZM10.2,9.369H9.658a5.663,5.663,0,0,1-4.743,0H4.372A4.373,4.373,0,0,0,0,13.741v1.353a1.562,1.562,0,0,0,1.561,1.561H10.5a1.562,1.562,0,0,1-.085-.693l.221-1.981.039-.361.257-.257,2.515-2.515a4.328,4.328,0,0,0-3.25-1.48ZM11.675,14.1l-.221,1.984a.518.518,0,0,0,.573.573l1.981-.221,4.486-4.486L16.161,9.613,11.675,14.1Zm8.916-5.348L19.358,7.514a.779.779,0,0,0-1.1,0l-1.23,1.23-.133.133,2.336,2.332,1.36-1.36a.783.783,0,0,0,0-1.1Z" fill="#595fab"/>
</svg>
