<?xml version="1.0" encoding="UTF-8"?>
<svg width="22px" height="16px" viewBox="0 0 22 16" version="1.1" xmlns="http://www.w3.org/2000/svg" xmlns:xlink="http://www.w3.org/1999/xlink">
    <!-- Generator: Sketch 53 (72520) - https://sketchapp.com -->
    <title>Group 6</title>
    <desc>Created with Sketch.</desc>
    <defs>
        <polygon id="path-1" points="0 0.939956803 20.7097043 0.939956803 20.7097043 16.1152904 0 16.1152904"></polygon>
    </defs>
    <g id="Symbols" stroke="none" stroke-width="1" fill="none" fill-rule="evenodd">
        <g id="icon/sub-nav/active/vehicle" transform="translate(-1.000000, -4.000000)">
            <g id="Group-6" transform="translate(1.800000, 3.600000)">
                <path d="M1.89826435,11.2691896 L2.63078609,11.2767026 C3.15294261,10.7094678 3.89861217,10.35072 4.72598609,10.3601113 C5.55242087,10.3685635 6.28963826,10.7423374 6.80052522,11.3217809 L13.1678296,11.3893983 L13.2579861,2.93816348 L1.98842087,2.81701565 L1.89826435,11.2691896 Z" id="Fill-1" fill="#D8DCEF"></path>
                <mask id="mask-2" fill="white">
                    <use xlink:href="#path-1"></use>
                </mask>
                <g id="Clip-4"></g>
                <path d="M15.0753913,8.59210435 L15.1007478,6.24521739 L17.4485739,6.26963478 L19.263913,8.63718261 L15.0753913,8.59210435 Z M15.9544174,14.2372174 C15.4378957,14.2315826 15.0199826,13.8042783 15.0256174,13.2877565 C15.0312522,12.7712348 15.4576174,12.3533217 15.9741391,12.3589565 C16.4906609,12.3645913 16.9085739,12.7918957 16.9029391,13.3074783 C16.8973043,13.824 16.4709391,14.2428522 15.9544174,14.2372174 L15.9544174,14.2372174 Z M13.1670783,11.3897739 L6.79977391,11.3212174 C6.28982609,10.742713 5.56106087,10.3698783 4.72523478,10.360487 C3.8894087,10.3510957 3.15313043,10.7098435 2.63097391,11.2761391 L1.89845217,11.2695652 L1.9886087,2.8173913 L13.2572348,2.9376 L13.1670783,11.3897739 Z M4.6857913,14.1170087 C4.16926957,14.1113739 3.75041739,13.6840696 3.75605217,13.1675478 C3.76168696,12.6510261 4.1889913,12.233113 4.70551304,12.2387478 C5.22203478,12.2443826 5.63994783,12.6707478 5.63431304,13.1882087 C5.62867826,13.7037913 5.20137391,14.1226435 4.6857913,14.1170087 L4.6857913,14.1170087 Z M15.1157739,4.83652174 L15.1552174,1.08 L2.00833043,0.940069565 C0.975286957,0.9288 0.121617391,1.76368696 0.110347826,2.79766957 L-0.000469565217,13.1271652 L1.8777913,13.1478261 C1.86182609,14.7067826 3.10617391,15.9774261 4.66513043,15.9943304 C6.22408696,16.0112348 7.49566957,14.7659478 7.51257391,13.2079304 L13.1473565,13.2680348 C13.1304522,14.8269913 14.3748,16.0985739 15.9346957,16.1154783 C17.492713,16.1314435 18.7652348,14.8870957 18.7812,13.3281391 L20.6594609,13.3478609 L20.7101739,8.6522087 L17.9322261,4.86563478 L15.1157739,4.83652174 Z" id="Fill-3" fill="#595FAB" mask="url(#mask-2)"></path>
            </g>
        </g>
    </g>
</svg>