<?xml version="1.0" encoding="UTF-8"?>
<svg width="22px" height="16px" viewBox="0 0 22 16" version="1.1" xmlns="http://www.w3.org/2000/svg" xmlns:xlink="http://www.w3.org/1999/xlink">
    <!-- Generator: Sketch 53 (72520) - https://sketchapp.com -->
    <title>Group 6</title>
    <desc>Created with Sketch.</desc>
    <defs>
        <polygon id="path-1" points="0.000375652174 0.789883759 20.7097043 0.789883759 20.7097043 15.9652174 0.000375652174 15.9652174"></polygon>
    </defs>
    <g id="Symbols" stroke="none" stroke-width="1" fill="none" fill-rule="evenodd">
        <g id="icon/sub-nav/vehicle" transform="translate(-1.000000, -4.000000)">
            <g id="Group-6" transform="translate(1.800000, 3.600000)">
                <path d="M1.89817043,11.2691896 L2.63069217,11.2767026 C3.1528487,10.7094678 3.89945739,10.35072 4.72589217,10.3601113 C5.55232696,10.3685635 6.28954435,10.7423374 6.8004313,11.3217809 L13.1677357,11.3893983 L13.2578922,2.93816348 L1.98832696,2.81701565 L1.89817043,11.2691896 Z" id="Fill-1" fill="#EAEAEA"></path>
                <g id="Group-5" transform="translate(0.000000, 0.150073)">
                    <mask id="mask-2" fill="white">
                        <use xlink:href="#path-1"></use>
                    </mask>
                    <g id="Clip-4"></g>
                    <path d="M15.0752974,8.4420313 L15.1006539,6.09514435 L17.44848,6.11956174 L19.2638191,8.48710957 L15.0752974,8.4420313 Z M15.9543235,14.0871443 C15.4378017,14.0815096 15.0198887,13.6542052 15.0255235,13.1376835 C15.0311583,12.6211617 15.4575235,12.2032487 15.9749843,12.2088835 C16.490567,12.2145183 16.9094191,12.6418226 16.9037843,13.1574052 C16.8981496,13.673927 16.4708452,14.0927791 15.9543235,14.0871443 L15.9543235,14.0871443 Z M13.1669843,11.2397009 L6.79968,11.1711443 C6.28973217,10.59264 5.56096696,10.2198052 4.72514087,10.2104139 C3.88931478,10.2010226 3.15303652,10.5597704 2.63088,11.1260661 L1.89835826,11.1194922 L1.98851478,2.66731826 L13.2571409,2.78752696 L13.1669843,11.2397009 Z M4.68569739,13.9669357 C4.16917565,13.9613009 3.75032348,13.5339965 3.75595826,13.0174748 C3.76159304,12.500953 4.18889739,12.08304 4.70541913,12.0886748 C5.22194087,12.0943096 5.63985391,12.5206748 5.63421913,13.0381357 C5.62858435,13.5537183 5.20221913,13.9725704 4.68569739,13.9669357 L4.68569739,13.9669357 Z M15.11568,4.6864487 L15.1560626,0.929926957 L2.00823652,0.789996522 C0.975193043,0.778726957 0.121523478,1.61361391 0.110253913,2.64759652 L0.000375652174,12.9770922 L1.87769739,12.997753 C1.86173217,14.5567096 3.10608,15.827353 4.66503652,15.8442574 C6.22399304,15.8611617 7.49557565,14.6158748 7.51248,13.0578574 L13.1472626,13.1179617 C13.1303583,14.6769183 14.3747061,15.9485009 15.9346017,15.9654052 C17.4926191,15.9813704 18.7651409,14.7370226 18.7811061,13.1780661 L20.659367,13.1977878 L20.71008,8.50213565 L17.9330713,4.71556174 L15.11568,4.6864487 Z" id="Fill-3" fill="#939BA4" mask="url(#mask-2)"></path>
                </g>
            </g>
        </g>
    </g>
</svg>