<?xml version="1.0" encoding="UTF-8"?>
<svg width="18px" height="22px" viewBox="0 0 18 22" version="1.1" xmlns="http://www.w3.org/2000/svg" xmlns:xlink="http://www.w3.org/1999/xlink">
    <!-- Generator: Sketch 53 (72520) - https://sketchapp.com -->
    <title>Group 10</title>
    <desc>Created with Sketch.</desc>
    <defs>
        <polygon id="path-1" points="0 0 17.279568 0 17.279568 21.599568 0 21.599568"></polygon>
    </defs>
    <g id="Symbols" stroke="none" stroke-width="1" fill="none" fill-rule="evenodd">
        <g id="icon/sub-nav/credit" transform="translate(-3.000000, -1.000000)">
            <g id="Group-10" transform="translate(3.360000, 1.200000)">
                <polygon id="Fill-1" fill="#EAEAEA" points="1.268352 1.51092 1.268352 20.48868 15.958512 20.48868 16.402392 6.9822 11.028312 6.63768 10.585512 1.01844"></polygon>
                <g id="Group-5">
                    <mask id="mask-2" fill="white">
                        <use xlink:href="#path-1"></use>
                    </mask>
                    <g id="Clip-4"></g>
                    <path d="M15.119568,19.439568 L2.159568,19.439568 L2.159568,2.159568 L9.719568,2.159568 L9.719568,7.559568 L15.119568,7.559568 L15.119568,19.439568 Z M10.799568,-0.000432 L2.159568,-0.000432 C0.971568,-0.000432 -0.000432,0.971568 -0.000432,2.159568 L-0.000432,19.439568 C-0.000432,20.628648 0.961848,21.599568 2.148768,21.599568 L15.119568,21.599568 C16.308648,21.599568 17.279568,20.628648 17.279568,19.439568 L17.279568,6.479568 L10.799568,-0.000432 Z" id="Fill-3" fill="#939BA4" mask="url(#mask-2)"></path>
                </g>
                <path d="M9.329364,16.24806 C7.172604,16.24806 5.778324,14.8257 5.778324,12.62358 C5.778324,10.41822 7.311924,8.87814 9.505404,8.87814 C10.465524,8.87814 11.013084,9.10926 11.203164,9.20754 L11.543364,9.38574 L11.082204,10.93662 L10.589724,10.69578 C10.427724,10.61694 10.074564,10.4841 9.533484,10.4841 C8.279604,10.4841 7.560324,11.25306 7.560324,12.59442 C7.560324,13.89582 8.266644,14.64318 9.496764,14.64318 C9.903924,14.64318 10.341324,14.56002 10.611324,14.42934 L11.118924,14.18202 L11.523924,15.7329 L11.186964,15.90138 C10.852164,16.06878 10.189044,16.24806 9.329364,16.24806" id="Fill-6" fill="#939BA4"></path>
                <path d="M10.704636,14.624928 C10.406556,14.769648 9.943236,14.859288 9.497196,14.859288 C8.149356,14.859288 7.345836,14.012568 7.345836,12.594528 C7.345836,11.137608 8.162316,10.268208 9.533916,10.268208 C10.117116,10.268208 10.504836,10.415088 10.684116,10.502568 L10.948716,10.631088 L11.284596,9.496008 L11.104236,9.399888 C10.927116,9.309168 10.419516,9.094248 9.505836,9.094248 C7.439796,9.094248 5.994756,10.546848 5.994756,12.622608 C5.994756,14.694048 7.304796,16.033248 9.330876,16.033248 C10.149516,16.033248 10.775916,15.864768 11.090196,15.709248 L11.270556,15.619608 L10.976796,14.493168 L10.704636,14.624928 Z" id="Fill-8" fill="#939BA4"></path>
            </g>
        </g>
    </g>
</svg>