<?xml version="1.0" encoding="UTF-8"?>
<svg width="18px" height="22px" viewBox="0 0 18 22" version="1.1" xmlns="http://www.w3.org/2000/svg" xmlns:xlink="http://www.w3.org/1999/xlink">
    <!-- Generator: Sketch 53 (72520) - https://sketchapp.com -->
    <title>Group 10</title>
    <desc>Created with Sketch.</desc>
    <defs>
        <polygon id="path-1" points="0.000216 0 17.28 0 17.28 21.599892 0.000216 21.599892"></polygon>
    </defs>
    <g id="Symbols" stroke="none" stroke-width="1" fill="none" fill-rule="evenodd">
        <g id="icon/sub-nav/active/credit" transform="translate(-3.000000, -1.000000)">
            <g id="Group-10" transform="translate(3.360000, 1.200000)">
                <polygon id="Fill-1" fill="#D8DCEF" points="1.269 1.511352 1.269 20.489112 15.95916 20.489112 16.40196 6.982632 11.02896 6.637032 10.58508 1.017792"></polygon>
                <g id="Group-5">
                    <mask id="mask-2" fill="white">
                        <use xlink:href="#path-1"></use>
                    </mask>
                    <g id="Clip-4"></g>
                    <path d="M15.120216,19.439892 L2.160216,19.439892 L2.160216,2.159892 L9.720216,2.159892 L9.720216,7.559892 L15.120216,7.559892 L15.120216,19.439892 Z M10.800216,-0.000108 L2.160216,-0.000108 C0.971136,-0.000108 0.000216,0.971892 0.000216,2.159892 L0.000216,19.439892 C0.000216,20.627892 0.961416,21.599892 2.149416,21.599892 L15.120216,21.599892 C16.308216,21.599892 17.280216,20.627892 17.280216,19.439892 L17.280216,6.479892 L10.800216,-0.000108 Z" id="Fill-3" fill="#595FAB" mask="url(#mask-2)"></path>
                </g>
                <path d="M9.330012,16.248492 C7.172172,16.248492 5.778972,14.826132 5.778972,12.624012 C5.778972,10.418652 7.311492,8.878572 9.506052,8.878572 C10.466172,8.878572 11.013732,9.109692 11.202732,9.207972 L11.542932,9.386172 L11.082852,10.937052 L10.589292,10.696212 C10.428372,10.617372 10.075212,10.484532 9.533052,10.484532 C8.279172,10.484532 7.560972,11.253492 7.560972,12.594852 C7.560972,13.896252 8.267292,14.643612 9.496332,14.643612 C9.904572,14.643612 10.341972,14.560452 10.611972,14.429772 L11.118492,14.182452 L11.523492,15.733332 L11.186532,15.901812 C10.852812,16.069212 10.188612,16.248492 9.330012,16.248492" id="Fill-6" fill="#595FAB"></path>
                <path d="M10.704204,14.625252 C10.406124,14.768892 9.943884,14.859612 9.496764,14.859612 C8.148924,14.859612 7.345404,14.012892 7.345404,12.594852 C7.345404,11.137932 8.161884,10.268532 9.533484,10.268532 C10.117764,10.268532 10.505484,10.415412 10.683684,10.502892 L10.948284,10.631412 L11.285244,9.496332 L11.103804,9.400212 C10.927764,9.308412 10.420164,9.094572 9.506484,9.094572 C7.439364,9.094572 5.995404,10.546092 5.995404,12.622932 C5.995404,14.693292 7.304364,16.032492 9.330444,16.032492 C10.149084,16.032492 10.776564,15.865092 11.089764,15.708492 L11.270124,15.618852 L10.976364,14.492412 L10.704204,14.625252 Z" id="Fill-8" fill="#595FAB"></path>
            </g>
        </g>
    </g>
</svg>