<?xml version="1.0" encoding="utf-8"?>
<!-- Generator: Adobe Illustrator 25.2.1, SVG Export Plug-In . SVG Version: 6.00 Build 0)  -->
<svg version="1.1" id="Layer_1" xmlns="http://www.w3.org/2000/svg" xmlns:xlink="http://www.w3.org/1999/xlink" x="0px" y="0px"
	 viewBox="0 0 24 24" style="enable-background:new 0 0 24 24;" xml:space="preserve">
<style type="text/css">
	.st0{fill:#595FAB;}
</style>
<path class="st0" d="M20.5,7H19V2c0-0.3-0.2-0.6-0.4-0.8C18.3,1,18,1,17.7,1.1l-15,6c-0.2,0-0.3,0.1-0.4,0.2C1.5,7.8,1,8.6,1,9.5
	v11.1C1,21.9,2.1,23,3.5,23h17.1c1.4,0,2.5-1.1,2.5-2.5v-11C23,8.1,21.9,7,20.5,7z M17,7H8.2L17,3.5V7z M21,17h-4c-1.1,0-2-0.9-2-2
	s0.9-2,2-2h4V17z M17,11c-2.2,0-4,1.8-4,4s1.8,4,4,4h4v1.5c0,0.3-0.2,0.5-0.5,0.5h-17C3.2,21,3,20.8,3,20.5v-11C3,9.2,3.2,9,3.5,9
	l0,0h17.1C20.8,9,21,9.2,21,9.5V11H17z"/>
<circle class="st0" cx="18" cy="15" r="1"/>
</svg>
