<?xml version="1.0" encoding="utf-8"?>
<!-- Generator: Adobe Illustrator 25.2.1, SVG Export Plug-In . SVG Version: 6.00 Build 0)  -->
<svg version="1.1" id="Layer_1" xmlns="http://www.w3.org/2000/svg" xmlns:xlink="http://www.w3.org/1999/xlink" x="0px" y="0px"
	 viewBox="0 0 32 32" style="enable-background:new 0 0 32 32;" xml:space="preserve">
<style type="text/css">
	.st0{fill:#595FAB;}
</style>
<path class="st0" d="M31,8h-3V3c0-1.7-1.3-3-3-3s-3,1.3-3,3v5H3c-1.7,0-3,1.3-3,3v18c0,1.7,1.3,3,3,3l0,0h20c0.6,0,1-0.4,1-1v-3h7
	c0.6,0,1-0.4,1-1V9C32,8.4,31.6,8,31,8z M24,6h2v8.6l-1,1l-1-1V6z M25,2c0.6,0,1,0.4,1,1v1h-2V3C24,2.4,24.4,2,25,2z M22,30H3
	c-0.6,0-1-0.4-1-1s0.4-1,1-1h19V30z M30,26H3c-0.3,0-0.7,0.1-1,0.2V11c0-0.6,0.4-1,1-1h19v5c0,0.3,0.1,0.5,0.3,0.7l2,2
	c0.4,0.4,1,0.4,1.4,0l0,0l2-2c0.2-0.2,0.3-0.4,0.3-0.7v-5h2V26z"/>
<path class="st0" d="M5,14h8c0.6,0,1-0.4,1-1s-0.4-1-1-1H5c-0.6,0-1,0.4-1,1S4.4,14,5,14z"/>
<path class="st0" d="M18,17c0-0.6-0.4-1-1-1H5c-0.6,0-1,0.4-1,1s0.4,1,1,1h12C17.6,18,18,17.6,18,17z"/>
<path class="st0" d="M27,22h-1.5l-1.7-2.5c-0.3-0.5-0.9-0.6-1.4-0.3c0,0,0,0,0,0c-0.1,0.1-0.2,0.2-0.3,0.3L20.5,22H18
	c-0.6,0-1,0.4-1,1s0.4,1,1,1h3c0.3,0,0.6-0.2,0.8-0.5l1.2-1.8l1.2,1.8c0.2,0.3,0.5,0.4,0.8,0.5h2c0.6,0,1-0.4,1-1S27.6,22,27,22z"/>
</svg>
