<?xml version="1.0" encoding="utf-8"?>
<!-- Generator: Adobe Illustrator 25.2.1, SVG Export Plug-In . SVG Version: 6.00 Build 0)  -->
<svg version="1.1" id="Layer_1" xmlns="http://www.w3.org/2000/svg" xmlns:xlink="http://www.w3.org/1999/xlink" x="0px" y="0px"
	 viewBox="0 0 22.4 13.7" style="enable-background:new 0 0 22.4 13.7;" xml:space="preserve">
<style type="text/css">
	.st0{fill:#595FAB;}
</style>
<path class="st0" d="M18,13.7c-0.8,0-1.5,0-2.2,0c-0.5,0-1,0-1.5,0c-2,0-4.1,0-6.1,0c-0.1,0-0.2,0-0.3,0c-0.3-0.1-0.5-0.1-0.8,0
	c-0.1,0-0.2,0-0.3,0c-1.5,0-3,0-4.5,0c-1.1,0.1-2-0.7-2.2-1.7c-0.3-1.3,0.2-2.6,1.1-3.4c0.4-0.3,0.9-0.5,1.4-0.5
	c0.2,0,0.3,0.1,0.5,0.2c0.8,0.8,2,0.8,2.8,0c0.1-0.1,0.2-0.2,0.3-0.1c0.1,0,0.3-0.1,0.5-0.3c0.5-0.7,1.3-1.1,2.2-1.1
	c0.2,0,0.5,0.1,0.6,0.2c0.5,0.5,1.2,0.7,1.9,0.7c0.6,0,1.2-0.2,1.6-0.6c0.4-0.3,0.9-0.4,1.4-0.2C15,7,15.6,7.4,15.9,8
	c0,0.1,0.2,0.2,0.3,0.2c0.2,0,0.3,0.1,0.4,0.2c0.5,0.4,1.2,0.6,1.8,0.5c0.3-0.1,0.5-0.2,0.8-0.4C19.5,8.1,20,8,20.4,8.2
	c0.6,0.2,1.2,0.6,1.5,1.2c0.5,0.9,0.7,2,0.3,2.9c-0.3,0.8-1.1,1.4-1.9,1.4L18,13.7z M11.2,12.9c0.7,0,1.4,0,2.1,0
	c0.2,0,0.2,0,0.2-0.2c0-0.6,0-1.1,0-1.7v-0.2c0-0.2,0.2-0.4,0.4-0.4c0,0,0,0,0,0c0.2,0,0.4,0.2,0.4,0.4c0,0,0,0,0,0v1.9
	c0,0.1,0,0.2,0.2,0.1c0.6-0.1,1.1-0.6,1.3-1.2c0.4-1.3,0-2.7-0.9-3.6c-0.3-0.3-0.6-0.5-1-0.5c-0.2,0-0.4,0-0.6,0.1
	c-1.2,1-3,1.1-4.3,0.1c-0.3-0.2-0.7-0.3-1-0.1C7.8,7.7,7.6,7.9,7.4,8.1C6.5,9,6.1,10.4,6.5,11.6c0.1,0.6,0.6,1.1,1.3,1.2
	c0.2,0,0.2,0,0.2-0.2c0-0.6,0-1.2,0-1.9c0-0.2,0.1-0.4,0.4-0.4c0,0,0.1,0,0.1,0c0.2,0.1,0.3,0.3,0.3,0.5c0,0.6,0,1.2,0,1.9
	c0,0.1,0,0.2,0.2,0.2C9.8,12.9,10.5,12.9,11.2,12.9z M5.8,9.3c0,0-0.1,0-0.1,0C4.7,9.8,3.6,9.7,2.8,9.1C2.6,8.9,2.3,8.9,2,9
	C1.9,9.1,1.7,9.2,1.6,9.3C0.9,10,0.6,11,0.9,12c0.1,0.4,0.4,0.7,0.8,0.8c0.2,0,0.2,0.1,0.2-0.1c0-0.4,0-0.8,0-1.2c0-0.1,0-0.1,0-0.2
	c0-0.2,0.2-0.4,0.4-0.4c0.2,0,0.4,0.2,0.4,0.4l0,0c0,0.5,0,0.9,0,1.4c0,0.1,0,0.2,0.2,0.2c0.7,0,1.4,0,2.1,0h1.4
	C5.6,11.9,5.4,10.5,5.8,9.3z M16.1,12.9h3.5c0.1,0,0.1-0.1,0.1-0.2v-1.3c0-0.2,0.1-0.4,0.4-0.5c0,0,0,0,0,0c0.2,0,0.4,0.2,0.4,0.5
	s0,0.9,0,1.3c0,0.2,0,0.2,0.2,0.1c0.4-0.1,0.7-0.5,0.8-0.9c0.2-0.9,0-1.8-0.5-2.5C20.8,9.2,20.5,9,20.1,9c-0.1,0-0.3,0-0.4,0.1
	c-0.6,0.5-1.5,0.7-2.3,0.6c-0.3-0.1-0.6-0.2-0.9-0.3C17,10.5,16.9,11.9,16.1,12.9z"/>
<path class="st0" d="M11.2,6.2c-1.7,0-3.1-1.4-3.1-3.1S9.5,0,11.3,0c1.7,0,3.1,1.4,3.1,3.1C14.4,4.9,13,6.2,11.2,6.2
	C11.2,6.2,11.2,6.2,11.2,6.2z M11.2,5.4c1.3,0,2.3-1,2.3-2.3s-1-2.3-2.3-2.3c-1.3,0-2.3,1-2.3,2.3c0,0,0,0,0,0
	C8.9,4.4,10,5.4,11.2,5.4z"/>
<path class="st0" d="M6.9,5.4c0,1.4-1.1,2.5-2.5,2.5C3,7.9,1.9,6.8,1.9,5.4c0-1.4,1.1-2.5,2.5-2.5C5.8,2.9,7,4,6.9,5.4
	C7,5.4,7,5.4,6.9,5.4z M6.1,5.4c0-0.9-0.8-1.7-1.7-1.7c-0.9,0-1.7,0.8-1.7,1.7c0,0.9,0.8,1.7,1.7,1.7h0C5.4,7.1,6.1,6.4,6.1,5.4
	C6.1,5.4,6.1,5.4,6.1,5.4L6.1,5.4z"/>
<path class="st0" d="M18,7.9c-1.4,0-2.5-1.1-2.5-2.5s1.1-2.5,2.5-2.5c1.4,0,2.5,1.1,2.5,2.5c0,0,0,0,0,0C20.5,6.8,19.4,8,18,7.9z
	 M18,7.1c0.9,0,1.7-0.8,1.7-1.7S18.9,3.7,18,3.7c-0.9,0-1.7,0.8-1.7,1.7C16.3,6.4,17.1,7.1,18,7.1L18,7.1z"/>
</svg>
