<svg xmlns="http://www.w3.org/2000/svg" width="26.575" height="26.575" viewBox="0 0 26.575 26.575">
  <path id="Icon_open-dashboard" data-name="Icon open-dashboard" d="M13.287,0A13.287,13.287,0,1,0,26.575,13.287,13.326,13.326,0,0,0,13.287,0Zm0,3.322a9.966,9.966,0,1,1-9.966,9.966A9.952,9.952,0,0,1,13.287,3.322Zm0,3.322A1.661,1.661,0,1,0,14.948,8.3,1.645,1.645,0,0,0,13.287,6.644ZM7.773,9.966a1.661,1.661,0,0,0-.631,2.79l3.023,3.023a3.373,3.373,0,0,0-.2.83,3.322,3.322,0,1,0,3.322-3.322,3.373,3.373,0,0,0-.83.2L9.434,10.464a1.661,1.661,0,0,0-1.462-.531,1.661,1.661,0,0,0-.2,0Zm10.5,0a1.661,1.661,0,1,0,1.661,1.661A1.645,1.645,0,0,0,18.27,9.966Z" fill="#817f98"/>
</svg>
