<svg xmlns="http://www.w3.org/2000/svg" width="28" height="28" viewBox="0 0 28 28">
  <path id="Icon_open-dashboard" data-name="Icon open-dashboard" d="M14,0A14,14,0,1,0,28,14,14.041,14.041,0,0,0,14,0Zm0,3.5A10.5,10.5,0,1,1,3.5,14,10.486,10.486,0,0,1,14,3.5ZM14,7a1.75,1.75,0,1,0,1.75,1.75A1.733,1.733,0,0,0,14,7ZM8.19,10.5a1.75,1.75,0,0,0-.665,2.94l3.185,3.185a3.554,3.554,0,0,0-.21.875A3.5,3.5,0,1,0,14,14a3.554,3.554,0,0,0-.875.21L9.94,11.025a1.75,1.75,0,0,0-1.54-.56,1.75,1.75,0,0,0-.21,0Zm11.06,0A1.75,1.75,0,1,0,21,12.25,1.733,1.733,0,0,0,19.25,10.5Z" fill="#595fab"/>
</svg>
