<?xml version="1.0" encoding="utf-8"?>
<!-- Generator: Adobe Illustrator 25.2.1, SVG Export Plug-In . SVG Version: 6.00 Build 0)  -->
<svg version="1.1" id="Layer_1" xmlns="http://www.w3.org/2000/svg" xmlns:xlink="http://www.w3.org/1999/xlink" x="0px" y="0px"
	 viewBox="0 0 17.4 22" style="enable-background:new 0 0 17.4 22;" xml:space="preserve">
<style type="text/css">
	.st0{fill:#F8F7FF;}
	.st1{fill:#595FAB;}
</style>
<g id="Layer_2_1_">
	<path class="st0" d="M16.1,21.4H1.5c-0.6,0-1-0.4-1-1V1c0-0.6,0.4-1,1-1h14.6c0.6,0,1,0.4,1,1v19.4C17.1,21,16.6,21.4,16.1,21.4z"
		/>
</g>
<g id="Layer_1_1_">
	<path class="st1" d="M1.1,22L1.1,22c-0.7-0.2-1.2-0.9-1.1-1.7C0,14.1,0,7.8,0,1.5C-0.1,0.8,0.4,0.1,1.2,0c0.1,0,0.2,0,0.3,0h2.1
		C3.8,0,4,0.1,4,0.3S3.8,0.6,3.6,0.7h-2C0.9,0.7,0.7,1,0.7,1.6v18.9c-0.1,0.4,0.2,0.8,0.7,0.9c0.1,0,0.1,0,0.2,0h14.3
		c0.4,0.1,0.8-0.2,0.9-0.7c0-0.1,0-0.2,0-0.2v-3.7c0-0.1,0-0.1,0-0.2s0.1-0.2,0.3-0.3c0.1,0,0.3,0.1,0.3,0.2s0,0.2,0,0.3v3.5
		c0.2,0.8-0.3,1.5-1.1,1.7C16.3,22,1.1,22,1.1,22z"/>
	<path class="st1" d="M8.7,8.8h5.4C14.7,8.8,15,9,15,9.6V16c0.1,0.4-0.2,0.8-0.7,0.9c-0.1,0-0.2,0-0.2,0H7.8c-0.1,0-0.2,0-0.2,0
		c-0.2,0-0.3-0.2-0.2-0.3l0,0c0-0.2,0.1-0.3,0.3-0.3H11c0.2,0,0.2,0,0.2-0.2c0-0.5,0-0.9,0-1.4c0-0.1,0-0.2-0.2-0.2H3.2
		C3,14.5,3,14.6,3,14.7c0,0.5,0,0.9,0,1.4c0,0.2,0.1,0.3,0.3,0.2h3c0.2,0,0.3,0.1,0.3,0.3l0,0c0,0.2-0.1,0.3-0.3,0.3
		c-0.1,0-0.2,0-0.2,0H3.3c-0.4,0-0.8-0.3-0.9-0.7c0-0.1,0-0.1,0-0.2V9.6C2.3,9.2,2.6,8.8,3.1,8.8c0.1,0,0.1,0,0.2,0H8.7z M7.1,13.9
		H11c0.1,0,0.2,0,0.2-0.2c0-0.6,0-1.1,0-1.7c0-0.1,0-0.2-0.2-0.2H3.2c-0.1,0-0.2,0-0.2,0.2c0,0.6,0,1.1,0,1.7c0,0.2,0,0.2,0.2,0.2
		H7.1z M7.1,11.2H11c0.2,0,0.2,0,0.2-0.2c0-0.4,0-0.7,0-1.1s0-0.5-0.5-0.5H3.3C3.1,9.4,3,9.5,3,9.7c0,0.4,0,0.9,0,1.3
		c0,0.2,0,0.2,0.2,0.2H7.1z M13.1,11.8H12c-0.1,0-0.2,0-0.2,0.2c0,0.6,0,1.2,0,1.7c0,0.1,0,0.2,0.1,0.2h2.2c0.1,0,0.1,0,0.1-0.1V12
		c0-0.1,0-0.1-0.1-0.1L13.1,11.8z M13.1,14.5H12c-0.1,0-0.1,0-0.1,0.1v1.5c0,0.1,0,0.1,0.1,0.1h2.1c0.1,0,0.2,0,0.2-0.2v-1.5
		c0-0.1,0-0.1-0.1-0.1L13.1,14.5z M13.1,11.2h1.1c0.1,0,0.1,0,0.1-0.1V9.6c0-0.1,0-0.2-0.2-0.2H12c-0.1,0-0.1,0-0.1,0.1
		c0,0.5,0,1,0,1.5c0,0.1,0,0.1,0.2,0.1L13.1,11.2L13.1,11.2z"/>
	<path class="st1" d="M17.4,8.3v7c0,0.2-0.1,0.4-0.3,0.3s-0.3-0.1-0.3-0.4c0-0.1,0-0.1,0-0.2V1.6c0-0.6-0.3-0.9-0.9-0.9h-11
		c-0.2,0-0.3-0.1-0.3-0.3l0,0C4.6,0.1,4.7,0,4.9,0h10.9c0.8-0.1,1.5,0.5,1.5,1.3c0,0.1,0,0.2,0,0.3v6.7H17.4z"/>
	<path class="st1" d="M11.3,18.6c0.3,0,0.5,0.1,0.7,0.4l0.3,0.4c0.1,0.2,0.2,0.2,0.4,0c0.1-0.1,0.2-0.2,0.2-0.3
		c0.2-0.4,0.7-0.5,1.1-0.3c0.1,0.1,0.2,0.2,0.3,0.3c0.1,0.1,0.1,0.2,0.2,0.3c0.1,0.1,0.2,0.2,0.3,0.2c0.2,0,0.3,0.2,0.3,0.3l0,0
		c0,0.2-0.2,0.3-0.4,0.3s-0.5-0.1-0.6-0.3c-0.1-0.1-0.1-0.2-0.2-0.3c-0.2-0.3-0.3-0.3-0.5,0l-0.2,0.2c-0.2,0.4-0.8,0.5-1.2,0.3
		c-0.1-0.1-0.2-0.2-0.3-0.3c-0.1-0.1-0.2-0.2-0.3-0.4c0-0.1-0.1-0.1-0.2-0.1c0,0-0.1,0-0.1,0.1c-0.1,0.1-0.2,0.2-0.3,0.4
		c-0.1,0.2-0.4,0.4-0.6,0.4c-0.2,0-0.4-0.1-0.4-0.2l0,0c0-0.2,0.1-0.3,0.2-0.4l0,0c0.1,0,0.2-0.1,0.2-0.2c0.1-0.1,0.2-0.2,0.3-0.4
		C10.7,18.8,11,18.6,11.3,18.6z"/>
	<path class="st1" d="M9.8,3c0,0.7-0.5,1.2-1.2,1.2S7.3,3.7,7.3,3s0.5-1.2,1.2-1.2S9.7,2.3,9.8,3z M9.1,3c0-0.3-0.3-0.6-0.6-0.6l0,0
		C8.2,2.4,7.9,2.7,8,3c0,0.3,0.3,0.6,0.6,0.6C8.9,3.6,9.1,3.3,9.1,3L9.1,3z"/>
	<path class="st1" d="M4.4,2.8V2.1c0-0.2,0.1-0.4,0.3-0.4C4.9,1.7,5,1.9,5,2.1l0,0c0,0.5,0,1.1,0,1.7C5,4,4.9,4.1,4.8,4.2
		c-0.2,0-0.3,0-0.4-0.2L3.8,3.1v0.7c0,0.2-0.1,0.4-0.3,0.4S3.2,4.1,3.2,3.8V2.1c0-0.2,0-0.3,0.2-0.4s0.3,0,0.4,0.2
		C4,2.2,4.2,2.5,4.4,2.8z"/>
	<path class="st1" d="M11.4,3c0-0.7,0.6-1.2,1.2-1.2c0.2,0,0.4,0,0.6,0.1c0.2,0.1,0.3,0.3,0.2,0.5S13.2,2.6,13,2.5s-0.5-0.1-0.7,0.1
		C12.1,2.7,12,3,12.1,3.2c0.1,0.2,0.3,0.4,0.5,0.4c0.1,0,0.3,0,0.4-0.1c0.1-0.1,0.3-0.1,0.4,0l0,0c0.1,0.1,0.2,0.3,0,0.4l0,0
		c-0.3,0.3-0.7,0.4-1.1,0.3c-0.4-0.1-0.8-0.5-0.9-0.9C11.5,3.1,11.5,3.1,11.4,3z"/>
	<path class="st1" d="M14,3V2.1c0-0.3,0.1-0.4,0.4-0.4h0.7c0.2,0,0.3,0.1,0.3,0.3l0,0c0,0.2-0.2,0.3-0.3,0.3h-0.3
		c-0.1,0-0.1,0-0.1,0.1s0,0.1,0.1,0.1H15c0.2,0,0.3,0.1,0.3,0.3l0,0c0,0.2-0.1,0.3-0.3,0.3h-0.1c-0.1,0-0.2-0.1-0.2,0.1
		s0.2,0.1,0.3,0.1s0.2,0,0.2,0c0.2,0,0.3,0.2,0.3,0.4c0,0.1-0.1,0.2-0.3,0.3c-0.2,0-0.5,0-0.8,0C14.2,4.1,14,4,14,3.8V3z"/>
	<path class="st1" d="M13.1,5.5H15c0.1,0,0.3,0.1,0.3,0.2s0,0.2,0,0.3c-0.1,0.1-0.2,0.1-0.3,0.1h-3.8c-0.2,0-0.3-0.1-0.3-0.3l0,0
		c0-0.2,0.1-0.3,0.4-0.3C11.3,5.5,13.1,5.5,13.1,5.5z"/>
	<path class="st1" d="M6.3,3l0.3-1C6.7,1.8,6.8,1.7,7,1.8c0.2,0,0.3,0.2,0.2,0.4c0,0,0,0,0,0.1c-0.1,0.5-0.3,1-0.5,1.6
		c0,0.2-0.2,0.3-0.4,0.3C6.2,4.2,6,4.1,6,3.9L5.4,2.2C5.3,2,5.4,1.8,5.6,1.8S5.9,1.8,6,2S6.2,2.6,6.3,3z"/>
	<path class="st1" d="M10.9,3v0.9c0,0.2-0.1,0.4-0.3,0.4s-0.3-0.1-0.3-0.4V2.1c0-0.2,0.1-0.4,0.3-0.4s0.3,0.1,0.3,0.4V3z"/>
	<path class="st1" d="M2.6,3c0,0.3,0,0.6,0,0.8S2.5,4.2,2.3,4.2S2,4,2,3.8l0,0V2.1c0-0.2,0.1-0.3,0.3-0.4l0,0c0.2,0,0.3,0.2,0.3,0.4
		S2.6,2.7,2.6,3z"/>
	<path class="st1" d="M14.3,7h0.8c0.2,0,0.3,0.1,0.4,0.3l0,0c0,0.2-0.2,0.3-0.3,0.3l0,0h-1.6c-0.2,0-0.3-0.1-0.3-0.3s0-0.3,0.1-0.3
		l0,0H14.3z"/>
</g>
</svg>
