<svg xmlns="http://www.w3.org/2000/svg" viewBox="0 0 17.35 22"><path d="M4.53,23v0a1.52,1.52,0,0,1-1.11-1.66q0-9.42,0-18.82A1.4,1.4,0,0,1,4.58,1a1.94,1.94,0,0,1,.34,0H7c.25,0,.39.12.39.33s-.14.31-.39.32H5c-.65,0-.92.26-.92.9V21.48a.78.78,0,0,0,.88.88H19.25a.77.77,0,0,0,.87-.88V17.81a1.47,1.47,0,0,1,0-.21.32.32,0,0,1,.27-.27.3.3,0,0,1,.33.19.51.51,0,0,1,0,.27v3.48A1.48,1.48,0,0,1,19.61,23Z" transform="translate(-3.41 -1)" fill="#a09eb4"/><path d="M12.09,9.76h5.39c.6,0,.89.28.89.87v6.45a.78.78,0,0,1-.88.89H11.17a.86.86,0,0,1-.23,0,.29.29,0,0,1-.23-.34.29.29,0,0,1,.29-.27h3.39c.17,0,.21,0,.21-.21,0-.47,0-.93,0-1.4,0-.13,0-.18-.17-.18H6.63c-.15,0-.18.05-.17.18,0,.45,0,.9,0,1.36,0,.19.06.26.26.25H9.76a.3.3,0,0,1,.3.31A.3.3,0,0,1,9.8,18a1,1,0,0,1-.25,0H6.67a.78.78,0,0,1-.86-.85V10.61a.76.76,0,0,1,.87-.85Zm-1.57,5.13h3.89c.14,0,.19,0,.19-.18,0-.57,0-1.13,0-1.7,0-.15,0-.19-.19-.19H6.63c-.13,0-.18,0-.17.17,0,.57,0,1.14,0,1.7,0,.16,0,.2.2.2Zm0-2.71H14.4c.16,0,.21,0,.2-.2,0-.36,0-.73,0-1.09s0-.49-.49-.49H6.72c-.21,0-.27.06-.27.27,0,.44,0,.89,0,1.33,0,.16,0,.18.2.18Zm6,.64H15.41c-.14,0-.17,0-.17.17,0,.58,0,1.16,0,1.74,0,.11,0,.16.15.16h2.19c.12,0,.14,0,.14-.15V13c0-.12,0-.14-.14-.14Zm0,2.71H15.39c-.11,0-.15,0-.15.14v1.5c0,.11,0,.15.14.15h2.15c.13,0,.19-.05.19-.19V15.67c0-.11,0-.14-.14-.14Zm0-3.35h1.12c.1,0,.13,0,.13-.13V10.59c0-.14,0-.19-.19-.19H15.39c-.11,0-.15,0-.15.15,0,.49,0,1,0,1.48,0,.12,0,.15.16.15Z" transform="translate(-3.41 -1)" fill="#a09eb4"/><path d="M20.76,9.34v7c0,.21-.15.35-.33.34s-.31-.14-.31-.36a1.47,1.47,0,0,1,0-.21V2.56c0-.65-.27-.91-.92-.91H8.33A.32.32,0,0,1,8,1.32.33.33,0,0,1,8.33,1H19.24a1.4,1.4,0,0,1,1.52,1.53Z" transform="translate(-3.41 -1)" fill="#a09eb4"/><path d="M14.67,19.64a.88.88,0,0,1,.69.37l.26.37c.13.16.23.16.36,0a4,4,0,0,0,.24-.33.83.83,0,0,1,1.43,0c.08.1.14.2.21.3a.39.39,0,0,0,.26.17.3.3,0,0,1,.27.35.33.33,0,0,1-.37.28.82.82,0,0,1-.6-.32c-.08-.1-.15-.21-.23-.32-.21-.3-.3-.3-.51,0l-.16.23a.84.84,0,0,1-1.44,0c-.09-.12-.17-.25-.27-.37a.17.17,0,0,0-.3,0c-.09.11-.17.23-.26.35a.91.91,0,0,1-.62.42.34.34,0,0,1-.42-.26.31.31,0,0,1,.29-.37.37.37,0,0,0,.23-.17c.09-.12.17-.25.27-.37A.82.82,0,0,1,14.67,19.64Z" transform="translate(-3.41 -1)" fill="#a09eb4"/><path d="M13.17,4a1.23,1.23,0,1,1-1.24-1.22A1.24,1.24,0,0,1,13.17,4Zm-.65,0a.57.57,0,0,0-.59-.57.58.58,0,0,0-.57.58.6.6,0,0,0,.59.59A.58.58,0,0,0,12.52,4Z" transform="translate(-3.41 -1)" fill="#a09eb4"/><path d="M7.83,3.84V3.13c0-.25.13-.4.33-.4a.34.34,0,0,1,.32.38c0,.55,0,1.1,0,1.66a.35.35,0,0,1-.24.38c-.19.07-.32,0-.43-.19L7.23,4.1v.69c0,.25-.13.4-.32.4s-.33-.14-.33-.41V3.13c0-.17,0-.31.22-.37a.34.34,0,0,1,.41.18C7.4,3.23,7.6,3.51,7.83,3.84Z" transform="translate(-3.41 -1)" fill="#a09eb4"/><path d="M14.86,4a1.24,1.24,0,0,1,1.82-1.1c.22.12.29.29.2.47s-.27.21-.5.1a.57.57,0,0,0-.67.07.55.55,0,0,0-.18.6.58.58,0,0,0,.5.41.48.48,0,0,0,.39-.13.31.31,0,0,1,.47,0,.3.3,0,0,1,0,.47,1,1,0,0,1-1.11.27,1.18,1.18,0,0,1-.87-.94A1.65,1.65,0,0,1,14.86,4Z" transform="translate(-3.41 -1)" fill="#a09eb4"/><path d="M17.42,4V3.14c0-.28.12-.39.39-.4h.67a.32.32,0,0,1,.35.32.34.34,0,0,1-.34.32h-.28c-.09,0-.15,0-.15.12s0,.14.14.13h.26a.31.31,0,0,1,.31.32.32.32,0,0,1-.31.31h-.15c-.09,0-.25-.09-.25.13s.17.09.26.11a.86.86,0,0,0,.23,0,.32.32,0,0,1,0,.63q-.37,0-.75,0c-.23,0-.34-.12-.35-.35Z" transform="translate(-3.41 -1)" fill="#a09eb4"/><path d="M16.56,6.53h1.91a.34.34,0,0,1,.33.2.29.29,0,0,1-.05.32.32.32,0,0,1-.28.13H14.65a.32.32,0,0,1-.34-.34c0-.19.13-.3.36-.31Z" transform="translate(-3.41 -1)" fill="#a09eb4"/><path d="M9.75,4,10.06,3c.08-.22.23-.31.42-.25a.31.31,0,0,1,.19.45c-.18.56-.37,1.12-.55,1.69a.37.37,0,0,1-.36.29.36.36,0,0,1-.37-.29L8.81,3.22c-.08-.23,0-.39.17-.46s.36,0,.44.26S9.63,3.61,9.75,4Z" transform="translate(-3.41 -1)" fill="#a09eb4"/><path d="M14.34,4v.86c0,.23-.13.38-.32.37s-.32-.14-.33-.37V3.1c0-.23.15-.37.34-.36s.3.14.31.36Z" transform="translate(-3.41 -1)" fill="#a09eb4"/><path d="M6,4c0,.28,0,.57,0,.85s-.13.38-.32.38a.34.34,0,0,1-.32-.37V3.09a.34.34,0,0,1,.32-.36c.19,0,.32.15.32.38S6,3.68,6,4Z" transform="translate(-3.41 -1)" fill="#a09eb4"/><path d="M17.68,8h.79a.32.32,0,0,1,.36.32.33.33,0,0,1-.34.32H16.85a.32.32,0,1,1,0-.64Z" transform="translate(-3.41 -1)" fill="#a09eb4"/></svg>