<svg xmlns="http://www.w3.org/2000/svg" viewBox="0 0 21.81 21.85"><path d="M1,2.69a16.25,16.25,0,0,1,1.35-1.4.41.41,0,0,1,.55-.06L5.87,3a.48.48,0,0,1,.23.45c0,.27,0,.54,0,.81a.33.33,0,0,0,.1.26q2.52,2.51,5,5c.1.1.15.08.23,0l2.92-2.92a.28.28,0,0,0,.08-.27A4.12,4.12,0,0,1,16.11,2a4.08,4.08,0,0,1,3.82-.6.42.42,0,0,1,.16.75c-.52.53-1,1.06-1.56,1.58a.56.56,0,0,0-.15.37,1.07,1.07,0,0,0,.45,1.1l0,0c.5.51.5.51,1.21.48a.32.32,0,0,0,.21-.12L21.84,4c.36-.36.68-.27.85.21a5.45,5.45,0,0,1,.12,1.39,3.31,3.31,0,0,1-.43,1.8,4.2,4.2,0,0,1-3.13,2.24,4.11,4.11,0,0,1-1.6-.06.26.26,0,0,0-.26.08L15.09,12c-.1.1-.12.16,0,.24a.69.69,0,0,1,.13.11c.11.1.21.26.35.3s.21-.17.33-.25a.44.44,0,0,1,.56,0,.42.42,0,0,1,0,.58c-.07.09-.23.19-.21.25s.16.18.25.27l5.48,5a2.65,2.65,0,0,1,.75,1.14,2.52,2.52,0,0,1,.06.86A2.4,2.4,0,0,1,20.67,23l0,0h-.72c0-.07-.11-.05-.17-.06a2.67,2.67,0,0,1-1.35-.8L13.3,16.61c-.21-.23-.21-.23-.44,0l-.07.05a.42.42,0,0,1-.54,0,.39.39,0,0,1-.05-.54,1.38,1.38,0,0,1,.22-.26c.06-.05.07-.08,0-.15s-.33-.36-.51-.55q-1.22,1.23-2.43,2.43c-.09.1-.06.18,0,.28a3.64,3.64,0,0,1,0,1.64,4.21,4.21,0,0,1-3,3.37c-.24.07-.49.11-.73.17h-1a2.47,2.47,0,0,0-.65-.16c-.52-.11-.59-.56-.23-.89s.81-.83,1.25-1.21a1.13,1.13,0,0,0,.44-1,.55.55,0,0,0-.19-.42A1.82,1.82,0,0,1,5.06,19a1.13,1.13,0,0,0-1.16-.49.53.53,0,0,0-.33.15c-.49.51-1,1-1.51,1.53s-.7.3-.87-.21c-.09-.28-.08-.58-.19-.86v-.59c.06,0,0-.09,0-.13a4,4,0,0,1,.75-2.07,4.21,4.21,0,0,1,4.45-1.71.26.26,0,0,0,.27-.09c1-1,1.91-1.92,2.88-2.87.12-.12.1-.18,0-.29L4.93,6.88a3.12,3.12,0,0,0-.64-.62,2.12,2.12,0,0,0-.91,0,.57.57,0,0,1-.56-.32C2.27,5,1.72,4.06,1.16,3.14,1.11,3.06,1.1,3,1,2.9ZM5,22.1v0l.08,0a3.51,3.51,0,0,0,1.85-.4,3.39,3.39,0,0,0,1.65-3.95.63.63,0,0,1,.16-.69L17,8.85a.59.59,0,0,1,.65-.16,3.41,3.41,0,0,0,4.1-1.89A3.26,3.26,0,0,0,22,5.09c-.42.41-.84.81-1.24,1.22a.69.69,0,0,1-.55.22q-.46,0-.93,0a.63.63,0,0,1-.53-.22c-.21-.23-.43-.45-.65-.68-.64-.68-.53-.43-.57-1.39A1.42,1.42,0,0,1,18,3c.33-.28.61-.61.92-.93a2.93,2.93,0,0,0-1.2.06,3.4,3.4,0,0,0-2.43,4.25.65.65,0,0,1-.19.72L7,15.27a.64.64,0,0,1-.72.19A3.41,3.41,0,0,0,2,17.82a3.3,3.3,0,0,0-.1,1.25c.38-.37.75-.71,1.09-1.08a1.23,1.23,0,0,1,.89-.38,2,2,0,0,1,1.8.74c.84,1,.69.51.73,1.8A1,1,0,0,1,6,21C5.66,21.36,5.32,21.74,5,22.1Zm17-1.65a1.64,1.64,0,0,0-.54-1.25l-5.74-5.27c-.08-.08-.12-.1-.21,0l-1.73,1.74c-.09.08-.09.12,0,.21l5.27,5.72a1.7,1.7,0,0,0,1.89.43A1.71,1.71,0,0,0,22,20.45ZM5.25,4.18c0-.13,0-.27,0-.4a.2.2,0,0,0-.11-.21L2.83,2.18c-.1-.06-.14,0-.21,0a6.5,6.5,0,0,1-.53.52.16.16,0,0,0,0,.25c.34.57.68,1.13,1,1.7.14.22.23.52.42.65s.53,0,.8,0a.79.79,0,0,1,.6.26l4.76,4.78c.16.15.3.42.47.42s.3-.28.46-.41.11-.19,0-.3L5.66,5.2A1,1,0,0,1,5.25,4.18Zm9.76,9a.35.35,0,0,1-.12-.07,5.23,5.23,0,0,1-.42-.39c-.08-.08-.13-.07-.21,0-.54.55-1.08,1.1-1.63,1.64-.07.07-.1.11,0,.2A5.49,5.49,0,0,1,13,15c.07.08.11.08.18,0l1.69-1.69Z" transform="translate(-1 -1.15)" fill="#a09eb4"/><path d="M9.28,15.17a.42.42,0,0,1-.37-.62.68.68,0,0,1,.17-.21l5.13-5.13.2-.17A.42.42,0,0,1,15,9.6a.87.87,0,0,1-.17.21L9.68,15A.6.6,0,0,1,9.28,15.17Z" transform="translate(-1 -1.15)" fill="#a09eb4"/><path d="M15.83,8.62a.42.42,0,1,1,0-.84.42.42,0,0,1,.42.42A.41.41,0,0,1,15.83,8.62Z" transform="translate(-1 -1.15)" fill="#a09eb4"/><path d="M8.49,15.94a.42.42,0,0,1-.41.43.43.43,0,0,1-.44-.4.44.44,0,0,1,.42-.44A.43.43,0,0,1,8.49,15.94Z" transform="translate(-1 -1.15)" fill="#a09eb4"/><path d="M20.42,20.17a.42.42,0,0,1-.62.33.74.74,0,0,1-.19-.16L16,16.72l-.11-.12a.42.42,0,0,1,0-.58.43.43,0,0,1,.6,0l.1.1,3.67,3.66A.5.5,0,0,1,20.42,20.17Z" transform="translate(-1 -1.15)" fill="#a09eb4"/></svg>