<?xml version="1.0" encoding="utf-8"?>
<!-- Generator: Adobe Illustrator 25.2.1, SVG Export Plug-In . SVG Version: 6.00 Build 0)  -->
<svg version="1.1" id="Layer_1" xmlns="http://www.w3.org/2000/svg" xmlns:xlink="http://www.w3.org/1999/xlink" x="0px" y="0px"
	 viewBox="0 0 21.8 21.9" style="enable-background:new 0 0 21.8 21.9;" xml:space="preserve">
<style type="text/css">
	.st0{fill:#595FAB;}
</style>
<path class="st0" d="M0,1.5c0.4-0.5,0.9-1,1.3-1.4C1.5,0,1.7,0,1.9,0.1l3,1.8C5,1.9,5.1,2.1,5.1,2.3c0,0.3,0,0.5,0,0.8
	c0,0.1,0,0.2,0.1,0.3c1.7,1.7,3.3,3.3,5,5c0.1,0.1,0.1,0.1,0.2,0l2.9-2.9c0.1-0.1,0.1-0.2,0.1-0.3c-0.4-1.7,0.3-3.4,1.7-4.3
	c1.1-0.8,2.5-1.1,3.8-0.6c0.2,0,0.4,0.3,0.3,0.5c0,0.1-0.1,0.2-0.2,0.3c-0.5,0.5-1,1.1-1.6,1.6c-0.1,0.1-0.1,0.2-0.1,0.4
	c-0.1,0.4,0.1,0.9,0.5,1.1l0,0c0.5,0.5,0.5,0.5,1.2,0.5c0.1,0,0.2-0.1,0.2-0.1l1.6-1.6c0.4-0.4,0.7-0.3,0.9,0.2
	c0.1,0.5,0.1,0.9,0.1,1.4c0,0.6-0.1,1.3-0.4,1.8c-0.6,1.2-1.8,2-3.1,2.2c-0.5,0.1-1.1,0.1-1.6-0.1c-0.1,0-0.2,0-0.3,0.1l-2.3,2.3
	C14,11,14,11,14.1,11.1c0,0,0.1,0.1,0.1,0.1c0.1,0.1,0.2,0.3,0.4,0.3s0.2-0.2,0.3-0.2c0.2-0.1,0.4-0.1,0.6,0c0.2,0.2,0.2,0.4,0,0.6
	c-0.1,0.1-0.2,0.2-0.2,0.2s0.2,0.2,0.2,0.3l5.5,5c0.3,0.3,0.6,0.7,0.8,1.1c0.1,0.3,0.1,0.6,0.1,0.9c0.1,1.3-0.9,2.4-2.1,2.5l0,0H19
	c0-0.1-0.1,0-0.2-0.1c-0.5-0.1-1-0.4-1.4-0.8l-5.1-5.5c-0.2-0.2-0.2-0.2-0.4,0l-0.1,0c-0.2,0.1-0.4,0.1-0.5,0
	c-0.2-0.1-0.2-0.4-0.1-0.5c0.1-0.1,0.1-0.2,0.2-0.3c0.1-0.1,0.1-0.1,0-0.1s-0.3-0.4-0.5-0.6c-0.8,0.8-1.6,1.6-2.4,2.4
	c-0.1,0.1-0.1,0.2,0,0.3c0.1,0.5,0.1,1.1,0,1.6c-0.3,1.6-1.4,2.9-3,3.4c-0.2,0.1-0.5,0.1-0.7,0.2h-1c-0.2-0.1-0.4-0.1-0.7-0.2
	c-0.5-0.1-0.6-0.6-0.2-0.9s0.8-0.8,1.2-1.2c0.3-0.2,0.5-0.6,0.4-1c0-0.2-0.1-0.3-0.2-0.4c-0.1-0.1-0.2-0.2-0.3-0.4
	c-0.3-0.4-0.7-0.6-1.2-0.5c-0.1,0-0.2,0.1-0.3,0.1c-0.5,0.5-1,1-1.5,1.5s-0.7,0.3-0.9-0.2C0.1,18.6,0.1,18.3,0,18v-0.6
	c0.1,0,0-0.1,0-0.1c0.1-0.7,0.3-1.5,0.8-2.1c1-1.4,2.8-2.1,4.4-1.7c0.1,0,0.2,0,0.3-0.1c1-1,1.9-1.9,2.9-2.9c0.1-0.1,0.1-0.2,0-0.3
	L3.9,5.7C3.7,5.5,3.5,5.3,3.3,5.1C3,5,2.7,5,2.4,5.1C2.1,5.1,1.9,5,1.8,4.8C1.3,3.8,0.7,2.9,0.2,2c0-0.1-0.1-0.1-0.2-0.2V1.5z M4,21
	L4,21L4,21c0.7,0,1.4-0.1,1.9-0.4c1.4-0.8,2.1-2.4,1.7-4c-0.1-0.2,0-0.5,0.2-0.7L16,7.7c0.2-0.2,0.4-0.2,0.6-0.2
	c1.6,0.5,3.4-0.3,4.1-1.9C21,5.1,21.1,4.5,21,3.9c-0.4,0.4-0.8,0.8-1.2,1.2c-0.1,0.2-0.3,0.2-0.5,0.2c-0.3,0-0.6,0-0.9,0
	c-0.2,0-0.4-0.1-0.5-0.2c-0.2-0.2-0.4-0.4-0.6-0.7c-0.6-0.7-0.5-0.4-0.6-1.4c-0.1-0.5,0.1-0.9,0.5-1.2c0.3-0.3,0.6-0.6,0.9-0.9
	c-0.4-0.1-0.8,0-1.2,0.1c-1.8,0.5-2.9,2.3-2.5,4.1c0,0,0,0.1,0,0.1c0.1,0.3,0,0.5-0.2,0.7L6,14.1c-0.2,0.2-0.5,0.3-0.7,0.2
	c-1.8-0.5-3.7,0.5-4.3,2.3c0,0,0,0.1,0,0.1c-0.1,0.4-0.1,0.8-0.1,1.2c0.4-0.4,0.8-0.7,1.1-1.1c0.2-0.2,0.6-0.4,0.9-0.4
	c0.7-0.1,1.4,0.2,1.8,0.7c0.8,1,0.7,0.5,0.7,1.8c0,0.3-0.1,0.7-0.4,0.9C4.7,20.2,4.3,20.6,4,21z M21,19.3c0-0.5-0.2-0.9-0.5-1.2
	l-5.7-5.3c-0.1-0.1-0.1-0.1-0.2,0l-1.7,1.7c-0.1,0.1-0.1,0.1,0,0.2l5.3,5.7c0.5,0.5,1.2,0.7,1.9,0.4C20.6,20.6,21,20,21,19.3z
	 M4.2,3c0-0.1,0-0.3,0-0.4c0-0.1,0-0.2-0.1-0.2L1.8,1C1.7,1,1.7,1,1.6,1C1.5,1.2,1.3,1.4,1.1,1.6C1,1.6,1,1.7,1.1,1.8c0,0,0,0,0,0
	c0.3,0.6,0.7,1.1,1,1.7C2.2,3.7,2.3,4,2.5,4.2s0.5,0,0.8,0c0.2,0,0.4,0.1,0.6,0.3l4.8,4.8C8.8,9.3,9,9.6,9.1,9.6s0.3-0.3,0.5-0.4
	s0.1-0.2,0-0.3L4.7,4C4.3,3.8,4.2,3.4,4.2,3z M14,12c0,0-0.1,0-0.1-0.1c-0.1-0.1-0.3-0.3-0.4-0.4c-0.1-0.1-0.1-0.1-0.2,0
	c-0.5,0.6-1.1,1.1-1.6,1.6c-0.1,0.1-0.1,0.1,0,0.2c0.1,0.1,0.3,0.3,0.4,0.4c0.1,0.1,0.1,0.1,0.2,0l1.7-1.7L14,12z"/>
<path class="st0" d="M8.3,14c-0.2,0-0.4-0.2-0.4-0.4c0-0.1,0-0.1,0.1-0.2c0-0.1,0.1-0.2,0.2-0.2l5.1-5.1l0.2-0.2
	C13.6,7.8,13.9,7.8,14,8c0.1,0.1,0.1,0.3,0,0.4c0,0.1-0.1,0.1-0.2,0.2l-5.1,5.2C8.6,14,8.4,14,8.3,14z"/>
<path class="st0" d="M14.8,7.5c-0.2,0-0.4-0.2-0.4-0.4c0-0.2,0.2-0.4,0.4-0.4l0,0c0.2,0,0.4,0.2,0.4,0.4l0,0
	C15.3,7.3,15.1,7.5,14.8,7.5C14.8,7.5,14.8,7.5,14.8,7.5z"/>
<path class="st0" d="M7.5,14.8c0,0.2-0.2,0.4-0.4,0.4c0,0,0,0,0,0c-0.2,0-0.4-0.2-0.4-0.4c0-0.2,0.2-0.4,0.4-0.4
	C7.3,14.4,7.5,14.6,7.5,14.8z"/>
<path class="st0" d="M19.4,19c0,0.2-0.2,0.4-0.5,0.4c-0.1,0-0.1,0-0.2,0c-0.1,0-0.1-0.1-0.2-0.2L15,15.6l-0.1-0.1
	c-0.2-0.2-0.2-0.4,0-0.6c0.2-0.2,0.4-0.2,0.6,0l0.1,0.1l3.7,3.7C19.4,18.7,19.4,18.9,19.4,19z"/>
</svg>
