<?xml version="1.0" encoding="utf-8"?>
<!-- Generator: Adobe Illustrator 25.2.1, SVG Export Plug-In . SVG Version: 6.00 Build 0)  -->
<svg version="1.1" id="Layer_1" xmlns="http://www.w3.org/2000/svg" xmlns:xlink="http://www.w3.org/1999/xlink" x="0px" y="0px"
	 viewBox="0 0 22 22" style="enable-background:new 0 0 22 22;" xml:space="preserve">
<style type="text/css">
	.st0{fill-rule:evenodd;clip-rule:evenodd;fill:#595FAB;}
</style>
<desc>Created with Sketch.</desc>
<g id="Symbols">
	<g id="icon_x2F_sub-nav_x2F_active_x2F_bank" transform="translate(-1.000000, -1.000000)">
		<g id="Group-7" transform="translate(1.800000, 1.200000)">
			<polygon id="Fill-2" class="st0" points="2.6,15.6 4.4,15.6 4.4,9.1 2.6,9.1 			"/>
			<polygon id="Fill-3" class="st0" points="8.1,15.6 10,15.6 10,9.1 8.1,9.1 			"/>
			<polygon id="Fill-4" class="st0" points="0.3,19.3 13.1,19.3 13.1,17.5 0.3,17.5 			"/>
			<polygon id="Fill-5" class="st0" points="13.7,15.6 15.6,15.6 15.6,9.1 13.7,9.1 			"/>
			<polygon id="Fill-5_1_" class="st0" points="16.2,21.3 18.1,21.3 18.1,15.4 16.2,15.4 			"/>
			<path id="Fill-6" class="st0" d="M9.1,0.8L0.3,5.4v1.9h17.6V5.4L9.1,0.8z M9.1,2.9l4.8,2.5H4.2L9.1,2.9z"/>
			<polygon id="Fill-5_2_" class="st0" points="13.9,17.5 13.9,19.3 20.4,19.3 20.4,17.5 			"/>
		</g>
	</g>
</g>
</svg>
