<?xml version="1.0" encoding="utf-8"?>
<!-- Generator: Adobe Illustrator 25.2.1, SVG Export Plug-In . SVG Version: 6.00 Build 0)  -->
<svg version="1.1" id="Layer_1" xmlns="http://www.w3.org/2000/svg" xmlns:xlink="http://www.w3.org/1999/xlink" x="0px" y="0px"
	 viewBox="0 0 24 24" style="enable-background:new 0 0 24 24;" xml:space="preserve">
<style type="text/css">
	.st0{fill:#A09EB4;}
</style>
<g>
	<path class="st0" d="M22.6,7.7c-0.1,0.2-0.1,0.3-0.1,0.5c-0.5,2.3-2.6,4-5,4c-0.2,0-0.2,0-0.2,0.2c0,2.6,0,5.2,0,7.8
		c0,1.4-0.9,2.5-2.3,2.8C14.7,23,14.4,23,14.1,23c-3.6,0-7.1,0-10.7,0c-1.6,0-2.9-1.2-2.9-2.9c0-0.5,0-0.9,0-1.4
		c0-0.3,0.1-0.4,0.4-0.4c0.7,0,1.5,0,2.2,0c0.2,0,0.2,0,0.2-0.2c0-4,0.1-8.1,0.1-12.1c0-0.5,0.1-0.6,0.6-0.6c2.8,0,5.6,0,8.4,0
		c0.2,0,0.2,0,0.3-0.2c0.8-1.9,2.7-3.2,4.8-3.2c2.5,0.1,4.6,2,4.9,4.4c0,0,0,0.1,0,0.1C22.6,6.9,22.6,7.3,22.6,7.7z M12.9,9.1
		C12.9,9.1,12.9,9.1,12.9,9.1c-0.4-1-0.5-1.9-0.3-2.8c0-0.2,0-0.2-0.2-0.2c-2.6,0-5.3,0-7.9,0c-0.2,0-0.2,0-0.2,0.2
		c0,3.9,0,7.9-0.1,11.8c0,0.2,0,0.2,0.2,0.2c2.4,0,4.9,0,7.3,0c0.6,0,0.7,0,0.7,0.7c0,0.5-0.1,1.1,0,1.6c0.2,1.1,1.1,1.9,2.3,1.8
		c1.1-0.1,1.9-1,1.9-2.1c0-2.6,0-5.3,0-7.9c0-0.1,0-0.2-0.2-0.2c-1.2-0.3-2.2-1-3-2c-0.1-0.1-0.2-0.2-0.3-0.2c-1.1,0-2.3,0-3.4,0
		c-0.1,0-0.1,0-0.2,0c-0.2,0-0.3-0.2-0.3-0.4c0-0.2,0.1-0.3,0.3-0.3c0.1,0,0.1,0,0.2,0C10.8,9.1,11.8,9.1,12.9,9.1z M21.9,7.1
		c0-2.4-1.9-4.4-4.3-4.4c-2.4,0-4.4,1.9-4.4,4.4c0,2.4,1.9,4.3,4.3,4.4C20,11.4,21.9,9.5,21.9,7.1z M12.6,22.3
		c-0.5-0.5-0.8-1-0.9-1.6c-0.1-0.5,0-1,0-1.5c0-0.2,0-0.2-0.2-0.2c-3.3,0-6.6,0-9.9,0c-0.1,0-0.1,0-0.2,0c-0.1,0-0.1,0-0.1,0.1
		c0,0.5-0.1,1,0,1.5c0.2,1,1,1.7,2.1,1.7c3,0,6,0,9,0C12.5,22.3,12.5,22.3,12.6,22.3z"/>
	<path class="st0" d="M11.9,16.1c-0.8,0-1.5,0-2.3,0c-0.3,0-0.4-0.1-0.4-0.4c0-0.2,0.2-0.3,0.4-0.3c0.3,0,0.6,0,0.9,0
		c1.2,0,2.5,0,3.7,0c0.1,0,0.2,0,0.3,0c0.2,0.1,0.2,0.2,0.2,0.4c0,0.2-0.2,0.3-0.4,0.3c-0.5,0-1.1,0-1.6,0
		C12.4,16.1,12.2,16.1,11.9,16.1z"/>
	<path class="st0" d="M11.9,12.2c0.8,0,1.6,0,2.3,0c0.2,0,0.4,0.1,0.4,0.3c0,0.2-0.1,0.3-0.4,0.4c-0.1,0-0.1,0-0.2,0
		c-1,0-1.9,0-2.9,0c-0.5,0-1,0-1.6,0c-0.2,0-0.4-0.1-0.4-0.3c-0.1-0.2,0.1-0.4,0.4-0.4C10.4,12.2,11.2,12.2,11.9,12.2z"/>
	<path class="st0" d="M8.4,9.5c0,0.6-0.5,1.1-1.1,1.1c-0.6,0-1.1-0.5-1.1-1.1c0-0.6,0.5-1.1,1.2-1.1C7.9,8.4,8.4,8.9,8.4,9.5z
		 M7.3,9.1C7,9.1,6.8,9.3,6.8,9.5c0,0.2,0.2,0.4,0.4,0.4c0.2,0,0.4-0.2,0.4-0.4C7.7,9.3,7.5,9.1,7.3,9.1z"/>
	<path class="st0" d="M8.4,12.6c0,0.6-0.5,1.1-1.1,1.1c-0.6,0-1.1-0.5-1.1-1.1c0-0.6,0.5-1.1,1.2-1.1C7.9,11.5,8.4,12,8.4,12.6z
		 M7.3,13c0.2,0,0.4-0.2,0.4-0.4c0-0.2-0.2-0.4-0.4-0.4c-0.2,0-0.4,0.2-0.4,0.4C6.8,12.8,7,13,7.3,13z"/>
	<path class="st0" d="M8.4,15.7c0,0.6-0.5,1.1-1.1,1.1c-0.6,0-1.2-0.5-1.2-1.1c0-0.6,0.5-1.1,1.2-1.1C7.9,14.6,8.4,15.1,8.4,15.7z
		 M7.3,16.1c0.2,0,0.4-0.2,0.4-0.4c0-0.2-0.2-0.4-0.4-0.4c-0.2,0-0.4,0.2-0.4,0.4C6.8,15.9,7,16.1,7.3,16.1z"/>
	<path class="st0" d="M16,8.4c0-0.4,0.1-0.5,0.3-0.5c0.2,0,0.4,0.1,0.4,0.4c0,0.4,0.3,0.7,0.7,0.8c0.4,0,0.7-0.2,0.8-0.5
		c0.2-0.5-0.2-1-0.7-1c-0.3,0-0.7-0.1-0.9-0.3C16.2,6.8,16,6.4,16,5.8c0.1-0.6,0.4-1,0.9-1.2c0.2-0.1,0.3-0.2,0.2-0.4
		c0-0.2,0-0.4,0.3-0.4c0.2-0.1,0.5,0.1,0.4,0.4c0,0.2,0.1,0.3,0.3,0.4c0.6,0.2,0.9,0.7,0.9,1.3c0,0.3-0.1,0.4-0.3,0.5
		c-0.2,0-0.4-0.1-0.4-0.4c-0.1-0.5-0.4-0.8-0.8-0.8c-0.4,0-0.7,0.4-0.7,0.8c0,0.4,0.3,0.8,0.8,0.8c0.8,0,1.4,0.5,1.5,1.3
		c0.1,0.7-0.3,1.4-1.1,1.6c-0.1,0-0.1,0.1-0.1,0.2c0,0.1,0,0.2,0,0.3c0,0.2-0.2,0.3-0.4,0.3c-0.2,0-0.4-0.1-0.3-0.3
		c0-0.3-0.1-0.5-0.4-0.6C16.3,9.3,16.1,8.8,16,8.4z"/>
</g>
</svg>
