<?xml version="1.0" encoding="utf-8"?>
<!-- Generator: Adobe Illustrator 25.2.1, SVG Export Plug-In . SVG Version: 6.00 Build 0)  -->
<svg version="1.1" id="Layer_1" xmlns="http://www.w3.org/2000/svg" xmlns:xlink="http://www.w3.org/1999/xlink" x="0px" y="0px"
	 viewBox="0 0 22.9 18.5" style="enable-background:new 0 0 22.9 18.5;" xml:space="preserve">
<style type="text/css">
	.st0{fill:#595FAB;}
	.st1{fill:#A09EB4;}
</style>
<path class="st0" d="M2.2,4.1v4.4C2.2,8.8,2,9,1.8,9S1.4,8.8,1.4,8.4v-6C1.3,1.2,2.3,0.1,3.6,0c0.1,0,0.1,0,0.2,0h16.5
	c0.6-0.1,1.2,0.4,1.3,1.1c0,0.1,0,0.1,0,0.2c0,2.1,0,4.2,0,6.2c0,0.2,0,0.3,0.3,0.3c0.2,0,0.4,0,0.5,0c0.2,0,0.4,0.1,0.4,0.4
	c0,0,0,0,0,0.1c0,1,0,2.1,0,3.1c0,0.2-0.1,0.4-0.4,0.4c0,0-0.1,0-0.1,0c-0.2,0-0.4,0-0.6,0c-0.2,0-0.2,0-0.2,0.2c0,0.8,0,1.5,0,2.3
	c0,0.4-0.2,0.9-0.6,1.1c-0.2,0.1-0.4,0.2-0.6,0.1h-3.7c-0.3,0-0.5-0.1-0.5-0.4s0.2-0.4,0.5-0.4h3.6c0.4,0,0.5-0.1,0.5-0.5
	c0-0.7,0-1.5,0-2.2c0-0.2,0-0.2-0.2-0.2h-2c-0.8,0-1.6-0.5-1.9-1.2c-0.3-0.7-0.2-1.6,0.4-2.2C17.5,8,18,7.8,18.6,7.8h2
	c0.2,0,0.2,0,0.2-0.2c0-0.9,0-1.8,0-2.8c0-0.2-0.1-0.2-0.2-0.2H4.3C3.6,4.7,2.8,4.5,2.2,4.1z M12,0.8H3.9c-0.2,0-0.4,0-0.5,0
	c-0.8,0.2-1.3,1-1.1,1.8C2.4,3,2.6,3.4,2.9,3.6C3,3.6,3.1,3.7,3.1,3.5c0-0.2,0-0.4,0-0.5c0-0.6,0.4-1,1-1c0.4,0,0.7,0,1,0
	c0.2,0,0.4,0.1,0.4,0.3c0,0,0,0,0,0.1c0,0.2-0.2,0.4-0.5,0.4h-1C4,2.8,3.9,2.9,3.9,3c0,0.2,0,0.4,0,0.5c0,0.2,0.1,0.3,0.3,0.3h16.4
	c0.1,0,0.2,0,0.2-0.2c0-0.2,0-0.4,0-0.6c0-0.2-0.1-0.3-0.3-0.3H6.9c-0.2,0-0.4-0.1-0.5-0.3S6.5,2,6.8,1.9c0,0,0.1,0,0.1,0
	c0.1,0,0.2,0,0.2,0h13.2c0.5,0,0.5,0,0.5-0.5s-0.1-0.5-0.5-0.5L12,0.8z M20.2,8.6h-1.6c-0.7,0-1.2,0.5-1.2,1.1c0,0,0,0,0,0.1
	c0,0.6,0.5,1.2,1.1,1.2c0,0,0.1,0,0.1,0h3.3c0.1,0,0.2,0,0.2-0.2c0-0.7,0-1.4,0-2c0-0.1,0-0.2-0.2-0.2L20.2,8.6z"/>
<path class="st0" d="M11.3,15.6c-1.2,0-2.3,0-3.5,0c-0.1,0-0.3,0.1-0.3,0.2c-0.6,2-2.8,3.1-4.8,2.5c-1.3-0.4-2.3-1.5-2.6-2.9
	c-0.3-1.3,0.1-2.7,1.1-3.6c0.1-0.1,0.2-0.3,0.2-0.4c0-0.4,0-0.8,0-1.1s0.2-0.5,0.4-0.5s0.4,0.2,0.4,0.5s0,0.4,0,0.6s0,0.2,0.2,0.2
	c1-0.4,2.2-0.4,3.1,0.1c1.3,0.6,2.1,1.9,2.1,3.3c0,0.2,0.1,0.3,0.3,0.3h7c0.2,0,0.4,0.2,0.4,0.4c0,0.2-0.2,0.4-0.4,0.4c0,0,0,0,0,0
	c-0.2,0-0.3,0-0.5,0H11.3z M6.9,14.6c0-1.7-1.3-3-3-3s-3,1.3-3,3s1.3,3,3,3C5.5,17.6,6.8,16.3,6.9,14.6L6.9,14.6z"/>
<path class="st1" d="M18.5,10.2c0.2,0,0.4-0.2,0.4-0.4c0-0.2-0.2-0.4-0.4-0.4c0,0,0,0,0,0c-0.2,0-0.4,0.2-0.4,0.4c0,0,0,0,0,0
	C18.1,10,18.3,10.2,18.5,10.2z"/>
<path class="st1" d="M18.5,10.2c-0.2,0-0.4-0.2-0.4-0.4c0-0.2,0.1-0.4,0.3-0.4c0,0,0,0,0,0c0.2,0,0.4,0.1,0.4,0.3c0,0,0,0,0,0
	C18.8,10,18.7,10.2,18.5,10.2z"/>
<path class="st0" d="M4.3,14.2v0.1c0.1,0.6-0.3,0.9-0.7,1.2c-0.2,0.1-0.4,0.1-0.5-0.1c0,0,0,0,0,0C3,15.2,3,15,3.1,14.9
	c0.4-0.3,0.4-0.6,0.4-1c0-0.1,0-0.2,0-0.2c0-0.2,0.2-0.4,0.4-0.4c0,0,0,0,0,0c0.2,0,0.4,0.2,0.4,0.4C4.3,13.9,4.3,14,4.3,14.2
	L4.3,14.2z"/>
<path class="st0" d="M1.6,15c-0.3,0-0.5-0.2-0.5-0.4s0.2-0.4,0.5-0.4s0.5,0.2,0.5,0.4S1.9,15,1.6,15z"/>
<path class="st0" d="M4.3,16.9c0,0.3-0.2,0.5-0.4,0.5c-0.3,0-0.4-0.2-0.4-0.5c0,0,0,0,0,0c0-0.3,0.2-0.5,0.4-0.5S4.3,16.6,4.3,16.9z
	"/>
<path class="st0" d="M4.3,12.3c0,0.3-0.2,0.5-0.4,0.5c-0.2,0-0.4-0.2-0.4-0.5c0,0,0,0,0,0c0-0.3,0.2-0.5,0.4-0.5S4.3,12,4.3,12.3z"
	/>
<path class="st0" d="M6.1,15c-0.3,0-0.5-0.2-0.5-0.4s0.2-0.4,0.5-0.4s0.5,0.2,0.5,0.4S6.5,15,6.1,15z"/>
</svg>
