<svg xmlns="http://www.w3.org/2000/svg" viewBox="0 0 22.88 18.48"><path d="M2.87,7.05v4.39c0,.34-.16.54-.42.53s-.4-.21-.4-.53v-6A2.33,2.33,0,0,1,4.48,3H21a1.18,1.18,0,0,1,1.28,1.29c0,2.08,0,4.17,0,6.25,0,.22,0,.3.27.27a4.86,4.86,0,0,1,.54,0,.41.41,0,0,1,.45.44q0,1.56,0,3.12a.4.4,0,0,1-.44.44,3.87,3.87,0,0,1-.59,0c-.18,0-.23,0-.23.23,0,.77,0,1.55,0,2.32a1.19,1.19,0,0,1-.6,1.08,1.21,1.21,0,0,1-.64.15H17.3c-.33,0-.51-.14-.51-.4s.17-.41.5-.41h3.65c.44,0,.53-.09.53-.52,0-.73,0-1.46,0-2.2,0-.18,0-.24-.23-.24h-2a1.89,1.89,0,0,1-1.87-1.24,1.92,1.92,0,0,1,.41-2.15,2,2,0,0,1,1.44-.61h2c.17,0,.23,0,.23-.21q0-1.38,0-2.76c0-.2-.06-.24-.24-.23H5A2.82,2.82,0,0,1,2.87,7.05ZM12.7,3.82H4.53A1.91,1.91,0,0,0,4,3.87a1.48,1.48,0,0,0-.43,2.69c.1.06.22.17.21-.08a4.86,4.86,0,0,1,0-.54,1,1,0,0,1,1-1q.53,0,1,0a.4.4,0,0,1,.45.41c0,.24-.17.4-.46.4h-1A.24.24,0,0,0,4.59,6a3.13,3.13,0,0,1,0,.53c0,.24.06.28.28.28H21.3c.14,0,.17,0,.17-.17a4.56,4.56,0,0,1,0-.64c0-.24-.07-.27-.28-.27H7.56a.41.41,0,1,1,0-.81,1.77,1.77,0,0,1,.23,0H20.94c.53,0,.53,0,.53-.53s-.1-.55-.55-.55Zm8.16,7.81H19.25A1.18,1.18,0,0,0,18,12.8,1.16,1.16,0,0,0,19.23,14h3.32c.14,0,.18,0,.18-.18,0-.67,0-1.35,0-2,0-.15-.05-.18-.19-.18Z" transform="translate(-0.66 -3)" fill="#a09eb4"/><path d="M11.94,18.59c-1.16,0-2.33,0-3.49,0a.25.25,0,0,0-.29.2,3.83,3.83,0,0,1-7.41-.38,3.71,3.71,0,0,1,1.13-3.57.53.53,0,0,0,.18-.42c0-.37,0-.75,0-1.12s.16-.5.42-.5.4.18.4.49,0,.42,0,.63,0,.23.22.16a3.65,3.65,0,0,1,3.13.13A3.73,3.73,0,0,1,8.33,17.5c0,.24.09.28.3.28h7a.4.4,0,0,1,.37.41.39.39,0,0,1-.38.4c-.17,0-.34,0-.51,0Zm-4.42-1a3,3,0,1,0-3,3A3,3,0,0,0,7.52,17.62Z" transform="translate(-0.66 -3)" fill="#a09eb4"/><path d="M19.12,13.2a.4.4,0,0,0,.37-.4.37.37,0,0,0-.39-.36.36.36,0,0,0-.36.39A.38.38,0,0,0,19.12,13.2Z" transform="translate(-0.66 -3)" fill="#a09eb4"/><path d="M19.12,13.2a.38.38,0,0,1-.38-.37.36.36,0,0,1,.36-.39.37.37,0,0,1,.39.36A.4.4,0,0,1,19.12,13.2Z" transform="translate(-0.66 -3)" fill="#a09eb4"/><path d="M5,17.21v.1c.12.59-.26.9-.67,1.19a.37.37,0,0,1-.53-.07c-.14-.18-.16-.41,0-.53.41-.26.38-.64.36-1a1.85,1.85,0,0,1,0-.23.4.4,0,0,1,.39-.41.42.42,0,0,1,.42.39c0,.2,0,.39,0,.59Z" transform="translate(-0.66 -3)" fill="#a09eb4"/><path d="M2.25,18c-.3,0-.49-.16-.49-.4s.2-.42.51-.42.5.16.49.42S2.57,18,2.25,18Z" transform="translate(-0.66 -3)" fill="#a09eb4"/><path d="M5,19.88c0,.3-.17.51-.42.51a.46.46,0,0,1-.42-.51c0-.3.16-.5.42-.5S5,19.58,5,19.88Z" transform="translate(-0.66 -3)" fill="#a09eb4"/><path d="M5,15.34c0,.3-.18.5-.44.49a.45.45,0,0,1-.4-.52c0-.3.18-.5.44-.49S5,15,5,15.34Z" transform="translate(-0.66 -3)" fill="#a09eb4"/><path d="M6.8,18c-.3,0-.48-.16-.48-.41s.18-.41.5-.41.5.16.49.42S7.12,18,6.8,18Z" transform="translate(-0.66 -3)" fill="#a09eb4"/></svg>