<?xml version="1.0" encoding="utf-8"?>
<!-- Generator: Adobe Illustrator 25.2.1, SVG Export Plug-In . SVG Version: 6.00 Build 0)  -->
<svg version="1.1" id="Layer_1" xmlns="http://www.w3.org/2000/svg" xmlns:xlink="http://www.w3.org/1999/xlink" x="0px" y="0px"
	 viewBox="0 0 21 21" style="enable-background:new 0 0 21 21;" xml:space="preserve">
<style type="text/css">
	.st0{fill:#595FAB;}
	.st1{fill:#A09EB4;}
</style>
<path class="st0" d="M21,7.1c-0.1,0.2-0.3,0.3-0.6,0.3H17c-0.1,0-0.2,0-0.3,0.1c-0.5,0.7-1.2,1.2-2,1.4c-0.2,0-0.4,0-0.6,0
	c-0.1,0-0.2,0-0.3,0.1l-3.9,4c-0.3,0.3-0.5,0.3-0.8,0L1.5,5.4c-0.3-0.3-0.3-0.5,0-0.8l4.3-4.3C5.9,0.2,6,0.1,6.1,0h0.2
	c0.1,0,0.2,0.1,0.3,0.2C7,0.6,7.4,1,7.8,1.4C7.8,1.5,7.9,1.5,8,1.5C8.6,1.2,9.2,1,9.7,0.8c0.5-0.2,0.9-0.2,1.4-0.2
	c0.6,0.1,1.1,0.2,1.6,0.5c0.8,0.4,1.5,0.8,2.2,1.2c0.3,0.2,0.6,0.3,1,0.3c0.1,0,0.1,0,0.2-0.1c0-0.3,0.2-0.4,0.5-0.4
	c0.3,0,0.5,0,0.8,0c0.2,0,0.3,0,0.3-0.2c0-0.4,0.1-0.5,0.5-0.5h2.2c0.2,0,0.4,0.1,0.5,0.3L21,7.1z M8.5,2.2L10,3.7
	c0.1,0,0.1,0.1,0.2,0.1l2.6,0.8c0.4,0.1,0.5,0.3,0.4,0.6s-0.3,0.3-0.7,0.2L9.1,4.2c-0.4-0.1-0.9,0.1-1,0.5C8,5,8.1,5.4,8.3,5.6
	c0.2,0.2,0.3,0.3,0.6,0.3l3,1C12,7,12.1,7.1,12.2,7.2c0.6,0.7,1.5,1,2.4,0.8c0.6-0.2,1.2-0.6,1.5-1.2c0-0.1,0-0.1,0-0.2v-3
	c0-0.1,0-0.2-0.1-0.2c-0.5,0-1-0.2-1.4-0.4c-0.8-0.5-1.7-1-2.6-1.4c-0.6-0.3-1.3-0.3-1.9-0.1C9.6,1.8,9.1,2,8.5,2.2z M8.6,3.4
	L7.8,2.6c0,0-0.1,0-0.2,0c0,0,0,0,0,0c-0.9,0.6-2,0.6-2.9,0c-0.1,0-0.1,0-0.2,0C4.3,2.9,4.1,3.1,3.8,3.4c-0.1,0-0.1,0.1,0,0.2
	c0.6,0.9,0.6,2,0,2.8c-0.1,0-0.1,0.1,0,0.2c0,0,0,0,0,0l4,4c0,0.1,0.1,0.1,0.2,0c0,0,0,0,0,0c0.9-0.6,2-0.6,2.8,0
	c0,0.1,0.1,0.1,0.2,0c0,0,0,0,0,0l0.8-0.8c0.1-0.1,0.1-0.1,0-0.2c-0.4-0.5-0.5-1.2-0.4-1.8c0-0.1,0-0.2-0.1-0.2
	c-0.3-0.1-0.7-0.2-1-0.3S10,7.2,9.9,7.4C9.5,8.6,8.2,9.2,7,8.8S5.1,7,5.6,5.8c0.3-0.7,0.9-1.3,1.7-1.5c0.1,0,0.2,0,0.2-0.1
	C7.7,3.8,8.1,3.5,8.6,3.4z M20.2,4.4v-2c0-0.1,0-0.2-0.1-0.2h-1.4c-0.1,0-0.1,0-0.1,0.2v4c0,0.1,0,0.1,0.1,0.1c0.4,0,0.9,0,1.3,0
	c0.1,0,0.2-0.1,0.2-0.2L20.2,4.4z M7.8,8.1c0.6,0,1.2-0.4,1.4-1c0-0.1,0-0.2-0.1-0.2L8.6,6.7C7.9,6.5,7.4,6,7.3,5.4
	c0-0.2-0.1-0.2-0.2-0.1c-0.7,0.4-1,1.3-0.6,2.1C6.8,7.8,7.3,8.1,7.8,8.1z M17,4.8V6c0,0.2-0.1,0.4,0,0.5s0.3,0,0.5,0
	s0.2-0.1,0.2-0.2c0-0.9,0-1.9,0-2.8c0-0.2,0.1-0.4,0-0.5s-0.4,0-0.5,0S17,3,17,3.2L17,4.8z M9.4,11c-0.3,0-0.6,0.1-0.8,0.2
	c-0.1,0-0.1,0.1,0,0.1l0.8,0.8c0.1,0.1,0.1,0.1,0.2,0c0.2-0.3,0.5-0.5,0.8-0.8c0.1-0.1,0.1-0.1,0-0.2C10,11.1,9.7,11,9.4,11z
	 M3.2,4.1L2.2,5l1,0.9C3.5,5.3,3.5,4.6,3.2,4.1z M6.2,2.2C6.5,2.2,6.8,2.1,7,2c0.1,0,0.1-0.1,0-0.1L6.2,1.1c0-0.1,0-0.1-0.1,0
	C5.9,1.3,5.6,1.6,5.3,1.8c-0.1,0.1,0,0.1,0,0.2C5.6,2.1,5.9,2.2,6.2,2.2z M12.2,8.3c0,0.3,0.1,0.6,0.3,0.9l0.4-0.4
	c0,0,0.1-0.1,0-0.1C12.7,8.6,12.4,8.4,12.2,8.3z"/>
<path class="st0" d="M0,17.2v-2.4c0-0.4,0.1-0.5,0.6-0.5H4c0.1,0,0.3-0.1,0.4-0.2c0.5-0.7,1.2-1.2,2-1.3c1.1-0.2,2.2,0.2,2.9,1
	c0.1,0.1,0.2,0.1,0.3,0.2l2.8,1c0.6,0.1,1.1,0.5,1.3,1.1c0.1,0.1,0.1,0.1,0.2,0l2.8-0.8c0.3-0.1,0.6-0.1,0.9-0.1
	c0.6,0,1.1,0.4,1.3,1c0.2,0.6,0.1,1.2-0.3,1.6c-0.3,0.3-0.6,0.5-1,0.6l-6.4,2.4c-0.8,0.3-1.8,0.3-2.6-0.1c-0.9-0.4-1.8-0.9-2.7-1.4
	C5.7,19.1,5.3,19,5,19c-0.1,0-0.2,0-0.2,0.1c0,0.1-0.2,0.4-0.4,0.4c-0.3,0-0.6,0-0.9,0s-0.2,0-0.2,0.2c0,0.1,0,0.1,0,0.2
	c0,0.2-0.2,0.4-0.4,0.4c0,0,0,0,0,0H0.4c-0.3,0-0.4-0.2-0.4-0.5L0,17.2z M4.8,16.4c0,0.5,0,1,0,1.5c0,0.1,0,0.2,0.1,0.2
	c0.6,0,1.1,0.2,1.6,0.5c0.3,0.2,0.6,0.4,0.9,0.5C8,19.5,8.5,19.7,9,20c0.7,0.3,1.5,0.3,2.2,0c2-0.8,4-1.5,6.1-2.2
	c0.2-0.1,0.4-0.2,0.6-0.4c0.2-0.2,0.2-0.4,0.2-0.7c-0.1-0.4-0.5-0.7-1-0.7c-0.1,0-0.1,0-0.2,0.1c-1.1,0.3-2.1,0.6-3.2,0.9
	c-0.1,0-0.1,0.1-0.2,0.1c-0.2,0.8-1.1,1.3-2,1.1c0,0-0.1,0-0.1,0l-2.1-0.6L8.1,17c-0.2-0.1-0.3-0.2-0.3-0.5c0-0.2,0.2-0.3,0.3-0.4
	c0.1,0,0.2,0,0.3,0l1.8,0.6l1.7,0.5c0.4,0.1,0.9-0.1,1-0.5c0.1-0.3,0-0.6-0.2-0.9c-0.2-0.1-0.3-0.2-0.6-0.3l-3-1
	c-0.1,0-0.3-0.1-0.4-0.3c-0.5-0.7-1.4-1-2.3-0.9c-0.7,0.2-1.2,0.6-1.6,1.2c0,0.1,0,0.1,0,0.2L4.8,16.4z M0.8,17.2c0,0.7,0,1.3,0,2
	c0,0.1,0,0.2,0.2,0.2c0.4,0,0.9,0,1.3,0c0.1,0,0.2,0,0.2-0.2v-4c0-0.1,0-0.2-0.2-0.2c-0.4,0-0.9,0-1.3,0c-0.1,0-0.2,0-0.2,0.2
	C0.8,15.9,0.8,16.6,0.8,17.2L0.8,17.2z M4,16.9v-1.2C4,15,4,15,3.4,15.1c-0.1,0-0.1,0-0.1,0.1v3.3c0,0.1,0,0.1,0.1,0.1
	c0.1,0,0.3,0,0.4,0c0.1,0,0.2,0,0.2-0.2V16.9z"/>
<path class="st1" d="M14.7,5.5c0-0.2-0.2-0.4-0.4-0.4c-0.2,0-0.4,0.2-0.4,0.4c0,0,0,0,0,0c0,0.2,0.2,0.4,0.4,0.4
	C14.5,5.9,14.7,5.7,14.7,5.5z"/>
<path class="st1" d="M14.7,5.5c0,0.2-0.2,0.4-0.4,0.4c-0.2,0-0.4-0.2-0.4-0.4c0-0.2,0.2-0.4,0.4-0.4c0,0,0,0,0,0
	C14.6,5.1,14.7,5.2,14.7,5.5z"/>
<path class="st1" d="M6.3,16.2c0-0.2,0.2-0.4,0.4-0.4c0,0,0,0,0,0c0.2,0,0.4,0.1,0.5,0.3c0,0.2-0.1,0.4-0.3,0.5c0,0-0.1,0-0.1,0
	C6.5,16.6,6.3,16.4,6.3,16.2C6.3,16.2,6.3,16.2,6.3,16.2z"/>
</svg>
