<svg xmlns="http://www.w3.org/2000/svg" viewBox="0 0 21 21"><path d="M22.78,9.09a.56.56,0,0,1-.56.3H18.76a.32.32,0,0,0-.3.15,3.35,3.35,0,0,1-2,1.35,1.82,1.82,0,0,1-.57,0,.33.33,0,0,0-.32.13L11.63,15c-.32.31-.51.31-.82,0L3.24,7.39c-.33-.33-.33-.49,0-.82L7.53,2.28c.1-.1.21-.19.32-.28h.21a.73.73,0,0,1,.32.23c.39.39.79.78,1.17,1.18a.22.22,0,0,0,.25.06c.57-.22,1.14-.42,1.71-.63a3.43,3.43,0,0,1,1.42-.2,4.61,4.61,0,0,1,1.62.49c.76.37,1.5.77,2.23,1.19a2.57,2.57,0,0,0,1,.35c.07,0,.14,0,.16-.1,0-.31.16-.41.47-.41a7.48,7.48,0,0,1,.82,0c.2,0,.27,0,.26-.25,0-.38.13-.52.51-.52h2.2a.52.52,0,0,1,.54.29ZM10.31,4.16,11.8,5.65a.44.44,0,0,0,.18.09l2.63.83c.36.11.5.3.42.56s-.31.34-.67.22l-3.48-1.1a.8.8,0,0,0-.82,1.32,1.29,1.29,0,0,0,.55.33l3,1a.91.91,0,0,1,.41.29,2.31,2.31,0,0,0,2.37.81,2.51,2.51,0,0,0,1.5-1.16.34.34,0,0,0,0-.2v-3c0-.12,0-.17-.15-.18a3.22,3.22,0,0,1-1.42-.43,27.9,27.9,0,0,0-2.6-1.36,2.61,2.61,0,0,0-1.92-.11C11.36,3.76,10.85,4,10.31,4.16Zm.08,1.24-.81-.81a.12.12,0,0,0-.17,0,2.57,2.57,0,0,1-2.86,0c-.07,0-.12,0-.18,0-.25.27-.51.53-.78.79-.06,0-.06.09,0,.17a2.55,2.55,0,0,1,0,2.85.12.12,0,0,0,0,.19l4,4a.13.13,0,0,0,.19,0,2.53,2.53,0,0,1,2.85,0,.13.13,0,0,0,.19,0l.75-.75c.07-.07.09-.12,0-.2a2.5,2.5,0,0,1-.39-1.82c0-.13,0-.18-.14-.22-.33-.1-.66-.21-1-.33s-.25-.06-.32.14A2.33,2.33,0,1,1,9,6.34c.07,0,.16,0,.2-.09A1.64,1.64,0,0,1,10.39,5.4ZM22,6.41v-2c0-.12,0-.15-.14-.15H20.48c-.12,0-.14,0-.14.15V8.42c0,.12,0,.15.15.14.43,0,.87,0,1.31,0,.14,0,.16-.05.16-.18ZM9.6,10.11a1.53,1.53,0,0,0,1.44-1c0-.11,0-.17-.11-.2l-.6-.2A1.85,1.85,0,0,1,9.05,7.36c0-.17-.08-.15-.2-.08a1.51,1.51,0,0,0,.75,2.83Zm9.19-3.35V8c0,.18-.07.42,0,.51s.33,0,.51,0,.19-.05.19-.2c0-.95,0-1.89,0-2.84,0-.18.08-.41,0-.52S19.14,5,19,5s-.17,0-.17.19ZM11.21,13a1.9,1.9,0,0,0-.81.2c-.08,0-.12.07,0,.15l.77.77c.06.06.1.07.17,0,.25-.26.5-.52.76-.77.08-.08.07-.11,0-.16A1.94,1.94,0,0,0,11.21,13ZM4.94,6.06,4,7,5,7.88A1.82,1.82,0,0,0,4.94,6.06ZM8,4.18A1.66,1.66,0,0,0,8.8,4c.07,0,.12-.07,0-.14l-.78-.78C8,3,8,3,7.91,3.06c-.26.27-.52.53-.79.78-.07.08,0,.11,0,.15A1.7,1.7,0,0,0,8,4.18Zm6,6.12a1.86,1.86,0,0,0,.28.86l.38-.4s.06-.08,0-.11A4.54,4.54,0,0,1,14,10.3Z" transform="translate(-1.78 -2)" fill="#a09eb4"/><path d="M1.78,19.23V16.79c0-.41.13-.55.56-.55H5.76a.42.42,0,0,0,.36-.17,3.15,3.15,0,0,1,2-1.33,3.19,3.19,0,0,1,2.9,1,.58.58,0,0,0,.26.18l2.83,1A2,2,0,0,1,15.43,18c.05.11.11.07.18,0l2.8-.77a2.56,2.56,0,0,1,.91-.11,1.55,1.55,0,0,1,1.33,1,1.5,1.5,0,0,1-.28,1.64,2.22,2.22,0,0,1-.95.65L13,22.79a3.38,3.38,0,0,1-2.61-.11,27.61,27.61,0,0,1-2.65-1.37,2.69,2.69,0,0,0-1-.35c-.11,0-.17,0-.18.13s-.17.38-.44.38-.6,0-.9,0-.23,0-.2.2a.86.86,0,0,1,0,.16.39.39,0,0,1-.41.4H2.19c-.27,0-.41-.17-.41-.46Zm4.81-.78c0,.51,0,1,0,1.52,0,.12,0,.16.15.17a3.56,3.56,0,0,1,1.58.52c.31.19.63.36.94.53.51.28,1,.54,1.56.77a2.93,2.93,0,0,0,2.25-.05c2-.76,4.05-1.46,6.07-2.19a1.3,1.3,0,0,0,.59-.39.72.72,0,0,0,.2-.66.82.82,0,0,0-1.13-.61c-1.06.28-2.1.58-3.16.87a.2.2,0,0,0-.16.15,1.6,1.6,0,0,1-2.1,1.06l-2.07-.65L9.83,19a.42.42,0,0,1-.31-.45.41.41,0,0,1,.34-.36.66.66,0,0,1,.28,0l1.83.58,1.69.54a.8.8,0,0,0,.8-1.35,1.43,1.43,0,0,0-.55-.31l-3-1a.81.81,0,0,1-.37-.26,2.32,2.32,0,0,0-2.32-.85,2.48,2.48,0,0,0-1.58,1.2.32.32,0,0,0,0,.19Zm-4,.79c0,.67,0,1.34,0,2,0,.13,0,.17.17.17q.65,0,1.29,0c.12,0,.16,0,.16-.16v-4c0-.12,0-.16-.16-.16q-.64,0-1.29,0c-.14,0-.17,0-.17.17C2.61,17.9,2.6,18.57,2.6,19.24Zm3.17-.37V17.62c0-.59,0-.58-.59-.56-.11,0-.14,0-.14.14v3.32c0,.1,0,.14.13.14a3.08,3.08,0,0,1,.43,0c.14,0,.18,0,.17-.17Z" transform="translate(-1.78 -2)" fill="#a09eb4"/><path d="M16.51,7.47a.4.4,0,0,0-.4-.4.41.41,0,0,0-.42.41.42.42,0,0,0,.41.4A.41.41,0,0,0,16.51,7.47Z" transform="translate(-1.78 -2)" fill="#a09eb4"/><path d="M16.51,7.47a.41.41,0,0,1-.41.41.42.42,0,0,1-.41-.4.41.41,0,0,1,.42-.41A.4.4,0,0,1,16.51,7.47Z" transform="translate(-1.78 -2)" fill="#a09eb4"/><path d="M8.05,18.16a.39.39,0,0,1,.41-.41.41.41,0,1,1,0,.81A.4.4,0,0,1,8.05,18.16Z" transform="translate(-1.78 -2)" fill="#a09eb4"/></svg>