<?xml version="1.0" encoding="utf-8"?>
<!-- Generator: Adobe Illustrator 25.2.1, SVG Export Plug-In . SVG Version: 6.00 Build 0)  -->
<svg version="1.1" id="Layer_1" xmlns="http://www.w3.org/2000/svg" xmlns:xlink="http://www.w3.org/1999/xlink" x="0px" y="0px"
	 viewBox="0 0 22.3 22" style="enable-background:new 0 0 22.3 22;" xml:space="preserve">
<style type="text/css">
	.st0{fill:#595FAB;}
</style>
<path class="st0" d="M18.3,22c-0.9,0-1.8,0-2.7,0c-0.6,0.1-1.1-0.4-1.2-0.9c0-0.1,0-0.1,0-0.2c-0.1-0.4,0-0.8,0.2-1.2
	c0,0,0-0.1,0-0.1c-0.3-0.6-0.3-1.3,0-1.9c0-0.1,0-0.1,0-0.1c-0.3-0.6-0.3-1.3,0-1.9c0,0,0-0.1,0-0.1c-0.3-0.6-0.3-1.3,0-1.9
	c0,0,0-0.1,0-0.1c-0.3-0.6-0.3-1.3,0-1.9c0,0,0-0.1,0-0.1c-0.2-0.5-0.3-1.1-0.1-1.6c0.1-0.4,0.4-0.7,0.8-0.7h5.8
	c0.4,0,0.8,0.1,1,0.4c0.1,0.2,0.2,0.4,0.2,0.6c0.1,0.5,0,1-0.2,1.4c0,0,0,0.1,0,0.1c0.3,0.6,0.3,1.3,0,1.9c0,0.1,0,0.1,0,0.2
	c0.3,0.6,0.3,1.3,0,1.8c0,0.1,0,0.1,0,0.2c0.2,0.6,0.2,1.2,0,1.8c0,0.1,0,0.1,0,0.2c0.2,0.6,0.2,1.2,0,1.8c0,0.1,0,0.2,0,0.2
	c0.2,0.5,0.3,1.1,0.1,1.7c-0.2,0.4-0.6,0.7-1,0.6L18.3,22z M18.3,9.9h-2.7c-0.3,0-0.4,0.1-0.4,0.4v0.4c0,0.4,0.1,0.4,0.4,0.4h5.5
	c0.2,0,0.3-0.1,0.3-0.3v-0.5c0-0.4,0-0.4-0.4-0.4L18.3,9.9z M18.3,15.2h2.8c0.3,0,0.4-0.1,0.4-0.4v-0.5c0-0.4,0-0.4-0.4-0.4h-5.5
	c-0.3,0-0.3,0.1-0.3,0.3v0.5c0,0.3,0.1,0.4,0.4,0.4H18.3z M18.4,16h-2.8c-0.3,0-0.4,0.1-0.4,0.4v0.4c0,0.4,0,0.5,0.5,0.5h5.5
	c0.2,0,0.3-0.1,0.3-0.3v-0.5c0-0.4,0-0.4-0.4-0.4H18.4z M18.4,18h-2.8c-0.3,0-0.4,0.1-0.4,0.4v0.5c0,0.4,0.1,0.4,0.4,0.4h5.4
	c0.3,0,0.4-0.1,0.4-0.4v-0.5c0-0.3,0-0.4-0.4-0.4H18.4z M18.4,20h-2.8c-0.3,0-0.3,0.1-0.3,0.3v0.5c0,0.3,0.1,0.4,0.4,0.4h5.4
	c0.3,0,0.4-0.1,0.4-0.4v-0.5c0-0.3,0-0.4-0.4-0.4H18.4z M18.4,13.1h2.7c0.3,0,0.4-0.1,0.4-0.4s0-0.3,0-0.5c0-0.3,0-0.4-0.4-0.4h-5.5
	c-0.3,0-0.4,0.1-0.4,0.4v0.5c0,0.3,0.1,0.4,0.4,0.4L18.4,13.1z"/>
<path class="st0" d="M9.5,22H6.9c-0.6,0.1-1.2-0.3-1.2-0.9c0-0.1,0-0.2,0-0.3c-0.1-0.4,0-0.8,0.2-1.1c0.1-0.1,0-0.1,0-0.1
	c-0.1-0.2-0.2-0.4-0.1-0.6c0-0.2-0.1-0.1-0.2-0.1C2.7,19,0.3,17,0,14.3c0-0.3,0-0.6,0-0.9c0.1-0.8,0.3-1.6,0.8-2.3
	c0.2-0.2,0.4-0.3,0.6-0.2c0.2,0.1,0.2,0.4,0.1,0.6c0,0,0,0,0,0c-1.3,2-0.7,4.6,1.3,5.8c0.4,0.3,0.9,0.5,1.4,0.6c2.3,0.5,4.5-1,5-3.3
	s-1-4.5-3.3-5C5.6,9.6,5.3,9.6,5,9.6c-0.9,0-1.8,0.3-2.5,0.8l-0.1,0.1c-0.2,0.2-0.4,0.2-0.6,0c0,0,0,0,0,0c-0.1-0.2-0.1-0.4,0.1-0.6
	c0,0,0,0,0,0C2.5,9.5,3.1,9.2,3.8,9c2.7-0.7,5.5,1,6.2,3.8c0,0.2,0.1,0.3,0.1,0.5c0.1,0.6,0,1.2-0.1,1.8c-0.1,0.2,0,0.2,0.2,0.2h2.2
	c0.6-0.1,1.1,0.3,1.2,0.9c0,0.1,0,0.2,0,0.3c0.1,0.4,0,0.8-0.2,1.2c0,0.1,0,0.1,0,0.1c0.2,0.6,0.2,1.2,0,1.8c0,0.1-0.1,0.1,0,0.2
	c0.1,0.2,0.2,0.5,0.2,0.8v0.4c0,0.6-0.4,1.1-1,1.1c0,0-0.1,0-0.1,0H9.5z M9.5,20H6.8c-0.3,0-0.4,0.1-0.4,0.4s0,0.3,0,0.4
	c0,0.4,0.1,0.4,0.4,0.4h5.5c0.2,0,0.3-0.1,0.3-0.3s0-0.3,0-0.5c0-0.4-0.1-0.4-0.4-0.4L9.5,20z M9.5,19.2h2.8c0.3,0,0.4-0.1,0.4-0.3
	v-0.6c0-0.3-0.1-0.3-0.3-0.3H7.9c-0.1,0-0.2,0-0.3,0.1c-0.4,0.2-0.8,0.4-1.2,0.5c-0.1,0-0.1,0-0.1,0.1c-0.1,0.3,0.1,0.5,0.4,0.5
	L9.5,19.2z M8.7,17.2h3.6c0.3,0,0.4-0.1,0.4-0.4v-0.6c0-0.1-0.1-0.3-0.2-0.3c0,0,0,0-0.1,0H9.6c0,0-0.1,0-0.1,0
	C9.3,16.4,9,16.8,8.7,17.2L8.7,17.2z"/>
<path class="st0" d="M8.9,3.2V0.5C8.9,0.1,9.1,0,9.4,0h2.6c0.4,0,0.5,0.1,0.5,0.5c0,1.8,0,3.5,0,5.3c0,0.2,0,0.2,0.2,0.2
	s0.6,0,0.9,0c0.2,0,0.4,0.2,0.4,0.4c0,0.1,0,0.3-0.1,0.3l-3,2.5c-0.1,0.2-0.4,0.2-0.6,0c0,0,0,0,0,0L7.5,6.7
	C7.4,6.6,7.3,6.4,7.4,6.3C7.4,6.1,7.6,6,7.8,6c0.3,0,0.6,0,0.9,0s0.2,0,0.2-0.2C8.9,4.9,8.9,4,8.9,3.2z M8.9,6.8L8.9,6.8
	c0.6,0.6,1.2,1.1,1.7,1.6c0.1,0.1,0.2,0.1,0.3,0l1.7-1.4c0,0,0.1,0,0-0.1h-0.2c-0.5,0-0.6-0.1-0.6-0.6V1c0-0.2,0-0.2-0.2-0.2
	c-0.5,0-1.1,0-1.6,0c-0.2,0-0.2,0-0.2,0.2c0,0.6,0,1.2,0,1.7v3.6c0,0.3-0.1,0.4-0.4,0.5C9.1,6.8,9,6.8,8.9,6.8z"/>
<path class="st0" d="M5.4,12.3H4.8c-0.3,0-0.5,0.2-0.5,0.6c0,0.4,0.2,0.6,0.5,0.6h0.2c0.7,0,1.3,0.6,1.3,1.3c0,0.5-0.3,1-0.8,1.2
	c-0.1,0-0.1,0.1-0.1,0.2c0,0.1,0,0.3,0,0.4c0,0.2-0.3,0.3-0.5,0.3c-0.1,0-0.3-0.1-0.3-0.3c0-0.1,0-0.1,0-0.2c0-0.4,0-0.4-0.4-0.4
	c-0.1,0-0.1,0-0.2,0c-0.2,0-0.4-0.2-0.4-0.4c0,0,0,0,0,0c0-0.2,0.2-0.4,0.4-0.4c0,0,0,0,0,0h1.1c0.4,0,0.6-0.2,0.6-0.5
	s-0.2-0.5-0.6-0.5c-0.8,0-1.3-0.3-1.5-1c-0.2-0.7,0.2-1.5,0.9-1.7c0.1,0,0.1-0.1,0.1-0.2s0-0.3,0-0.4c0-0.2,0.2-0.4,0.4-0.4
	c0,0,0,0,0,0c0.2,0,0.4,0.1,0.4,0.3c0,0.1,0,0.2,0,0.3c0,0.2,0,0.3,0.3,0.3c0.1,0,0.2,0,0.4,0c0.2,0,0.4,0.2,0.4,0.4
	c0,0.2-0.2,0.4-0.4,0.4L5.4,12.3L5.4,12.3z"/>
</svg>
