<svg xmlns="http://www.w3.org/2000/svg" viewBox="0 0 22.29 22"><path d="M18.83,23c-.91,0-1.82,0-2.73,0a1.06,1.06,0,0,1-1.17-1.15,2,2,0,0,1,.2-1.21c0-.05,0-.07,0-.11a2.2,2.2,0,0,1,0-1.89c0-.07,0-.1,0-.15a2.29,2.29,0,0,1,0-1.85.14.14,0,0,0,0-.15,2.22,2.22,0,0,1,0-1.87.14.14,0,0,0,0-.15,2.22,2.22,0,0,1,0-1.87.12.12,0,0,0,0-.15,2.33,2.33,0,0,1-.12-1.6.94.94,0,0,1,.84-.73h5.75a1.1,1.1,0,0,1,1,.43.92.92,0,0,1,.2.57,2.37,2.37,0,0,1-.19,1.39s0,.07,0,.1a2.33,2.33,0,0,1,0,1.85.23.23,0,0,0,0,.18,2.25,2.25,0,0,1,0,1.85.17.17,0,0,0,0,.17,2.33,2.33,0,0,1,0,1.83.21.21,0,0,0,0,.19,2.37,2.37,0,0,1,0,1.81.24.24,0,0,0,0,.22,2.3,2.3,0,0,1,.07,1.67,1,1,0,0,1-1,.65Zm0-12.11H16.1c-.31,0-.38.07-.38.38v.44c0,.36.06.42.42.42h5.53c.19,0,.3-.1.29-.31V11.3c0-.36-.05-.42-.41-.42Zm0,5.27H21.6c.3,0,.36-.06.36-.36v-.47c0-.35,0-.4-.39-.4H16.06c-.26,0-.33.08-.34.34v.49c0,.34.06.4.4.4Zm.05.79h-2.8c-.28,0-.35.07-.36.35v.42c0,.42,0,.46.46.46h5.48c.2,0,.31-.09.3-.3v-.52c0-.37,0-.41-.4-.41Zm0,2H16.08c-.29,0-.35.07-.36.36v.45c0,.36.06.42.43.42h5.43c.31,0,.38-.07.38-.37v-.49c0-.32-.05-.37-.37-.37Zm0,2h-2.8c-.26,0-.33.07-.34.33v.5c0,.33.07.4.41.4h5.45c.32,0,.38-.07.38-.39v-.47c0-.32-.05-.37-.37-.37Zm0-6.85H21.6c.3,0,.36-.06.36-.36s0-.33,0-.49c0-.32-.05-.37-.37-.37h-5.5c-.3,0-.36.06-.37.35v.47c0,.34.06.4.4.4Z" transform="translate(-0.49 -1)" fill="#a09eb4"/><path d="M10,23H7.37a1.09,1.09,0,0,1-1.25-1.24,1.88,1.88,0,0,1,.19-1.14c.05-.07,0-.1,0-.15a1.09,1.09,0,0,1-.15-.56c0-.16-.07-.14-.18-.13A5,5,0,0,1,.51,14.39a4.92,4.92,0,0,1,.77-2.28c.16-.24.38-.31.58-.18a.4.4,0,0,1,.09.6,4.21,4.21,0,0,0,2.66,6.4,4.22,4.22,0,1,0,.91-8.35A4,4,0,0,0,3,11.41l-.12.09a.41.41,0,0,1-.59,0,.4.4,0,0,1,.11-.58,5,5,0,0,1,1.84-.94,5.1,5.1,0,0,1,6.24,4.22,4.75,4.75,0,0,1-.1,1.76c-.07.23,0,.24.2.23h2.16a1.06,1.06,0,0,1,1.2,1.19,1.9,1.9,0,0,1-.19,1.17c0,.07,0,.1,0,.15a2.37,2.37,0,0,1,0,1.81c0,.06-.08.1,0,.17a1.32,1.32,0,0,1,.18.8v.42A1.05,1.05,0,0,1,12.81,23Zm0-2H7.27c-.29,0-.36.07-.36.36s0,.3,0,.44c0,.37.07.43.43.43h5.51c.21,0,.32-.1.31-.32s0-.34,0-.52c0-.35-.05-.39-.4-.39Zm0-.79h2.75c.29,0,.37-.07.37-.33v-.57c0-.27-.07-.33-.34-.33H8.44a.46.46,0,0,0-.26.06A4.87,4.87,0,0,1,7,19.57c-.06,0-.11,0-.13.12-.06.32.08.5.41.5Zm-.83-2h3.6c.28,0,.35-.08.35-.35v-.59a.26.26,0,0,0-.29-.29h-2.7A.17.17,0,0,0,10,17,5,5,0,0,1,9.2,18.17Z" transform="translate(-0.49 -1)" fill="#a09eb4"/><path d="M9.41,4.15V1.52c0-.38.13-.52.52-.52h2.61c.38,0,.51.13.51.52,0,1.76,0,3.51,0,5.27,0,.17,0,.24.23.23s.62,0,.93,0a.4.4,0,0,1,.28.71l-3,2.55a.39.39,0,0,1-.58,0L8,7.73a.38.38,0,0,1-.14-.45A.41.41,0,0,1,8.29,7c.29,0,.59,0,.88,0s.25,0,.25-.24C9.41,5.9,9.41,5,9.41,4.15ZM9.35,7.79v.06c.58.5,1.16,1,1.74,1.52.12.1.19.08.3,0l1.67-1.44s.07,0,0-.1h-.22c-.53,0-.63-.11-.63-.63V2c0-.18,0-.24-.22-.24-.54,0-1.08,0-1.62,0-.17,0-.23,0-.22.21,0,.58,0,1.16,0,1.74V7.33c0,.31-.09.42-.39.46A3.53,3.53,0,0,1,9.35,7.79Z" transform="translate(-0.49 -1)" fill="#a09eb4"/><path d="M5.92,13.33H5.33c-.32,0-.49.25-.48.61s.19.55.52.56h.19A1.29,1.29,0,0,1,6,17c-.11,0-.12.09-.12.19a3.15,3.15,0,0,1,0,.44.38.38,0,0,1-.74,0,1.38,1.38,0,0,1,0-.2c0-.39,0-.39-.43-.39a1.21,1.21,0,0,1-.19,0,.39.39,0,0,1-.41-.38.39.39,0,0,1,.4-.4H5.58c.36,0,.55-.17.55-.48s-.19-.5-.56-.5c-.85,0-1.26-.28-1.45-1A1.37,1.37,0,0,1,5,12.59c.11,0,.12-.09.12-.18s0-.27,0-.41a.36.36,0,0,1,.38-.35.35.35,0,0,1,.37.32.83.83,0,0,1,0,.27c0,.24,0,.34.29.3a1.53,1.53,0,0,1,.37,0,.39.39,0,0,1,0,.78H5.92Z" transform="translate(-0.49 -1)" fill="#a09eb4"/></svg>