<?xml version="1.0" encoding="utf-8"?>
<!-- Generator: Adobe Illustrator 25.2.1, SVG Export Plug-In . SVG Version: 6.00 Build 0)  -->
<svg version="1.1" id="Layer_1" xmlns="http://www.w3.org/2000/svg" xmlns:xlink="http://www.w3.org/1999/xlink" x="0px" y="0px"
	 viewBox="0 0 24 24" style="enable-background:new 0 0 24 24;" xml:space="preserve">
<style type="text/css">
	.st0{fill:none;}
	.st1{fill:#A09EB4;}
</style>
<g>
	<path class="st0" d="M0,0h24v24H0V0z"/>
	<path class="st1" d="M12,2c5.5,0,10,4.5,10,10s-4.5,10-10,10c-2.3,0-4.6-0.8-6.4-2.3l-0.2-0.2l0.9-1.9c3.1,3.2,8.2,3.2,11.3,0.1
		s3.2-8.2,0.1-11.3S9.6,3.2,6.4,6.3C4.9,7.7,4.1,9.7,4,11.8L4,12h2.5l-2.7,5.7C2.6,16,2,14,2,12C2,6.5,6.5,2,12,2z M13,6v2h2.5v2H10
		c-0.3,0-0.5,0.2-0.5,0.5c0,0.2,0.2,0.4,0.4,0.5l0.1,0h4c1.4,0,2.5,1.1,2.5,2.5S15.4,16,14,16h-1v2h-2v-2H8.5v-2H14
		c0.3,0,0.5-0.2,0.5-0.5c0-0.2-0.2-0.4-0.4-0.5L14,13h-4c-1.4,0-2.5-1.1-2.5-2.5S8.6,8,10,8h1V6H13z"/>
</g>
</svg>
