<?xml version="1.0" encoding="utf-8"?>
<!-- Generator: Adobe Illustrator 25.2.1, SVG Export Plug-In . SVG Version: 6.00 Build 0)  -->
<svg version="1.1" id="Layer_1" xmlns="http://www.w3.org/2000/svg" xmlns:xlink="http://www.w3.org/1999/xlink" x="0px" y="0px"
	 viewBox="0 0 20.4 21" style="enable-background:new 0 0 20.4 21;" xml:space="preserve">
<style type="text/css">
	.st0{fill:#595FAB;}
</style>
<path class="st0" d="M12.4,0c0.2,0.1,0.4,0.2,0.6,0.3c0.1,0.1,0.3,0.1,0.4,0c0.6-0.3,1,0.1,1,0.8c0,0.4-0.2,0.7-0.3,1.1
	c-0.2,0.3-0.4,0.7-0.6,1c-0.1,0.1-0.1,0.1,0,0.2c0.2,0.2,0.3,0.5,0.3,0.8c0,0.1,0,0.2,0.1,0.3c0.3,0.2,0.6,0.5,0.9,0.7
	s0.2,0.3,0.1,0.5s-0.3,0.1-0.5,0L13.5,5c0,0-0.1-0.1-0.2,0c-0.4,0.2-0.9,0.4-1.4,0.4c-0.8,0.1-1.6,0-2.4-0.1c0,0-0.1,0-0.1,0
	C9.1,5,8.9,5.2,8.6,5.4C7.4,6.4,6.3,7.6,5.5,9c-0.6,1.1-0.9,2.3-0.8,3.5c0,0,0,0.1,0,0.1c0,0.3,0,0.3,0.3,0.4
	c0.6,0.2,1.2,0.5,1.7,0.8c0.6,0.3,1.2,0.5,1.9,0.6c1,0.1,2,0.2,3,0.4c0.9,0.2,1.6,1,1.6,1.9v0.1c0,0.1,0,0.1,0.1,0.1l3.6-1.6
	c0.1,0,0.1-0.1,0.2-0.2c0.6-1,0.9-2.3,0.8-3.5c-0.2-1.8-1.1-3.5-2.3-4.8c0-0.1-0.1-0.1-0.1-0.2c-0.1-0.1-0.1-0.3,0-0.4c0,0,0,0,0,0
	c0.1-0.1,0.3-0.1,0.4,0c0,0,0,0,0,0c0.1,0.2,0.3,0.3,0.4,0.5c1,1.1,1.7,2.5,2.1,4c0.3,1.3,0.2,2.7-0.3,4l0,0c0.1,0,0.2-0.1,0.3-0.1
	c0.3-0.2,0.7-0.2,1.1-0.1c0.5,0.1,0.8,0.5,0.9,1c0.1,0.5-0.1,1-0.5,1.3l-5.6,3.6c-0.6,0.4-1.3,0.6-2,0.6c-1.4,0-2.7,0-4.1,0
	c-0.7,0-1.5-0.1-2.2-0.4C5,20.3,4.2,20,3.4,19.7c-0.2-0.1-0.2,0-0.2,0.1c0,0.5-0.4,0.8-0.9,0.8H0.9c-0.5,0-0.9-0.3-0.9-0.8
	c0,0,0-0.1,0-0.1v-7.1c0-0.5,0.3-0.9,0.8-0.9c0,0,0.1,0,0.1,0h1.3c0.5,0,0.9,0.3,0.9,0.8c0,0,0,0.1,0,0.1c0,0.1,0,0.2,0.2,0.2H4
	c0.1,0,0.1,0,0.1-0.1c0-2.6,1.1-5.1,3-6.8C7.5,5.4,8,4.9,8.5,4.6l0.1-0.1c-0.9-0.1-1.8,0.3-2.4,1C6.1,5.6,5.9,5.7,5.8,5.6
	s-0.2-0.3,0-0.5c0.4-0.6,1.1-1,1.8-1.1c0.4-0.1,0.7-0.1,1.1-0.1C8.4,3.5,8,3.2,7.5,3.2c-0.3,0-0.6,0-0.9,0C6.2,3.2,5.8,3,5.4,2.8
	C5.2,2.7,5.1,2.5,5.2,2.3c0.1-0.1,0.3-0.2,0.4-0.1c0,0,0,0,0,0c0.4,0.3,0.9,0.4,1.5,0.3c0.6-0.1,1.3,0.1,1.7,0.6
	C9,3.2,9,3.3,9.1,3.2s0-0.1,0-0.2C8.7,2.5,8.4,1.9,8.3,1.2C8.2,1,8.2,0.7,8.3,0.5C8.3,0.2,8.6,0,8.9,0.1c0,0,0.1,0,0.1,0.1
	c0.2,0.1,0.6,0.1,0.8,0C9.9,0.1,10,0,10.1,0h0.4c0.2,0.1,0.4,0.2,0.6,0.3c0.1,0.1,0.2,0.1,0.4,0C11.6,0.2,11.8,0.1,12,0L12.4,0z
	 M0.6,16.1v3.5C0.6,19.9,0.7,20,1,20s0.8,0,1.2,0s0.4-0.1,0.4-0.4v-3.9c0-0.2,0.2-0.3,0.4-0.2c0.1,0,0.2,0.1,0.2,0.2
	c0,0.1,0,0.1,0,0.2c0,1,0,2,0,3c0,0.1,0.1,0.2,0.2,0.2l2.9,1.1c0.4,0.2,0.8,0.2,1.3,0.3h4.6c0.6,0,1.1-0.1,1.6-0.5
	c1.9-1.2,3.8-2.4,5.7-3.6c0.3-0.2,0.4-0.5,0.2-0.8c-0.1-0.3-0.4-0.5-0.7-0.4c-0.1,0-0.3,0.1-0.4,0.1l-5.4,2.4
	c-0.1,0.1-0.3,0.1-0.4,0.1h-2.2c-0.4,0-0.7,0-1.1,0c-0.2,0-0.3-0.1-0.3-0.3c0,0,0,0,0-0.1c0-0.2,0.1-0.3,0.4-0.3h2.7
	c0.4,0,0.4,0,0.4-0.4c0-0.7-0.5-1.2-1.1-1.3l-1.9-0.2C9,15,8.5,15,7.9,14.9c-0.6-0.1-1.2-0.4-1.8-0.8c-0.8-0.5-1.8-0.8-2.7-0.8
	c-0.2,0-0.2,0-0.2,0.2s0,0.4,0,0.6s-0.1,0.4-0.3,0.4s-0.3-0.1-0.3-0.4v-1.5c0-0.3-0.1-0.4-0.4-0.4H1c-0.3,0-0.4,0.1-0.4,0.4V16.1z
	 M11.3,3.2c0.5,0,0.9-0.1,1.4-0.2c0.1,0,0.1,0,0.1-0.1c0.2-0.4,0.5-0.8,0.7-1.2c0.1-0.3,0.2-0.6,0.3-0.9c0-0.1,0-0.2-0.1-0.1
	c-0.3,0.2-0.8,0.1-1.1-0.1c-0.2-0.2-0.5-0.2-0.7,0c-0.4,0.3-0.9,0.3-1.2,0c-0.2-0.2-0.5-0.2-0.7,0C9.7,0.9,9.4,0.9,9.1,0.8
	c-0.1,0-0.2-0.2-0.3,0s0,0.2,0,0.3v0.1C9.1,1.9,9.4,2.5,9.7,3c0,0.1,0.1,0.1,0.2,0.1C10.4,3.2,10.8,3.2,11.3,3.2z M11.2,4.7
	c0.1,0,0.2,0,0.3,0c0.5,0,0.9-0.1,1.4-0.2c0.2-0.1,0.3-0.3,0.3-0.5c0-0.2-0.2-0.3-0.4-0.3c0,0,0,0,0,0c-0.3,0.1-0.5,0.1-0.8,0.1
	c-0.7,0.1-1.5,0-2.2-0.1c-0.2,0-0.4,0-0.4,0.2C9.1,4.1,9.2,4.4,9.4,4.5c0,0,0.1,0,0.1,0.1C10.1,4.7,10.6,4.7,11.2,4.7z"/>
<path class="st0" d="M11,11.3c0-0.4,0-0.7,0-1.1c0-0.1,0-0.2-0.1-0.2l-0.4-0.2C9.7,9.4,9.5,8.5,9.9,7.9c0.1-0.1,0.2-0.3,0.3-0.4
	c0.2-0.2,0.4-0.3,0.6-0.3C10.9,7.2,11,7.1,11,7c0-0.1,0-0.2,0-0.3c0-0.2,0.1-0.3,0.3-0.3c0,0,0,0,0,0c0.2,0,0.3,0.1,0.3,0.3l0,0
	C11.5,7,11.7,7.1,12,7.2c0.2,0,0.4,0.1,0.5,0.3c0.2,0.1,0.2,0.3,0.1,0.4c0,0,0,0,0,0c-0.1,0.1-0.3,0.1-0.4,0c0,0,0,0,0,0
	c-0.1-0.1-0.3-0.2-0.5-0.2c-0.1,0-0.1,0-0.1,0.1c0,0.6,0,1.1,0,1.7c0,0.1,0,0.1,0.1,0.2c0.1,0,0.3,0.1,0.4,0.2c0.6,0.2,1,0.7,1,1.4
	c0.1,0.8-0.3,1.5-1,1.8c-0.1,0.1-0.2,0.1-0.3,0.1c-0.3,0-0.3,0.2-0.3,0.4c0,0.1,0,0.2,0,0.3c0,0.1-0.2,0.2-0.3,0.2c0,0,0,0,0,0
	c-0.1,0-0.3-0.1-0.3-0.3c0-0.2,0.1-0.4,0-0.5s-0.3-0.1-0.5-0.1c-0.3-0.1-0.5-0.2-0.8-0.4c-0.1-0.1-0.2-0.3-0.1-0.4c0,0,0,0,0,0
	c0.1-0.1,0.3-0.2,0.4-0.1c0,0,0,0,0,0c0.2,0.2,0.5,0.3,0.8,0.3c0.1,0,0.2,0,0.2-0.1C10.9,12,11,11.7,11,11.3z M11.6,12.5
	c0.5-0.1,0.8-0.6,0.9-1.1c0-0.5-0.3-0.9-0.7-1c-0.1,0-0.1-0.1-0.1,0.1C11.6,11.1,11.6,11.8,11.6,12.5z M11,9.4V8
	c0-0.2,0-0.2-0.2-0.1c-0.3,0.2-0.5,0.5-0.5,0.9C10.3,9.1,10.6,9.3,11,9.4z"/>
</svg>
