<svg xmlns="http://www.w3.org/2000/svg" viewBox="0 0 20.35 21"><path d="M14,1a3.38,3.38,0,0,1,.58.27.43.43,0,0,0,.41,0c.62-.26,1,.07,1,.75a3.33,3.33,0,0,1-.33,1.07,10.93,10.93,0,0,1-.6,1c-.06.09-.08.14,0,.23a1,1,0,0,1,.29.82.28.28,0,0,0,.13.29c.3.23.59.47.87.71s.23.35.09.5-.3.13-.49,0L15.14,6s-.08-.1-.16,0a2.85,2.85,0,0,1-1.42.38,7.92,7.92,0,0,1-2.43-.13.66.66,0,0,1-.15,0c-.31-.24-.51,0-.73.15A12,12,0,0,0,7.13,10a7,7,0,0,0-.84,3.48.62.62,0,0,0,0,.13c0,.32,0,.32.33.41a7.33,7.33,0,0,1,1.7.8,4.33,4.33,0,0,0,1.89.6c1,.1,2,.21,3,.36a1.87,1.87,0,0,1,1.55,1.88v.14c0,.11,0,.13.12.08l3.61-1.59a.33.33,0,0,0,.17-.16,5.25,5.25,0,0,0,.76-3.47,8.66,8.66,0,0,0-2.31-4.81A.83.83,0,0,1,17,7.66a.28.28,0,0,1,0-.4.29.29,0,0,1,.42,0c.15.15.28.31.41.46a9.41,9.41,0,0,1,2.08,4,6.31,6.31,0,0,1-.33,4v0c.13,0,.23-.06.34-.11A1.59,1.59,0,0,1,21,15.51a1.23,1.23,0,0,1,.91,1,1.2,1.2,0,0,1-.54,1.27l-5.65,3.58A3.62,3.62,0,0,1,13.7,22c-1.36,0-2.71,0-4.06,0a5.58,5.58,0,0,1-2.18-.39C6.65,21.28,5.82,21,5,20.68c-.15-.06-.19,0-.21.13a.87.87,0,0,1-.89.78H2.52a.87.87,0,0,1-.91-.92V13.58a.88.88,0,0,1,.94-.93h1.3a.88.88,0,0,1,.95.92c0,.12,0,.16.16.16l.61,0c.09,0,.12,0,.12-.1a9,9,0,0,1,3-6.8,13.14,13.14,0,0,1,1.42-1.27l.15-.12a2.81,2.81,0,0,0-2.43,1c-.13.21-.3.26-.46.15s-.18-.29,0-.49A2.83,2.83,0,0,1,9.13,5a5,5,0,0,1,1.13-.14A1.5,1.5,0,0,0,9.12,4.2c-.29,0-.58,0-.88,0A2.8,2.8,0,0,1,7,3.77c-.19-.12-.25-.29-.15-.45a.32.32,0,0,1,.47-.07,2.28,2.28,0,0,0,1.46.34,2.09,2.09,0,0,1,1.73.58c.06.06.1.1.18,0s0-.12,0-.17a6.07,6.07,0,0,1-.82-1.77,1.28,1.28,0,0,1,0-.75.51.51,0,0,1,.75-.31.68.68,0,0,0,.78-.05A1.68,1.68,0,0,1,11.7,1h.41a3,3,0,0,1,.58.26.34.34,0,0,0,.35,0c.19-.09.37-.19.55-.29ZM2.23,17.11v3.5c0,.29.08.36.36.36s.8,0,1.19,0,.41-.07.41-.4V16.65a.31.31,0,0,1,.61,0,1.21,1.21,0,0,1,0,.19c0,1,0,2,0,3A.22.22,0,0,0,5,20l2.94,1.09a3.64,3.64,0,0,0,1.26.26h4.55a2.92,2.92,0,0,0,1.63-.46c1.9-1.19,3.79-2.39,5.69-3.6a.67.67,0,0,0,.25-.81.64.64,0,0,0-.74-.41,1.9,1.9,0,0,0-.4.14l-5.41,2.37a.82.82,0,0,1-.43.09H12.17c-.37,0-.74,0-1.11,0a.31.31,0,0,1-.35-.34q0-.27.36-.27h2.69c.43,0,.43,0,.43-.44a1.3,1.3,0,0,0-1.12-1.31l-1.85-.21c-.58-.07-1.16-.12-1.73-.21a5.3,5.3,0,0,1-1.78-.76A5.56,5.56,0,0,0,5,14.35c-.16,0-.23,0-.22.19s0,.4,0,.6-.12.37-.31.38-.31-.14-.31-.38V13.62c0-.26-.1-.36-.36-.36H2.62c-.31,0-.39.08-.39.4ZM12.92,4.24A6.83,6.83,0,0,0,14.33,4c.07,0,.09,0,.12-.1a10.06,10.06,0,0,0,.66-1.15,2.81,2.81,0,0,0,.27-.85c0-.11,0-.17-.13-.11a1.06,1.06,0,0,1-1.07-.1.54.54,0,0,0-.66,0,1.07,1.07,0,0,1-1.22,0,.59.59,0,0,0-.73,0,1,1,0,0,1-.84.14c-.1,0-.22-.17-.3,0s0,.23,0,.35l0,.12A7.92,7.92,0,0,0,11.35,4a.23.23,0,0,0,.19.11A6.41,6.41,0,0,0,12.92,4.24Zm-.15,1.48c.11,0,.22,0,.33,0a5.58,5.58,0,0,0,1.35-.2A.42.42,0,0,0,14.73,5a.37.37,0,0,0-.48-.28c-.26.05-.52.1-.78.13a5.93,5.93,0,0,1-2.18-.14.35.35,0,0,0-.42.2.45.45,0,0,0,.3.67A5.78,5.78,0,0,0,12.77,5.72Z" transform="translate(-1.61 -1)" fill="#a09eb4"/><path d="M12.56,12.31c0-.35,0-.71,0-1.06a.18.18,0,0,0-.13-.2L12,10.81a1.42,1.42,0,0,1-.18-2.32,1.32,1.32,0,0,1,.62-.32c.11,0,.15-.07.14-.19a1.6,1.6,0,0,1,0-.31.29.29,0,0,1,.3-.3.3.3,0,0,1,.31.27s0,0,0,0c-.08.35.09.48.41.54a1.17,1.17,0,0,1,.54.28.31.31,0,0,1,.1.46.3.3,0,0,1-.45,0,2.2,2.2,0,0,0-.46-.23c-.11,0-.14,0-.14.11,0,.57,0,1.14,0,1.7,0,.11,0,.15.13.17a2.78,2.78,0,0,1,.4.16,1.48,1.48,0,0,1,1,1.37A1.78,1.78,0,0,1,13.72,14a.66.66,0,0,1-.26.11c-.27,0-.32.18-.29.41a.58.58,0,0,1,0,.26.27.27,0,0,1-.33.21.28.28,0,0,1-.26-.27c0-.17.07-.39,0-.49s-.32-.06-.49-.1a2.14,2.14,0,0,1-.75-.35.31.31,0,0,1-.11-.43.3.3,0,0,1,.43-.09,2.09,2.09,0,0,0,.79.32c.14,0,.17,0,.17-.15C12.55,13,12.56,12.67,12.56,12.31Zm.61,1.18a1.18,1.18,0,0,0,.88-1.06,1,1,0,0,0-.73-1c-.1,0-.15-.05-.15.09C13.18,12.15,13.17,12.81,13.17,13.49Zm-.61-3.07V9c0-.2,0-.22-.2-.11a.91.91,0,0,0-.46.87C11.93,10.12,12.23,10.26,12.56,10.42Z" transform="translate(-1.61 -1)" fill="#a09eb4"/></svg>