<?xml version="1.0" encoding="utf-8"?>
<!-- Generator: Adobe Illustrator 25.2.1, SVG Export Plug-In . SVG Version: 6.00 Build 0)  -->
<svg version="1.1" id="Layer_1" xmlns="http://www.w3.org/2000/svg" xmlns:xlink="http://www.w3.org/1999/xlink" x="0px" y="0px"
	 viewBox="0 0 17.6 16.2" style="enable-background:new 0 0 17.6 16.2;" xml:space="preserve">
<style type="text/css">
	.st0{fill:#F8F7FF;}
	.st1{fill:none;stroke:#595FAB;stroke-width:0.75;stroke-linecap:round;stroke-miterlimit:10;}
	.st2{fill:#595FAB;}
	.st3{fill:#A09EB4;}
</style>
<path class="st0" d="M17.6,5.6v5.6c0,0.6-0.4,1-1,1h-3l-1.7,2.6l-1.4-2v2c0,0.6-0.4,1-1,1H1.3c-0.6,0-1-0.4-1-1V3.5c0-1.7,1.3-3,3-3
	h6.2c0.6,0,1,0.4,1,1v3.1h6.1C17.2,4.6,17.6,5,17.6,5.6z"/>
<path class="st1" d="M10.4,7.9H12c0.5,0,0.9,0.3,0.9,0.8v0.1c0,0.8-0.9,0.8-0.9,0.8h-1.8c-0.2,0-0.4,0.1-0.6,0.1
	c-0.3,0.1-0.5,0.5-0.4,0.8c0,0.8,1,0.9,1,0.9h2.9"/>
<path class="st1" d="M9.9,7l0.5-0.8c0.1-0.2,0.1-0.3,0.1-0.5c-0.1-0.2-0.3-0.4-0.6-0.4l0,0c-0.3,0-0.5,0.2-0.5,0.5c0,0,0,0.1,0,0.1
	c0,0.1,0,0.2,0.1,0.3L9.9,7z"/>
<path class="st1" d="M14.1,11.4l0.5-0.8c0.1-0.2,0.1-0.3,0.1-0.5c-0.1-0.2-0.3-0.4-0.6-0.4l0,0c-0.3,0-0.5,0.2-0.5,0.5
	c0,0,0,0.1,0,0.1c0,0.1,0,0.2,0.1,0.3L14.1,11.4z"/>
<path class="st2" d="M17,5.4c0-0.2-0.1-0.3-0.2-0.4l-0.1-0.1c-0.2-0.1-0.3-0.1-0.5-0.1H7.5c-0.2,0-0.4,0-0.5,0.1
	c-0.1,0-0.1,0-0.1,0.1C6.7,5.1,6.6,5.3,6.6,5.5v5.8l0,0v0.1c0,0.1,0,0.2,0.1,0.3v0.1c0,0.1,0,0.1,0.1,0.1c0,0,0,0,0,0
	C6.8,12,6.9,12,7,12c0.1,0.1,0.3,0.1,0.5,0.1h2.7c0.2,0,0.3,0.1,0.4,0.2c0.4,0.7,0.8,1.4,1.3,2.1c0,0.1,0,0.1,0.1,0.1h0
	c0.3-0.4,0.5-0.9,0.8-1.3c0.2-0.3,0.4-0.6,0.5-0.9c0.1-0.1,0.2-0.2,0.3-0.2h2.7c0.4,0,0.8-0.3,0.8-0.7c0,0,0-0.1,0-0.1V9
	c0-0.2,0.1-0.3,0.2-0.3c0.1,0,0.3,0.1,0.3,0.2c0,0,0,0,0,0.1v2.3c0,0.7-0.5,1.3-1.2,1.3c0,0-0.1,0-0.1,0h-2.5c-0.1,0-0.1,0-0.2,0.1
	c-0.5,0.8-0.9,1.6-1.4,2.4c-0.2,0.3-0.4,0.3-0.5,0c-0.3-0.6-0.7-1.1-1-1.7c0-0.1,0-0.1-0.1-0.1h0v1.6c0.1,0.7-0.4,1.2-1.1,1.3
	c-0.1,0-0.1,0-0.2,0H1.4c-0.7,0.1-1.2-0.4-1.3-1.1c0-0.1,0-0.1,0-0.2v-0.4c0-0.1,0.1-0.3,0.2-0.3c0,0,0,0,0.1,0
	c0.1,0,0.2,0.1,0.3,0.3v0.4c0,0.4,0.3,0.8,0.7,0.8c0,0,0.1,0,0.1,0h7.9c0.4,0,0.8-0.3,0.8-0.7c0,0,0-0.1,0-0.1v-2.2
	c0-0.1,0-0.1-0.1-0.1H7.7c-0.6,0-1.1-0.3-1.3-0.8h-5c-0.2,0-0.3-0.1-0.3-0.2s0.1-0.3,0.2-0.3h4.5c0.2,0,0.2,0,0.2-0.2v-0.8
	c0-0.1,0-0.1-0.1-0.1H1.3C1.1,10.2,1,10.1,1,9.9s0.1-0.3,0.3-0.3h4.5c0.1,0,0.2,0,0.2-0.2V8.6c0-0.1,0-0.1-0.1-0.1H1.3
	c-0.1,0-0.2-0.1-0.2-0.2c0-0.1,0.1-0.2,0.2-0.3H6c0.1,0.1,0.1,0.1,0.1,0V7.2c0-0.1,0-0.1-0.1-0.1H1.5C1.3,7,1.2,6.9,1.2,6.8
	c0-0.2,0.1-0.3,0.4-0.3H6c0.1,0,0.1,0,0.1-0.1V5.5c0-0.1,0-0.1-0.1-0.1H1.4c-0.1,0-0.2-0.1-0.2-0.3c0-0.1,0.1-0.2,0.2-0.2h4.7
	c0.1,0,0.1,0,0.2-0.1C6.5,4.4,7,4.2,7.4,4.2h2.4c0.1,0,0.1,0,0.1-0.1V2.9c0-0.2,0.1-0.3,0.3-0.3s0.3,0.1,0.3,0.3v1.2
	c0,0.1,0,0.1,0.1,0.1h5.6c0.7,0,1.3,0.5,1.3,1.2c0,0,0,0.1,0,0.1v2.3c0,0.1,0,0.2-0.1,0.2l-0.1,0.1c-0.3,0-0.4-0.1-0.4-0.3V5.5
	C17,5.5,17,5.5,17,5.4z"/>
<path class="st3" d="M17,5.4v0.1C16.9,5.5,16.9,5.4,17,5.4z"/>
<path class="st3" d="M16.6,4.9L16.6,4.9C16.7,5,16.6,5,16.6,4.9z"/>
<path class="st3" d="M17.3,8.2l0.1-0.1C17.5,8.2,17.4,8.2,17.3,8.2z"/>
<path class="st3" d="M6.6,11.5"/>
<path class="st3" d="M6.7,11.8L6.7,11.8C6.8,11.7,6.8,11.8,6.7,11.8z"/>
<path class="st2" d="M0,8.1V2.8c0-0.1,0-0.2,0.1-0.3l2.4-2.4C2.6,0,2.7,0,2.9,0h6.3c0.7-0.1,1.2,0.4,1.3,1.1c0,0.1,0,0.1,0,0.2v0.4
	c0,0.1-0.1,0.3-0.2,0.3c0,0,0,0-0.1,0C10.1,2,10,1.9,9.9,1.7V1.2c0-0.4-0.3-0.7-0.7-0.7c0,0,0,0,0,0H3.1C3,0.5,3,0.5,3,0.6v1.1
	C3,2.4,2.4,3,1.7,3H0.6C0.5,3,0.5,3,0.5,3.1v10.3c0,0.2-0.1,0.3-0.2,0.3S0,13.6,0,13.5C0,13.5,0,8.1,0,8.1z M2.5,0.9
	c-0.5,0.5-1,1-1.6,1.5h0.9c0.3,0,0.6-0.3,0.7-0.6V0.9z"/>
<path class="st2" d="M3.5,12.9h2c0.1,0,0.2,0,0.2,0.1v0.3c-0.1,0.1-0.2,0.1-0.3,0.1h-4c-0.2,0-0.3-0.1-0.3-0.2
	c0-0.1,0.1-0.3,0.2-0.3c0,0,0,0,0.1,0C1.4,12.9,3.5,12.9,3.5,12.9z"/>
</svg>
