<svg xmlns="http://www.w3.org/2000/svg" viewBox="0 0 17.6 16.2"><path d="M18.5,6.8v5.64a1,1,0,0,1-1,1h-3L12.81,16,11.4,14v2a1,1,0,0,1-1,1H2.24a1,1,0,0,1-1-1V4.73a3,3,0,0,1,3-3H10.4a1,1,0,0,1,1,1V5.8h6.1A1,1,0,0,1,18.5,6.8Z" transform="translate(-0.9 -1.2)" fill="#f8f7ff"/><path d="M11.3,9.1h1.6a.88.88,0,0,1,.9.8V10c0,.8-.9.8-.9.8H11.1c-.2,0-.4.1-.6.1a.74.74,0,0,0-.4.8c0,.8,1,.9,1,.9H14" transform="translate(-0.9 -1.2)" fill="none" stroke="#a09eb4" stroke-linecap="round" stroke-miterlimit="10" stroke-width="0.75"/><path d="M10.8,8.2l.5-.8a1.09,1.09,0,0,0,.1-.5.68.68,0,0,0-.6-.4h0a.5.5,0,0,0-.5.6.37.37,0,0,0,.1.3Z" transform="translate(-0.9 -1.2)" fill="none" stroke="#a09eb4" stroke-linecap="round" stroke-miterlimit="10" stroke-width="0.75"/><path d="M15,12.6l.5-.8a1.09,1.09,0,0,0,.1-.5.68.68,0,0,0-.6-.4h0a.5.5,0,0,0-.5.6.37.37,0,0,0,.1.3Z" transform="translate(-0.9 -1.2)" fill="none" stroke="#a09eb4" stroke-linecap="round" stroke-miterlimit="10" stroke-width="0.75"/><path d="M17.9,6.6a.52.52,0,0,0-.2-.4l-.1-.1a1.09,1.09,0,0,0-.5-.1H8.4a.75.75,0,0,0-.5.1.1.1,0,0,0-.1.1.55.55,0,0,0-.3.5v5.8h0v.1a.37.37,0,0,0,.1.3V13a.1.1,0,0,0,.1.1c0,.1.1.1.2.1a.75.75,0,0,0,.5.1h2.7a.52.52,0,0,1,.4.2,23.92,23.92,0,0,0,1.3,2.1.1.1,0,0,0,.1.1c.3-.4.5-.9.8-1.3a4.05,4.05,0,0,0,.5-.9c.1-.1.2-.2.3-.2h2.7a.74.74,0,0,0,.8-.8V10.2c0-.2.1-.3.2-.3a.27.27,0,0,1,.3.3v2.3a1.26,1.26,0,0,1-1.3,1.3H14.7c-.1,0-.1,0-.2.1-.5.8-.9,1.6-1.4,2.4-.2.3-.4.3-.5,0-.3-.6-.7-1.1-1-1.7a.1.1,0,0,0-.1-.1v1.6a1.21,1.21,0,0,1-1.3,1.3H2.3A1.21,1.21,0,0,1,1,16.1v-.4a.27.27,0,0,1,.3-.3q.15,0,.3.3v.4a.74.74,0,0,0,.8.8h7.9a.74.74,0,0,0,.8-.8V13.9c0-.1,0-.1-.1-.1H8.6A1.34,1.34,0,0,1,7.3,13h-5c-.2,0-.3-.1-.3-.2s.1-.3.2-.3H6.7c.2,0,.2,0,.2-.2v-.8c0-.1,0-.1-.1-.1H2.2a.3.3,0,0,1,0-.6H6.7c.1,0,.2,0,.2-.2V9.8c0-.1,0-.1-.1-.1H2.2A.22.22,0,0,1,2,9.5c0-.1.1-.2.2-.3H6.9c.1.1.1.1.1,0V8.4c0-.1,0-.1-.1-.1H2.4q-.3-.15-.3-.3c0-.2.1-.3.4-.3H6.9c.1,0,.1,0,.1-.1V6.7c0-.1,0-.1-.1-.1H2.3c-.1,0-.2-.1-.2-.3a.22.22,0,0,1,.2-.2H7c.1,0,.1,0,.2-.1a1.25,1.25,0,0,1,1.1-.6h2.4c.1,0,.1,0,.1-.1V4.1a.3.3,0,1,1,.6,0V5.3c0,.1,0,.1.1.1h5.6a1.26,1.26,0,0,1,1.3,1.3V9c0,.1,0,.2-.1.2l-.1.1c-.3,0-.4-.1-.4-.3V6.7A.1.1,0,0,0,17.9,6.6Z" transform="translate(-0.9 -1.2)" fill="#a09eb4"/><path d="M17.9,6.6v.1C17.8,6.7,17.8,6.6,17.9,6.6Z" transform="translate(-0.9 -1.2)" fill="#a09eb4"/><path d="M17.5,6.1h0C17.6,6.2,17.5,6.2,17.5,6.1Z" transform="translate(-0.9 -1.2)" fill="#a09eb4"/><path d="M18.2,9.4l.1-.1C18.4,9.4,18.3,9.4,18.2,9.4Z" transform="translate(-0.9 -1.2)" fill="#a09eb4"/><path d="M7.5,12.7Z" transform="translate(-0.9 -1.2)" fill="#a09eb4"/><path d="M7.6,13h0C7.7,12.9,7.7,13,7.6,13Z" transform="translate(-0.9 -1.2)" fill="#a09eb4"/><path d="M.9,9.3V4A.37.37,0,0,1,1,3.7L3.4,1.3c.1-.1.2-.1.4-.1h6.3a1.21,1.21,0,0,1,1.3,1.3v.4a.27.27,0,0,1-.3.3q-.15,0-.3-.3V2.4a.68.68,0,0,0-.7-.7H4c-.1,0-.1,0-.1.1V2.9A1.32,1.32,0,0,1,2.6,4.2H1.5c-.1,0-.1,0-.1.1V14.6c0,.2-.1.3-.2.3s-.3-.1-.3-.2V9.3ZM3.4,2.1c-.5.5-1,1-1.6,1.5h.9A.86.86,0,0,0,3.4,3Z" transform="translate(-0.9 -1.2)" fill="#a09eb4"/><path d="M4.4,14.1h2c.1,0,.2,0,.2.1v.3a.37.37,0,0,1-.3.1h-4c-.2,0-.3-.1-.3-.2a.27.27,0,0,1,.3-.3H4.4Z" transform="translate(-0.9 -1.2)" fill="#a09eb4"/></svg>