<?xml version="1.0" encoding="utf-8"?>
<!-- Generator: Adobe Illustrator 25.2.1, SVG Export Plug-In . SVG Version: 6.00 Build 0)  -->
<svg version="1.1" id="Layer_1" xmlns="http://www.w3.org/2000/svg" xmlns:xlink="http://www.w3.org/1999/xlink" x="0px" y="0px"
	 viewBox="0 0 19.5 21.9" style="enable-background:new 0 0 19.5 21.9;" xml:space="preserve">
<style type="text/css">
	.st0{fill:none;stroke:#595FAB;stroke-width:1.5;stroke-linecap:round;}
	.st1{fill:#F8F7FF;stroke:#595FAB;stroke-width:1.2;stroke-linecap:round;}
</style>
<path class="st0" d="M4.7,8.9h5.2c1.6-0.1,3,1.2,3.1,2.8c0,0.1,0,0.2,0,0.4c0.1,2.6-3.1,2.7-3.1,2.7l-6,0.1c-0.7,0-1.3,0.2-1.9,0.5
	c-1,0.5-1.5,1.5-1.4,2.6c0.2,2.7,3.3,3,3.3,3h9.7"/>
<path class="st1" d="M3,6.1l1.5-2.5C4.9,3.1,5,2.4,4.8,1.8C4.6,1,3.8,0.5,2.9,0.6l0,0c-1,0-1.8,0.9-1.8,2c0,0.3,0.1,0.7,0.3,0.9
	L3,6.1z"/>
<path class="st1" d="M17.1,20.8l1.5-2.5c0.3-0.5,0.4-1.2,0.2-1.8c-0.2-0.8-1-1.3-1.8-1.2h-0.1c-1,0-1.9,0.9-1.8,1.9
	c0,0.3,0.1,0.7,0.3,1L17.1,20.8z"/>
</svg>
