<svg xmlns="http://www.w3.org/2000/svg" viewBox="0 0 19.68 21.94"><path d="M4.72,8.91H10A2.92,2.92,0,0,1,13,11.7a2,2,0,0,1,0,.35c.06,2.64-3.06,2.74-3.06,2.74l-6,.09a4,4,0,0,0-1.91.5A2.71,2.71,0,0,0,.61,18c.16,2.66,3.3,3,3.3,3h9.75" transform="translate(0.15 0.01)" fill="none" stroke="#a09eb4" stroke-linecap="round" stroke-width="1.5"/><path d="M3,6.13,4.54,3.62a2.19,2.19,0,0,0,.24-1.78A1.72,1.72,0,0,0,2.94.6H2.87a1.88,1.88,0,0,0-1.79,2,1.93,1.93,0,0,0,.3.93Z" transform="translate(0.15 0.01)" fill="#f8f7ff" stroke="#a09eb4" stroke-linecap="round" stroke-width="1.2"/><path d="M17.08,20.8l1.52-2.51a2.22,2.22,0,0,0,.24-1.78A1.71,1.71,0,0,0,17,15.27h-.07a1.89,1.89,0,0,0-1.83,1.95,1.92,1.92,0,0,0,.29,1Z" transform="translate(0.15 0.01)" fill="#f8f7ff" stroke="#a09eb4" stroke-linecap="round" stroke-width="1.2"/></svg>