<?xml version="1.0" encoding="utf-8"?>
<!-- Generator: Adobe Illustrator 25.2.1, SVG Export Plug-In . SVG Version: 6.00 Build 0)  -->
<svg version="1.1" id="Layer_1" xmlns="http://www.w3.org/2000/svg" xmlns:xlink="http://www.w3.org/1999/xlink" x="0px" y="0px"
	 viewBox="0 0 19.5 21.9" style="enable-background:new 0 0 19.5 21.9;" xml:space="preserve">
<style type="text/css">
	.st0{fill:none;stroke:#A09EB4;stroke-width:0.5;stroke-linecap:round;stroke-miterlimit:10;}
	.st1{fill:#A09EB4;}
</style>
<path class="st0" d="M11.3,9.1h1.6c0.5,0,0.9,0.4,0.9,0.8c0,0,0,0.1,0,0.1c0,0.8-0.9,0.8-0.9,0.8l-1.8,0c-0.2,0-0.4,0.1-0.6,0.1
	c-0.3,0.2-0.5,0.5-0.4,0.8c0,0.8,1,0.9,1,0.9H14"/>
<path class="st0" d="M10.8,8.2l0.5-0.8c0.1-0.2,0.1-0.4,0.1-0.5c-0.1-0.2-0.3-0.4-0.6-0.4h0c-0.3,0-0.6,0.3-0.5,0.6
	c0,0.1,0,0.2,0.1,0.3L10.8,8.2z"/>
<path class="st0" d="M15,12.6l0.5-0.8c0.1-0.2,0.1-0.4,0.1-0.5c-0.1-0.2-0.3-0.4-0.6-0.4h0c-0.3,0-0.6,0.3-0.5,0.6
	c0,0.1,0,0.2,0.1,0.3L15,12.6z"/>
<g>
	<path class="st1" d="M17.9,6.6c0-0.2-0.1-0.3-0.2-0.4c0,0-0.1-0.1-0.1-0.1C17.4,6,17.2,6,17.1,6c-0.9,0-1.9,0-2.8,0
		c-2,0-3.9,0-5.9,0C8.2,6,8,6,7.9,6.1c-0.1,0-0.1,0.1-0.1,0.1C7.6,6.3,7.5,6.5,7.5,6.7c0,1.9,0,3.9,0,5.8c0,0,0,0,0,0c0,0,0,0,0,0.1
		c0,0.1,0,0.2,0.1,0.3c0,0,0,0.1,0,0.1c0,0.1,0.1,0.1,0.1,0.1c0,0.1,0.1,0.1,0.2,0.1c0.1,0.1,0.3,0.1,0.5,0.1c0.9,0,1.8,0,2.7,0
		c0.2,0,0.3,0.1,0.4,0.2c0.4,0.7,0.8,1.4,1.3,2.1c0,0,0,0.1,0.1,0.1c0.3-0.4,0.5-0.9,0.8-1.3c0.2-0.3,0.4-0.6,0.5-0.9
		c0.1-0.1,0.2-0.2,0.3-0.2c0.9,0,1.8,0,2.7,0c0.5,0,0.8-0.3,0.8-0.8c0-0.8,0-1.5,0-2.3c0-0.2,0.1-0.3,0.2-0.3c0.2,0,0.3,0.1,0.3,0.3
		c0,0.4,0,0.8,0,1.2c0,0.4,0,0.8,0,1.1c0,0.8-0.6,1.3-1.3,1.3c-0.8,0-1.7,0-2.5,0c-0.1,0-0.1,0-0.2,0.1c-0.5,0.8-0.9,1.6-1.4,2.4
		c-0.2,0.3-0.4,0.3-0.5,0c-0.3-0.6-0.7-1.1-1-1.7c0,0,0-0.1-0.1-0.1c0,0,0,0.1,0,0.1c0,0.5,0,1,0,1.5c0,0.8-0.5,1.3-1.3,1.3
		c-2.6,0-5.2,0-7.9,0c-0.8,0-1.3-0.5-1.3-1.3c0-0.1,0-0.3,0-0.4c0-0.2,0.1-0.3,0.3-0.3c0.1,0,0.2,0.1,0.3,0.3c0,0.1,0,0.3,0,0.4
		c0,0.5,0.3,0.8,0.8,0.8c2.4,0,4.7,0,7.1,0c0.3,0,0.5,0,0.8,0c0.5,0,0.8-0.3,0.8-0.8c0-0.7,0-1.5,0-2.2c0-0.1,0-0.1-0.1-0.1
		c-0.8,0-1.6,0-2.4,0c-0.6,0-1.1-0.3-1.3-0.8C7.1,13,7,13,7,13c-1.2,0-2.4,0-3.7,0c-0.3,0-0.6,0-1,0c-0.2,0-0.3-0.1-0.3-0.2
		c0-0.1,0.1-0.3,0.2-0.3c0,0,0,0,0.1,0c0.1,0,0.2,0,0.2,0c1.4,0,2.8,0,4.2,0c0.2,0,0.2,0,0.2-0.2c0-0.3,0-0.5,0-0.8
		c0-0.1,0-0.1-0.1-0.1c-1.5,0-3,0-4.5,0c0,0,0,0-0.1,0c-0.2,0-0.3-0.1-0.3-0.3c0-0.2,0.1-0.3,0.3-0.3c1.5,0,3,0,4.5,0
		c0.1,0,0.2,0,0.2-0.2c0-0.3,0-0.5,0-0.8c0-0.1,0-0.1-0.1-0.1c-1.5,0-3,0-4.5,0c0,0-0.1,0-0.1,0c-0.1,0-0.2-0.1-0.2-0.2
		c0-0.1,0.1-0.2,0.2-0.3c0.1,0,0.1,0,0.2,0c1.5,0,3,0,4.5,0C7,9.3,7,9.3,7,9.2c0-0.3,0-0.5,0-0.8c0-0.1,0-0.1-0.1-0.1
		c-1.5,0-3,0-4.5,0C2.2,8.2,2.1,8.1,2.1,8c0-0.2,0.1-0.3,0.4-0.3c1.5,0,3,0,4.4,0C7,7.7,7,7.7,7,7.6C7,7.3,7,7,7,6.7
		c0-0.1,0-0.1-0.1-0.1c-1.5,0-3,0-4.5,0c0,0-0.1,0-0.1,0c-0.1,0-0.2-0.1-0.2-0.3c0-0.1,0.1-0.2,0.2-0.2c0,0,0.1,0,0.1,0
		c1.5,0,3.1,0,4.6,0c0.1,0,0.1,0,0.2-0.1c0.3-0.4,0.6-0.6,1.1-0.6c0.8,0,1.6,0,2.4,0c0.1,0,0.1,0,0.1-0.1c0-0.4,0-0.8,0-1.2
		c0-0.2,0.1-0.3,0.3-0.3c0.2,0,0.3,0.1,0.3,0.3c0,0.4,0,0.8,0,1.2c0,0.1,0,0.1,0.1,0.1c1.9,0,3.7,0,5.6,0c0.8,0,1.3,0.6,1.3,1.3
		c0,0.8,0,1.5,0,2.3c0,0.1,0,0.2-0.1,0.2c0,0-0.1,0.1-0.1,0.1c-0.3,0-0.4-0.1-0.4-0.3c0-0.8,0-1.6,0-2.3C17.9,6.7,17.9,6.6,17.9,6.6
		z"/>
	<path class="st1" d="M17.9,6.6c0,0,0,0.1,0,0.1C17.8,6.7,17.8,6.6,17.9,6.6z"/>
	<path class="st1" d="M17.5,6.1C17.6,6.1,17.6,6.1,17.5,6.1C17.6,6.2,17.5,6.2,17.5,6.1z"/>
	<path class="st1" d="M18.2,9.4c0,0,0.1-0.1,0.1-0.1C18.4,9.4,18.3,9.4,18.2,9.4z"/>
	<path class="st1" d="M7.5,12.7C7.5,12.7,7.5,12.6,7.5,12.7C7.6,12.6,7.6,12.6,7.5,12.7C7.6,12.7,7.6,12.7,7.5,12.7z"/>
	<path class="st1" d="M7.6,13C7.6,13,7.6,13,7.6,13C7.7,12.9,7.7,13,7.6,13z"/>
	<path class="st1" d="M0.9,9.3c0-1.8,0-3.5,0-5.3c0-0.1,0-0.2,0.1-0.3c0.8-0.8,1.6-1.6,2.4-2.4c0.1-0.1,0.2-0.1,0.4-0.1
		c2.1,0,4.2,0,6.3,0c0.8,0,1.3,0.5,1.3,1.3c0,0.1,0,0.3,0,0.4c0,0.2-0.1,0.3-0.3,0.3c-0.1,0-0.2-0.1-0.3-0.3c0-0.2,0-0.3,0-0.5
		c0-0.4-0.3-0.7-0.7-0.7c-2,0-4.1,0-6.1,0c-0.1,0-0.1,0-0.1,0.1c0,0.4,0,0.7,0,1.1c0,0.7-0.6,1.3-1.3,1.3c-0.4,0-0.7,0-1.1,0
		c-0.1,0-0.1,0-0.1,0.1c0,1.7,0,3.3,0,5c0,1.8,0,3.6,0,5.3c0,0.2-0.1,0.3-0.2,0.3c-0.1,0-0.3-0.1-0.3-0.2c0,0,0-0.1,0-0.1
		C0.9,12.8,0.9,11,0.9,9.3z M3.4,2.1c-0.5,0.5-1,1-1.6,1.5c0.3,0,0.6,0,0.9,0C3,3.6,3.3,3.3,3.4,3C3.4,2.7,3.4,2.4,3.4,2.1z"/>
	<path class="st1" d="M4.4,14.1c0.7,0,1.3,0,2,0c0.1,0,0.2,0,0.2,0.1c0,0.1,0,0.2,0,0.3c-0.1,0.1-0.2,0.1-0.3,0.1
		c-0.4,0-0.8,0-1.2,0c-0.9,0-1.8,0-2.8,0c-0.2,0-0.3-0.1-0.3-0.2c0-0.2,0.1-0.3,0.3-0.3c0.6,0,1.3,0,1.9,0
		C4.3,14.1,4.4,14.1,4.4,14.1z"/>
</g>
</svg>
