<svg xmlns="http://www.w3.org/2000/svg" viewBox="0 0 19.53 21.93"><path d="M7.34,9.92h5.23a2.93,2.93,0,0,1,3.06,3.14c.06,2.64-3.06,2.74-3.06,2.74l-6,.09a4,4,0,0,0-1.91.5A2.71,2.71,0,0,0,3.23,19c.16,2.66,3.3,3,3.3,3h9.75" transform="translate(-2.62 -1.01)" fill="none" stroke="#a09eb4" stroke-linecap="round" stroke-width="1.2"/><path d="M5.65,7.14,7.16,4.63A2.19,2.19,0,0,0,7.4,2.85,1.72,1.72,0,0,0,5.56,1.61H5.49A1.88,1.88,0,0,0,4,4.51Z" transform="translate(-2.62 -1.01)" fill="none" stroke="#a09eb4" stroke-linecap="round" stroke-width="1.2"/><path d="M19.7,21.81l1.52-2.51a2.23,2.23,0,0,0,.24-1.78,1.72,1.72,0,0,0-1.85-1.24h-.07A1.89,1.89,0,0,0,18,19.18Z" transform="translate(-2.62 -1.01)" fill="none" stroke="#a09eb4" stroke-linecap="round" stroke-width="1.2"/></svg>