<?xml version="1.0" encoding="utf-8"?>
<!-- Generator: Adobe Illustrator 25.2.1, SVG Export Plug-In . SVG Version: 6.00 Build 0)  -->
<svg version="1.1" id="Layer_1" xmlns="http://www.w3.org/2000/svg" xmlns:xlink="http://www.w3.org/1999/xlink" x="0px" y="0px"
	 viewBox="0 0 21 13.6" style="enable-background:new 0 0 21 13.6;" xml:space="preserve">
<style type="text/css">
	.st0{filter:url(#Adobe_OpacityMaskFilter);}
	.st1{fill-rule:evenodd;clip-rule:evenodd;fill:#FFFFFF;}
	.st2{mask:url(#a_1_);}
	.st3{fill-rule:evenodd;clip-rule:evenodd;fill:#595FAB;}
	.st4{fill:#FFFFFF;stroke:#595FAB;stroke-width:0.75;stroke-linecap:round;stroke-miterlimit:10;}
	.st5{fill:none;stroke:#595FAB;stroke-width:0.3;stroke-linecap:round;stroke-miterlimit:10;}
</style>
<defs>
	<filter id="Adobe_OpacityMaskFilter" filterUnits="userSpaceOnUse" x="2.5" y="0" width="18.4" height="13.2">
		<feColorMatrix  type="matrix" values="1 0 0 0 0  0 1 0 0 0  0 0 1 0 0  0 0 0 1 0"/>
	</filter>
</defs>
<mask maskUnits="userSpaceOnUse" x="2.5" y="0" width="18.4" height="13.2" id="a_1_">
	<g transform="translate(-0.46 -1.98)" class="st0">
		<polygon class="st1" points="3,2 21.5,2 21.5,15.5 3,15.5 		"/>
	</g>
</mask>
<g class="st2">
	<path class="st3" d="M16,6.8V4.7h2.1l1.6,2.1L16,6.8z M16.8,11.8c-0.5,0-0.8-0.4-0.8-0.8c0-0.5,0.4-0.8,0.8-0.8
		c0.5,0,0.8,0.4,0.8,0.8c0,0,0,0,0,0C17.6,11.5,17.3,11.8,16.8,11.8C16.8,11.8,16.8,11.8,16.8,11.8z M14.3,9.3L8.6,9.3
		C8.1,8.7,7.5,8.4,6.7,8.4C6,8.4,5.4,8.7,4.9,9.2H4.2l0.1-7.5l10.1,0.1L14.3,9.3z M6.7,11.8c-0.5,0-0.8-0.4-0.8-0.8
		c0-0.5,0.4-0.8,0.8-0.8l0,0c0.5,0,0.8,0.4,0.8,0.8C7.6,11.4,7.2,11.8,6.7,11.8z M16,3.5V0.1L4.3,0C3.4,0,2.6,0.7,2.6,1.7l-0.1,9.2
		h1.7c0.2,1.4,1.4,2.4,2.8,2.2c1.1-0.1,2.1-1,2.2-2.2l5,0.1c0.2,1.4,1.4,2.4,2.8,2.2c1.1-0.1,2-1,2.2-2.2h1.7V6.8l-2.4-3.3L16,3.5z"
		/>
</g>
<path class="st4" d="M0.7,3.3h6.2c0.2,0,0.4,0.2,0.4,0.4v3.7c0,0.2-0.2,0.4-0.4,0.4H0.7c-0.2,0-0.4-0.2-0.4-0.4V3.6
	C0.4,3.4,0.5,3.3,0.7,3.3z"/>
<path class="st5" d="M4.6,4.4h-1c-0.2,0-0.5,0-0.6,0.2C2.8,4.8,2.9,5.1,3.1,5.3c0.1,0.1,0.2,0.1,0.3,0.1c0.2,0,0.5,0,0.7,0
	c0.2,0,0.3,0.1,0.5,0.2c0.1,0.1,0.1,0.2,0.1,0.4c0,0.1,0,0.3-0.1,0.4C4.4,6.4,4.3,6.4,4.2,6.4c-0.4,0-0.8,0-1.2,0"/>
<line class="st5" x1="3.8" y1="4" x2="3.8" y2="7.1"/>
</svg>
