<svg xmlns="http://www.w3.org/2000/svg" xmlns:xlink="http://www.w3.org/1999/xlink" viewBox="0 0 21.02 13.55"><defs><mask id="a" x="2.53" y="0" width="18.49" height="13.55" maskUnits="userSpaceOnUse"><g transform="translate(-0.46 -1.98)"><polygon points="3 1.98 21.48 1.98 21.48 15.52 3 15.52 3 1.98" fill="#fff" fill-rule="evenodd"/></g></mask></defs><g mask="url(#a)"><path d="M16.45,8.81l0-2.1,2.1,0,1.62,2.12Zm.79,5a.84.84,0,1,1,.84-.83.82.82,0,0,1-.84.83ZM14.75,11.3l-5.69-.06a2.5,2.5,0,0,0-1.85-.86,2.56,2.56,0,0,0-1.87.82H4.69l.08-7.55,10.06.11ZM7.18,13.74a.84.84,0,0,1,0-1.68.84.84,0,0,1,0,1.68Zm9.31-8.29,0-3.35L4.79,2a1.68,1.68,0,0,0-1.7,1.65L3,12.85l1.67,0a2.52,2.52,0,0,0,5,.06l5,.05a2.52,2.52,0,0,0,5,0l1.68,0,0-4.19L19,5.48Z" transform="translate(-0.46 -1.98)" fill="#a09eb4" fill-rule="evenodd"/></g><rect x="0.37" y="3.28" width="6.92" height="4.45" rx="0.36" fill="#fff" stroke="#a09eb4" stroke-linecap="round" stroke-miterlimit="10" stroke-width="0.75"/><path d="M5.09,6.37h-1c-.22,0-.51,0-.64.22a.47.47,0,0,0,.4.74c.18,0,.5,0,.68,0A.72.72,0,0,1,5,7.51a.51.51,0,0,1,.14.36A.49.49,0,0,1,5,8.25a.56.56,0,0,1-.34.17,6.8,6.8,0,0,1-1.2,0" transform="translate(-0.46 -1.98)" fill="none" stroke="#a09eb4" stroke-linecap="round" stroke-miterlimit="10" stroke-width="0.3" fill-rule="evenodd"/><line x1="3.81" y1="3.95" x2="3.82" y2="7.05" fill="none" stroke="#a09eb4" stroke-linecap="round" stroke-miterlimit="10" stroke-width="0.3"/></svg>