<svg xmlns="http://www.w3.org/2000/svg" viewBox="0 0 15.89 19.75"><path d="M8.13,4.37H6s-1.41.21-1.41,1.4V19.91A1,1,0,0,0,5.63,21H18.4s1.28-.14,1.28-1.28V5.77s-.35-1.24-1.24-1.24S8.13,4.37,8.13,4.37Z" transform="translate(-4.16 -1.63)" fill="#fff" stroke="#a09eb4" stroke-width="0.75"/><path d="M8.47,3.77h1.87A1.79,1.79,0,0,1,12.11,2c1.7,0,1.76,1.83,1.76,1.83h1.88V6.74H8.47Z" transform="translate(-4.16 -1.63)" fill="#fff" stroke="#a09eb4" stroke-width="0.75"/><polyline points="2.77 7.37 3.82 8.51 5.9 6.54" fill="none" stroke="#a09eb4" stroke-width="0.75"/><polyline points="2.77 11.45 3.82 12.59 5.9 10.62" fill="none" stroke="#a09eb4" stroke-width="0.75"/><polyline points="2.77 15.27 3.82 16.41 5.9 14.44" fill="none" stroke="#a09eb4" stroke-width="0.75"/><line x1="7.41" y1="8.05" x2="13" y2="8.05" fill="none" stroke="#a09eb4" stroke-width="0.75"/><line x1="7.41" y1="11.92" x2="13" y2="11.92" fill="none" stroke="#a09eb4" stroke-width="0.75"/><line x1="7.41" y1="15.79" x2="13" y2="15.79" fill="none" stroke="#a09eb4" stroke-width="0.75"/></svg>