<?xml version="1.0" encoding="utf-8"?>
<!-- Generator: Adobe Illustrator 25.2.1, SVG Export Plug-In . SVG Version: 6.00 Build 0)  -->
<svg version="1.1" id="Layer_1" xmlns="http://www.w3.org/2000/svg" xmlns:xlink="http://www.w3.org/1999/xlink" x="0px" y="0px"
	 viewBox="0 0 15.9 19.8" style="enable-background:new 0 0 15.9 19.8;" xml:space="preserve">
<style type="text/css">
	.st0{fill:#F8F7FF;stroke:#595FAB;}
	.st1{fill:none;stroke:#595FAB;}
</style>
<path class="st0" d="M4,2.7H1.8c0,0-1.4,0.2-1.4,1.4v14.1c-0.1,0.5,0.4,1,0.9,1.1h0.1h12.8c0,0,1.3-0.1,1.3-1.3V4
	c0,0-0.4-1.2-1.2-1.2S4,2.7,4,2.7z"/>
<path class="st0" d="M4.3,2.1h1.9c0-1,0.8-1.8,1.8-1.8c1.7,0,1.8,1.8,1.8,1.8h1.9V5H4.3V2.1z"/>
<polyline class="st1" points="2.8,7.4 3.8,8.5 5.9,6.5 "/>
<polyline class="st1" points="2.8,11.4 3.8,12.6 5.9,10.6 "/>
<polyline class="st1" points="2.8,15.3 3.8,16.4 5.9,14.4 "/>
<line class="st1" x1="7.4" y1="8.1" x2="13" y2="8.1"/>
<line class="st1" x1="7.4" y1="11.9" x2="13" y2="11.9"/>
<line class="st1" x1="7.4" y1="15.8" x2="13" y2="15.8"/>
</svg>
