<svg xmlns="http://www.w3.org/2000/svg" viewBox="0 0 16.09 20"><path d="M4,2.74H1.84S.43,3,.43,4.14V18.28a1,1,0,0,0,.9,1.09H14.24s1.28-.14,1.28-1.28V4.14S15.17,2.9,14.28,2.9,4,2.74,4,2.74Z" transform="translate(0.07 0.13)" fill="#f8f7ff" stroke="#a09eb4"/><path d="M4.31,2.14H6.18A1.79,1.79,0,0,1,8,.37C9.65.37,9.71,2.2,9.71,2.2h1.88V5.11H4.31Z" transform="translate(0.07 0.13)" fill="#f8f7ff" stroke="#a09eb4"/><polyline points="2.84 7.5 3.89 8.64 5.97 6.67" fill="none" stroke="#a09eb4"/><polyline points="2.84 11.58 3.89 12.72 5.97 10.75" fill="none" stroke="#a09eb4"/><polyline points="2.84 15.4 3.89 16.54 5.97 14.57" fill="none" stroke="#a09eb4"/><line x1="7.48" y1="8.18" x2="13.07" y2="8.18" fill="none" stroke="#a09eb4"/><line x1="7.48" y1="12.05" x2="13.07" y2="12.05" fill="none" stroke="#a09eb4"/><line x1="7.48" y1="15.92" x2="13.07" y2="15.92" fill="none" stroke="#a09eb4"/></svg>