<?xml version="1.0" encoding="UTF-8"?>
<svg width="100px" height="100px" viewBox="0 0 100 100" version="1.1" xmlns="http://www.w3.org/2000/svg" xmlns:xlink="http://www.w3.org/1999/xlink">
    <!-- Generator: Sketch 52.6 (67491) - http://www.bohemiancoding.com/sketch -->
    <title>Group 3</title>
    <desc>Created with Sketch.</desc>
    <defs>
        <rect id="path-1" x="0" y="0" width="100" height="100" rx="3"></rect>
        <mask id="mask-2" maskContentUnits="userSpaceOnUse" maskUnits="objectBoundingBox" x="0" y="0" width="100" height="100" fill="white">
            <use xlink:href="#path-1"></use>
        </mask>
    </defs>
    <g id="Add-Company-(Sneha)" stroke="none" stroke-width="1" fill="none" fill-rule="evenodd">
        <g id="Add-company-Details" transform="translate(-330.000000, -276.000000)">
            <g id="Group-3" transform="translate(330.000000, 276.000000)">
                <use id="Rectangle-3" stroke="#595FAB" mask="url(#mask-2)" stroke-width="2" fill="#FEFEFE" stroke-dasharray="3" xlink:href="#path-1"></use>
                <path d="M39.9804688,37.7304688 L43.7304688,37.7304688 L46.25,35.2695312 L53.75,35.2695312 L56.2695312,37.7304688 L60.0195312,37.7304688 C60.7226598,37.7695314 61.3085914,38.0234352 61.7773438,38.4921875 C62.2460961,38.9609398 62.4804688,39.5468715 62.4804688,40.25 L62.4804688,55.25 C62.4804688,55.9531285 62.2460961,56.5390602 61.7773438,57.0078125 C61.3085914,57.4765648 60.7226598,57.7304686 60.0195312,57.7695312 L39.9804688,57.7695312 C39.2773402,57.7304686 38.6914086,57.4765648 38.2226562,57.0078125 C37.7539039,56.5390602 37.5195312,55.9531285 37.5195312,55.25 L37.5195312,40.25 C37.5195312,39.5468715 37.7539039,38.9609398 38.2226562,38.4921875 C38.6914086,38.0234352 39.2773402,37.7695314 39.9804688,37.7304688 Z M50,41.4804688 C48.2421787,41.5195314 46.7675841,42.1347597 45.5761719,43.3261719 C44.3847597,44.5175841 43.7695314,45.9921787 43.7304688,47.75 C43.7695314,49.5078213 44.3847597,50.9824159 45.5761719,52.1738281 C46.7675841,53.3652403 48.2421787,53.9804686 50,54.0195312 C51.7578213,53.9804686 53.2324159,53.3652403 54.4238281,52.1738281 C55.6152403,50.9824159 56.2304686,49.5078213 56.2695312,47.75 C56.2304686,45.9921787 55.6152403,44.5175841 54.4238281,43.3261719 C53.2324159,42.1347597 51.7578213,41.5195314 50,41.4804688 Z M50,44 C51.0546928,44.0390627 51.9335902,44.4101527 52.6367188,45.1132812 C53.3398473,45.8164098 53.6914062,46.6953072 53.6914062,47.75 C53.6914062,48.8046928 53.3398473,49.6835902 52.6367188,50.3867188 C51.9335902,51.0898473 51.0546928,51.4414062 50,51.4414062 C48.9453072,51.4414062 48.0664098,51.0898473 47.3632812,50.3867188 C46.6601527,49.6835902 46.3085938,48.8046928 46.3085938,47.75 C46.3085938,46.6953072 46.6601527,45.8164098 47.3632812,45.1132812 C48.0664098,44.4101527 48.9453072,44.0390627 50,44 Z" id="menu-icon" fill="#595FAB" opacity="0.400000006"></path>
            </g>
        </g>
    </g>
</svg>