<svg xmlns="http://www.w3.org/2000/svg" width="14.063" height="20.593" viewBox="0 0 14.063 20.593">
  <g id="icons8-google-maps" transform="translate(-10 -4)">
    <path id="Path_198" data-name="Path 198" d="M26.865,19.272h.005s-1.894,2.777-3.486,4.842a9.081,9.081,0,0,0-1.894,4.048.536.536,0,0,1-1.065,0,9.081,9.081,0,0,0-1.894-4.048c-.211-.276-.427-.563-.643-.854l5.2-6.178,4.184-4.962a7.5,7.5,0,0,1-.407,7.152Z" transform="translate(-3.927 -4.042)" fill="#48b564"/>
    <path id="Path_199" data-name="Path 199" d="M19.878,18.516l-5.2,6.178c-1.416-1.9-2.843-3.988-2.843-3.988h.005a6.255,6.255,0,0,1-.4-.743L15.619,15a2.761,2.761,0,1,0,4.259,3.516Z" transform="translate(-0.717 -5.475)" fill="#fcc60e"/>
    <path id="Path_200" data-name="Path 200" d="M20.869,4.372l-4.3,5.113L13.27,6.612A6.907,6.907,0,0,1,18.659,4,6.713,6.713,0,0,1,20.869,4.372Z" transform="translate(-1.628)" fill="#2c85eb"/>
    <path id="Path_201" data-name="Path 201" d="M14.937,12.073l-.035.04-4.179,4.962A7.462,7.462,0,0,1,11.642,9.2Z" transform="translate(0 -2.588)" fill="#ed5748"/>
    <path id="Path_202" data-name="Path 202" d="M24.019,13.409A2.761,2.761,0,1,0,19.76,9.893L24.1,4.74a7.1,7.1,0,0,1,4.1,3.707Z" transform="translate(-4.858 -0.368)" fill="#5695f6"/>
  </g>
</svg>
