<?xml version="1.0" encoding="utf-8"?>
<!-- Generator: Adobe Illustrator 25.2.1, SVG Export Plug-In . SVG Version: 6.00 Build 0)  -->
<svg version="1.1" id="Layer_1" xmlns="http://www.w3.org/2000/svg" xmlns:xlink="http://www.w3.org/1999/xlink" x="0px" y="0px"
	 viewBox="0 0 23 33" style="enable-background:new 0 0 23 33;" xml:space="preserve">
<style type="text/css">
	.st0{fill:#FFFFFF;stroke:#0B75D1;stroke-width:2;stroke-miterlimit:10;}
</style>
<g>
	<path class="st0" d="M11.7,2.4c-5.4,0-9.8,4.4-9.8,9.8c0,5.2,8.9,17.4,9.3,17.9l0.4,0.5c0,0.1,0.1,0.1,0.2,0.1c0.1,0,0.1,0,0.2-0.1
		l0.4-0.5c0.4-0.5,9.3-12.7,9.3-17.9C21.5,6.8,17.1,2.4,11.7,2.4z M11.7,8.7c1.9,0,3.5,1.6,3.5,3.5c0,1.9-1.6,3.5-3.5,3.5
		c-1.9,0-3.5-1.6-3.5-3.5S9.8,8.7,11.7,8.7z"/>
</g>
</svg>
