<?xml version="1.0" encoding="UTF-8"?>
<svg width="18px" height="14px" viewBox="0 0 18 14" version="1.1" xmlns="http://www.w3.org/2000/svg" xmlns:xlink="http://www.w3.org/1999/xlink">
    <!-- Generator: Sketch 53 (72520) - https://sketchapp.com -->
    <title>icon/sub-nav/vehicle</title>
    <desc>Created with Sketch.</desc>
    <defs>
        <polygon id="path-1" points="0.000313043478 0.658236466 17.258087 0.658236466 17.258087 13.3043478 0.000313043478 13.3043478"></polygon>
    </defs>
    <g id="UI-Elements" stroke="none" stroke-width="1" fill="none" fill-rule="evenodd">
        <g id="notification-dropdown" transform="translate(-842.000000, -212.000000)">
            <g id="icon/sub-nav/vehicle" transform="translate(841.000000, 209.000000)">
                <rect id="Rectangle" x="0" y="0" width="20" height="20"></rect>
                <g id="Group-6" stroke-width="1" fill-rule="evenodd" transform="translate(1.500000, 3.000000)">
                    <path d="M1.5818087,9.3909913 L2.19224348,9.39725217 C2.62737391,8.92455652 3.24954783,8.6256 3.93824348,8.63342609 C4.62693913,8.64046957 5.24128696,8.95194783 5.66702609,9.43481739 L10.973113,9.49116522 L11.0482435,2.44846957 L1.65693913,2.34751304 L1.5818087,9.3909913 Z" id="Fill-1" fill="#EAEAEA"></path>
                    <g id="Group-5" transform="translate(0.000000, 0.125061)">
                        <mask id="mask-2" fill="white">
                            <use xlink:href="#path-1"></use>
                        </mask>
                        <g id="Clip-4"></g>
                        <path d="M12.5627478,7.03502609 L12.5838783,5.07928696 L14.5404,5.09963478 L16.0531826,7.0725913 L12.5627478,7.03502609 Z M13.2952696,11.739287 C12.8648348,11.7345913 12.5165739,11.3785043 12.5212696,10.9480696 C12.5259652,10.5176348 12.8812696,10.1693739 13.312487,10.1740696 C13.7421391,10.1787652 14.0911826,10.5348522 14.086487,10.9645043 C14.0817913,11.3949391 13.7257043,11.7439826 13.2952696,11.739287 L13.2952696,11.739287 Z M10.972487,9.36641739 L5.6664,9.30928696 C5.24144348,8.8272 4.63413913,8.51650435 3.93761739,8.50867826 C3.24109565,8.50085217 2.62753043,8.7998087 2.1924,9.27172174 L1.58196522,9.26624348 L1.65709565,2.22276522 L11.0476174,2.32293913 L10.972487,9.36641739 Z M3.90474783,11.639113 C3.47431304,11.6344174 3.12526957,11.2783304 3.12996522,10.8478957 C3.13466087,10.4174609 3.49074783,10.0692 3.92118261,10.0738957 C4.35161739,10.0785913 4.69987826,10.4338957 4.69518261,10.865113 C4.69048696,11.2947652 4.33518261,11.6438087 3.90474783,11.639113 L3.90474783,11.639113 Z M12.5964,3.90537391 L12.6300522,0.77493913 L1.67353043,0.658330435 C0.81266087,0.64893913 0.101269565,1.34467826 0.0918782609,2.20633043 L0.000313043478,10.8142435 L1.56474783,10.8314609 C1.55144348,12.1305913 2.5884,13.1894609 3.88753043,13.2035478 C5.18666087,13.2176348 6.24631304,12.1798957 6.2604,10.8815478 L10.9560522,10.9316348 C10.9419652,12.2307652 11.9789217,13.2904174 13.2788348,13.3045043 C14.5771826,13.3178087 15.6376174,12.2808522 15.6509217,10.9817217 L17.2161391,10.9981565 L17.2584,7.08511304 L14.9442261,3.92963478 L12.5964,3.90537391 Z" id="Fill-3" fill="#939BA4" mask="url(#mask-2)"></path>
                    </g>
                </g>
            </g>
        </g>
    </g>
</svg>