<?xml version="1.0" encoding="UTF-8"?>
<svg width="442px" height="170px" viewBox="0 0 442 170" version="1.1" xmlns="http://www.w3.org/2000/svg" xmlns:xlink="http://www.w3.org/1999/xlink">
    <!-- Generator: Sketch 52.6 (67491) - http://www.bohemiancoding.com/sketch -->
    <title>Group 4</title>
    <desc>Created with Sketch.</desc>
    <defs>
        <polygon id="path-1" points="0.693242291 0.165726872 5.34134802 0.165726872 5.34134802 7.86747137 0.693242291 7.86747137"></polygon>
    </defs>
    <g id="Vehicle-Summary" stroke="none" stroke-width="1" fill="none" fill-rule="evenodd">
        <g id="Vehicle-Summary-individual-tyre-change" transform="translate(-610.000000, -1512.000000)">
            <g id="Group-4" transform="translate(612.000000, 1511.000000)">
                <g id="Group-85">
                    <g id="Group-23" transform="translate(0.000000, 23.094185)">
                        <polygon id="Stroke-1" stroke="#595FAB" stroke-width="3" points="422.063991 9.68969163 421.965137 113.909604 133.713771 113.63533 133.811656 9.4154185"></polygon>
                        <polyline id="Stroke-3" stroke="#595FAB" stroke-width="3" points="133.81185 9.41522467 124.701718 15.7991013 124.614493 107.428617 133.712996 113.635137"></polyline>
                        <path d="M0.484678414,61.2048722 C0.480801762,65.6610837 3.53657269,111.380379 23.9742819,111.400731 L65.3323436,111.439498 L65.3391278,104.272537 L71.732696,104.278352 L71.7288194,107.765401 L118.026705,107.809013 L118.115868,15.0184405 L71.8170132,14.973859 L71.8141057,18.4609075 L65.4205374,18.4550925 L65.4282907,11.2881322 L24.0692599,11.2483965 C3.63155066,11.2290132 0.488555066,56.9434626 0.484678414,61.3987048" id="Stroke-5" stroke="#595FAB" stroke-width="3"></path>
                        <path d="M75.6913392,14.9780264 C75.6923084,14.2511542 78.1743348,1.61326872 78.1743348,1.61326872 L81.5160088,0.890273128" id="Stroke-7" stroke="#595FAB" stroke-width="3"></path>
                        <path d="M75.6033389,107.817445 C75.60237,108.543348 78.0601674,121.186079 78.0601674,121.186079 L81.4008722,121.915859" id="Stroke-9" stroke="#595FAB" stroke-width="3"></path>
                        <path d="M65.3391278,104.272053 C53.8157797,100.968176 52.9745463,69.3909075 52.9822474,61.3517004" id="Stroke-11" stroke="#595FAB" stroke-width="3"></path>
                        <path d="M65.4215066,18.3582731 C53.8923436,21.6408282 52.9900529,53.2161586 52.9822996,61.2553656" id="Stroke-13" stroke="#595FAB" stroke-width="3"></path>
                        <path d="M404.59822,6.54039648 L404.589498,15.551674 C404.587559,17.2011894 403.237515,18.548326 401.588969,18.5463877 L377.945269,18.5240969 C376.296722,18.5231278 374.948617,17.1721145 374.950555,15.5235683 L374.959278,6.51229075 C374.961216,4.86374449 376.31126,3.51563877 377.959806,3.51757709 L401.602537,3.53986784 C403.251084,3.540837 404.599189,4.89185022 404.59822,6.54039648" id="Fill-15" fill="#595FAB"></path>
                        <path d="M404.500722,108.546256 L404.492,117.558502 C404.491031,119.207048 403.140987,120.555154 401.492441,120.553216 L377.84874,120.529956 C376.200194,120.528987 374.852088,119.178943 374.853057,117.530396 L374.86178,108.519119 C374.863718,106.870573 376.213762,105.522467 377.863278,105.523436 L401.506009,105.545727 C403.154555,105.547665 404.502661,106.897709 404.500722,108.546256" id="Fill-17" fill="#595FAB"></path>
                        <path d="M110.450661,8.53318943 L110.441938,17.544467 C110.440969,19.1939824 109.090925,20.5411189 107.442379,20.5391806 L83.7986784,20.5168899 C82.1501322,20.5159207 80.8020264,19.1649075 80.8029956,17.5163612 L80.8117181,8.5050837 C80.8136564,6.85653744 82.1637004,5.50843172 83.8132159,5.51037004 L107.455947,5.53266079 C109.104493,5.53362996 110.452599,6.88464317 110.450661,8.53318943" id="Fill-19" fill="#595FAB"></path>
                        <path d="M110.363533,107.450229 L110.354811,116.462476 C110.352872,118.111022 109.003797,119.459128 107.355251,119.457189 L83.7105815,119.43393 C82.0620352,119.43296 80.7139295,118.082916 80.7158678,116.43437 L80.7245903,107.423093 C80.7265286,105.774546 82.0765727,104.426441 83.7251189,104.42741 L107.368819,104.4497 C109.017366,104.451639 110.365471,105.801683 110.363533,107.450229" id="Fill-21" fill="#595FAB"></path>
                    </g>
                    <polygon id="Fill-24" fill="#595FAB" points="55.0055242 1.2765815 53.3782996 2.14398238 53.571163 2.90962115 54.8659648 2.21279295 54.8882555 2.21279295 54.8882555 8.72556828 55.860326 8.72556828 55.860326 1.2765815"></polygon>
                    <g id="Group-84" transform="translate(52.334802, 0.803436)">
                        <path d="M0.360722467,166.018396 L0.360722467,165.404916 L1.15155947,164.637339 C3.05305727,162.824035 3.91948899,161.855841 3.9243348,160.733551 C3.9243348,159.976634 3.56574449,159.27496 2.45605286,159.27496 C1.77570044,159.27496 1.21843172,159.623859 0.871471366,159.904916 L0.549709251,159.200335 C1.06045815,158.769057 1.79799119,158.443419 2.65763877,158.443419 C4.2596652,158.443419 4.93323348,159.543419 4.93323348,160.603683 C4.93323348,161.988617 3.93499559,163.099278 2.36785903,164.604388 L1.77860793,165.160687 L1.77860793,165.183947 L5.11640529,165.183947 L5.11640529,166.018396 L0.360722467,166.018396 Z" id="Fill-25" fill="#595FAB"></path>
                        <g id="Group-29" transform="translate(324.669604, 0.000000)">
                            <mask id="mask-2" fill="white">
                                <use xlink:href="#path-1"></use>
                            </mask>
                            <g id="Clip-28"></g>
                            <path d="M0.962669604,6.58914537 C1.24663436,6.76747137 1.90954185,7.05143612 2.61606167,7.05143612 C3.90311013,7.05143612 4.3072511,6.23152423 4.30143612,5.60835242 C4.28980617,4.56068722 3.34487225,4.1187489 2.37474009,4.11777974 L1.81068722,4.11777974 L1.81068722,3.35989427 L2.37570925,3.35989427 C3.10839648,3.35892511 4.03588546,2.98288987 4.03588546,2.10385903 C4.03588546,1.5049163 3.65500441,0.980599119 2.72654626,0.980599119 C2.13535683,0.980599119 1.55967401,1.24227313 1.24081938,1.47196476 L0.969453744,0.742185022 C1.36099559,0.453374449 2.11791189,0.16553304 2.91940969,0.16553304 C4.39350661,0.16553304 5.06029075,1.03390308 5.06029075,1.9449163 C5.06029075,2.71540088 4.5902467,3.36861674 3.68504846,3.70007048 L3.68504846,3.72236123 C4.60090749,3.89777974 5.34134802,4.59170044 5.34134802,5.6325815 C5.34134802,6.82174449 4.40804405,7.86747137 2.62284581,7.86747137 C1.78645815,7.86747137 1.05667841,7.60773568 0.693242291,7.35769163 L0.962669604,6.58914537 Z" id="Fill-27" fill="#595FAB" mask="url(#mask-2)"></path>
                        </g>
                        <path d="M49.7227137,66.6432335 C48.2466784,63.5709868 44.5590132,62.2771542 41.4867665,63.7531894 C38.4145198,65.2292247 37.1206872,68.9168899 38.5976916,71.9891366 C40.0737269,75.0613833 43.7604229,76.3552159 46.8326696,74.8782115 C49.9039471,73.4021762 51.1977797,69.7154802 49.7227137,66.6432335 Z" id="Stroke-30" stroke="#595FAB" stroke-width="2"></path>
                        <path d="M44.3790396,64.0253304 L44.3790396,75.266652" id="Stroke-32" stroke="#595FAB" stroke-width="2"></path>
                        <path d="M38.6483789,69.315022 L49.8897004,69.315022" id="Stroke-34" stroke="#595FAB" stroke-width="2"></path>
                        <polyline id="Stroke-36" stroke="#595FAB" stroke-width="0.25" points="337.760088 24.6327313 337.760088 5.01008811 373.705374 5.01008811"></polyline>
                        <polyline id="Stroke-38" stroke="#595FAB" stroke-width="0.25" points="337.760088 145.091454 337.760088 164.714097 373.705374 164.56"></polyline>
                        <polyline id="Stroke-40" stroke="#595FAB" stroke-width="0.25" points="43.3975683 24.6327313 43.3975683 5.01008811 7.45228194 5.01008811"></polyline>
                        <polyline id="Stroke-42" stroke="#595FAB" stroke-width="0.25" points="43.3975683 143.258185 43.3975683 162.880828 7.45228194 162.880828"></polyline>
                        <path d="M352.103507,46.6902026 L352.094784,55.7014802 C352.092846,57.3500264 350.743771,58.6981322 349.095225,58.697163 L325.451524,58.6739031 C323.802978,58.6719648 322.454872,57.3228899 322.455841,55.6743436 L322.464564,46.6620969 C322.466502,45.0135507 323.816546,43.6654449 325.466062,43.6673833 L349.108793,43.689674 C350.757339,43.6906432 352.105445,45.0416564 352.103507,46.6902026" id="Fill-44" fill="#595FAB"></path>
                        <path d="M352.040996,112.978432 L352.032273,121.989709 C352.030335,123.638256 350.680291,124.986361 349.031744,124.985392 L325.388044,124.962132 C323.739498,124.960194 322.391392,123.611119 322.39333,121.962573 L322.402053,112.950326 C322.403022,111.30178 323.754035,109.953674 325.402581,109.955612 L349.045313,109.977903 C350.693859,109.978872 352.041965,111.329885 352.040996,112.978432" id="Fill-46" fill="#595FAB"></path>
                        <polyline id="Stroke-48" stroke="#595FAB" stroke-width="0.25" points="334.993612 60.6578767 334.993612 78.7967313 374.448238 78.7967313"></polyline>
                        <polyline id="Stroke-50" stroke="#595FAB" stroke-width="0.25" points="334.882837 108.000132 334.882837 89.8612775 374.447947 89.8612775"></polyline>
                        <path d="M319.405595,28.9509339 L319.396872,37.9622115 C319.394934,39.6117269 318.04489,40.9588634 316.396344,40.9569251 L292.752643,40.9346344 C291.104097,40.9336652 289.755991,39.582652 289.75793,37.9341057 L289.766652,28.9228282 C289.767621,27.2742819 291.118634,25.9261762 292.767181,25.9281145 L316.409912,25.9504053 C318.058458,25.9513744 319.406564,27.3023877 319.405595,28.9509339" id="Fill-52" fill="#595FAB"></path>
                        <path d="M319.308097,131.538291 L319.299374,140.550537 C319.297436,142.199084 317.948361,143.547189 316.299815,143.545251 L292.656115,143.521991 C291.006599,143.521022 289.659463,142.170978 289.660432,140.522432 L289.669154,131.511154 C289.671093,129.862608 291.021137,128.514502 292.670652,128.515471 L316.313383,128.537762 C317.96193,128.5397 319.310035,129.889744 319.308097,131.538291" id="Fill-54" fill="#595FAB"></path>
                        <polyline id="Stroke-56" stroke="#595FAB" stroke-width="0.25" points="301.334097 145.833445 301.334097 163.9723 319.467137 163.9723"></polyline>
                        <polyline id="Stroke-58" stroke="#595FAB" stroke-width="0.25" points="302.076088 24.6327313 302.076088 5.01008811 318.725339 5.01008811"></polyline>
                        <polygon id="Fill-60" fill="#595FAB" points="384.05274 0.291524229 384.05274 0.956370044 380.806044 7.74148018 379.770009 7.74148018 382.994414 1.14923348 382.994414 1.12597357 379.354238 1.12597357 379.354238 0.291524229"></polygon>
                        <path d="M380.365366,74.4760088 C380.359551,75.2232335 380.928449,75.6264053 381.782282,75.8531894 C382.42193,75.6399736 382.914264,75.1815595 382.914264,74.4982996 C382.914264,73.9109868 382.56052,73.2897533 381.653383,73.2897533 C380.818934,73.2897533 380.365366,73.841207 380.365366,74.4760088 M383.134264,78.2024405 C383.134264,77.3030573 382.504308,76.8640264 381.497348,76.582 C380.628978,76.8281674 380.154088,77.408696 380.154088,78.116185 C380.124044,78.8682555 380.691974,79.5301938 381.643692,79.5301938 C382.551797,79.5301938 383.134264,78.9680793 383.134264,78.2024405 M379.126775,78.2538062 C379.126775,77.3156564 379.689859,76.6498414 380.596996,76.2524846 L380.595057,76.2175947 C379.763515,75.832837 379.404925,75.1951278 379.404925,74.5467577 C379.404925,73.3721322 380.40607,72.5657885 381.718317,72.5657885 C383.158493,72.5657885 383.884396,73.4671101 383.884396,74.3975066 C383.884396,75.0313392 383.569419,75.7116916 382.658405,76.1390925 L382.658405,76.1759207 C383.582987,76.5383877 384.155762,77.2022643 384.155762,78.0987401 C384.155762,79.400326 383.048978,80.268696 381.618493,80.268696 C380.067833,80.268696 379.126775,79.3421762 379.126775,78.2538062" id="Fill-62" fill="#595FAB"></path>
                        <path d="M380.16659,89.5302115 C380.167559,90.4577004 380.726767,91.1109163 381.603859,91.1109163 C382.27452,91.1109163 382.803683,90.7746167 383.070203,90.3278326 C383.11963,90.2357621 383.159366,90.1252775 383.159366,89.9585815 C383.162273,88.683163 382.686414,87.7178767 381.631965,87.7178767 C380.771348,87.7178767 380.164652,88.474793 380.16659,89.5302115 Z M379.804123,93.8100352 C380.021216,93.8303877 380.270291,93.8129427 380.612405,93.7712687 C381.194872,93.7005198 381.747295,93.4601674 382.176634,93.0560264 C382.664123,92.6024581 383.017868,91.9502115 383.156458,91.0711806 L383.127383,91.0721498 C382.708705,91.5780529 382.117515,91.8726784 381.363507,91.8726784 C380.025093,91.8726784 379.167383,90.8637797 379.167383,89.5893304 C379.167383,88.1879207 380.18985,86.9454537 381.714344,86.9454537 C383.233022,86.9454537 384.176987,88.1791982 384.176987,90.0913568 C384.176987,91.727304 383.623595,92.868978 382.890907,93.5851894 C382.32007,94.1385815 381.528264,94.4874802 380.723859,94.5776123 C380.365269,94.6328546 380.034784,94.6483612 379.804123,94.6377004 L379.804123,93.8100352 Z" id="Fill-64" fill="#595FAB"></path>
                        <polygon id="Fill-66" fill="#595FAB" points="378.462996 162.963207 378.440705 162.963207 377.146872 163.661004 376.95304 162.894396 378.580264 162.026996 379.435066 162.026996 379.435066 169.476952 378.462996 169.476952"></polygon>
                        <path d="M383.06652,165.781727 C383.065551,167.72393 383.662555,168.821022 384.578414,168.821022 C385.605727,168.821022 386.097093,167.61926 386.097093,165.721639 C386.097093,163.883137 385.631894,162.685251 384.585198,162.685251 C383.708106,162.685251 383.06652,163.76296 383.06652,165.781727 M387.111806,165.676088 C387.111806,168.203665 386.165903,169.602167 384.520264,169.602167 C383.065551,169.602167 382.077004,168.239524 382.052775,165.778819 C382.052775,163.275471 383.132423,161.900229 384.646256,161.900229 C386.21533,161.900229 387.111806,163.303577 387.111806,165.676088" id="Fill-68" fill="#595FAB"></path>
                        <path d="M319.407436,46.7980705 L319.398714,55.8103172 C319.396775,57.4588634 318.0477,58.8069692 316.399154,58.8050308 L292.754485,58.7827401 C291.105938,58.7808018 289.757833,57.4307577 289.759771,55.7822115 L289.768493,46.7709339 C289.770432,45.1223877 291.120476,43.7733128 292.769022,43.7752511 L316.412722,43.7975419 C318.061269,43.7994802 319.409374,45.1495242 319.407436,46.7980705" id="Fill-70" fill="#595FAB"></path>
                        <path d="M319.344053,113.087269 L319.33533,122.098546 C319.334361,123.747093 317.984317,125.095198 316.335771,125.09326 L292.69207,125.070969 C291.043524,125.069031 289.695419,123.718987 289.696388,122.070441 L289.706079,113.059163 C289.707048,111.410617 291.057093,110.062511 292.706608,110.06348 L316.349339,110.085771 C317.997885,110.087709 319.345991,111.437753 319.344053,113.087269" id="Fill-72" fill="#595FAB"></path>
                        <polyline id="Stroke-74" stroke="#595FAB" stroke-width="0.25" points="301.818678 60.6578767 301.818678 78.7967313 317.044229 78.7967313"></polyline>
                        <polyline id="Stroke-76" stroke="#595FAB" stroke-width="0.25" points="301.763824 108.000132 301.763824 89.8612775 317.099859 89.8612775"></polyline>
                        <path d="M326.56926,77.8150661 L326.56926,75.3223789 C326.56926,74.9337445 326.581859,74.5451101 326.608026,74.1555066 L326.568291,74.1487225 C326.336661,74.5935683 326.154458,74.9133921 325.948996,75.2574449 L324.132784,77.7927753 L324.129877,77.8150661 L326.56926,77.8150661 Z M326.56926,80.6285463 L326.56926,78.5962115 L323.110317,78.5962115 L323.110317,77.9381498 L326.428731,73.1795595 L327.520978,73.1795595 L327.520978,77.8150661 L328.566705,77.8150661 L328.566705,78.5962115 L327.520978,78.5962115 L327.520978,80.6285463 L326.56926,80.6285463 Z" id="Fill-78" fill="#595FAB"></path>
                        <path d="M327.896141,87.3599648 L325.06037,87.3599648 L324.773498,89.2750308 C324.943101,89.2517709 325.103982,89.234326 325.377286,89.234326 C325.957815,89.2352952 326.520899,89.359348 326.986097,89.6374978 C327.56178,89.9611982 328.04733,90.6105374 328.04733,91.5496564 C328.04733,93.00437 326.893057,94.0898326 325.276493,94.0898326 C324.45852,94.0898326 323.778167,93.8611101 323.418608,93.6323877 L323.674467,92.8628722 C323.978784,93.0450749 324.587419,93.2805815 325.26874,93.2805815 C326.212705,93.2805815 327.032617,92.6564405 327.027771,91.6562643 C327.020987,90.6977621 326.377463,90.0154714 324.890767,90.0154714 C324.45852,90.0154714 324.129004,90.0513304 323.853762,90.0910661 L324.336405,86.5148546 L327.896141,86.5148546 L327.896141,87.3599648 Z" id="Fill-80" fill="#595FAB"></path>
                        <path d="M329.356573,167.038634 C329.355604,165.969648 328.744062,165.330969 327.824326,165.330969 C327.215692,165.330969 326.646793,165.704097 326.37252,166.245859 C326.312432,166.363128 326.265912,166.506564 326.265912,166.687797 C326.27948,167.913789 326.844502,168.829648 327.903797,168.829648 C328.771198,168.829648 329.356573,168.103744 329.356573,167.038634 Z M329.645383,162.734581 C329.432167,162.729736 329.177278,162.741366 328.882652,162.788855 C327.300009,163.041806 326.467498,164.199956 326.301771,165.436608 L326.327938,165.436608 C326.682652,164.956872 327.301947,164.567269 328.125736,164.567269 C329.451551,164.567269 330.37904,165.524802 330.37904,166.975639 C330.37904,168.342159 329.447674,169.60304 327.896044,169.60304 C326.308555,169.60304 325.266705,168.36348 325.266705,166.431938 C325.266705,164.966564 325.788115,163.805507 326.527586,163.07185 C327.142035,162.462247 327.968731,162.087181 328.909789,161.967974 C329.207322,161.920485 329.456396,161.909824 329.638599,161.911762 L329.645383,162.734581 Z" id="Fill-82" fill="#595FAB"></path>
                    </g>
                </g>
            </g>
        </g>
    </g>
</svg>