<?xml version="1.0" encoding="UTF-8"?>
<svg width="24px" height="19px" viewBox="0 0 24 19" version="1.1" xmlns="http://www.w3.org/2000/svg" xmlns:xlink="http://www.w3.org/1999/xlink">
    <!-- Generator: Sketch 52.5 (67469) - http://www.bohemiancoding.com/sketch -->
    <title>Group 2</title>
    <desc>Created with Sketch.</desc>
    <g id="Symbols" stroke="none" stroke-width="1" fill="none" fill-rule="evenodd">
        <g id="icon/walkthrough" transform="translate(-8.000000, -10.000000)">
            <g id="Group-2" transform="translate(8.000000, 10.000000)">
                <path d="M21.8042553,13.9824047 L21.8042553,1.97067449 L2.19574468,1.97067449 L2.19574468,13.9824047 L21.8042553,13.9824047 Z M21.8042553,0 C22.4170243,0 22.9276575,0.187681408 23.3361702,0.563049853 C23.7446829,0.938418299 23.9659573,1.40762182 24,1.97067449 L24,13.9824047 C23.9659573,14.5454574 23.7446829,15.0224809 23.3361702,15.4134897 C22.9276575,15.8044985 22.4170243,16 21.8042553,16 L2.19574468,16 C1.58297566,16 1.07234247,15.8044985 0.663829787,15.4134897 C0.255317106,15.0224809 0.0340427234,14.5454574 0,13.9824047 L0,1.97067449 C0.0340427234,1.40762182 0.255317106,0.938418299 0.663829787,0.563049853 C1.07234247,0.187681408 1.58297566,0 2.19574468,0 L21.8042553,0 Z" id="ï¹" fill="#5A6B7B"></path>
                <rect id="Rectangle-5" fill="#5A6B7B" x="2" y="1" width="21" height="14"></rect>
                <g id="noun_1549285_cc" opacity="0.900000036" transform="translate(5.000000, 2.000000)">
                    <g id="Group" transform="translate(1.000000, 0.000000)">
                        <rect id="Rectangle-path" x="0" y="0" width="12.9992593" height="12.9992593"></rect>
                        <path d="M2.39555556,5.72444444 C2.63925926,5.89037037 2.70148148,6.22740741 2.53555556,6.4762963 C2.36444444,6.72 2.02740741,6.78222222 1.7837037,6.61111111 C0.84,5.96814815 0.274814815,4.89481481 0.274814815,3.74888889 C0.274814815,2.86222222 0.617037037,1.97037037 1.2962963,1.2962963 C1.97037037,0.617037037 2.86222222,0.274814815 3.74888889,0.274814815 C4.64074074,0.274814815 5.52740741,0.617037037 6.20666667,1.2962963 C6.35703704,1.44148148 6.49185185,1.60740741 6.61111111,1.7837037 C6.78222222,2.02740741 6.72,2.36444444 6.4762963,2.53555556 C6.22740741,2.70148148 5.89037037,2.63925926 5.72444444,2.39555556 C5.64148148,2.2762963 5.54296296,2.16222222 5.43925926,2.05851852 C4.97259259,1.59185185 4.36074074,1.35851852 3.74888889,1.35851852 C3.13703704,1.35851852 2.52518519,1.59185185 2.05851852,2.05851852 C1.59185185,2.52518519 1.35851852,3.13703704 1.35851852,3.74888889 C1.35851852,4.53185185 1.75259259,5.27851852 2.39555556,5.72444444 Z M3.80592593,3.1162963 L12.3562963,6.0562963 C12.6362963,6.15481481 12.7866667,6.46074074 12.6933333,6.74592593 C12.6362963,6.90148148 12.5222222,7.01555556 12.377037,7.07259259 L8.60222222,8.60222222 L7.07259259,12.3822222 C6.95851852,12.6622222 6.64222222,12.7918519 6.36740741,12.682963 C6.21703704,12.6207407 6.10814815,12.5014815 6.0562963,12.3562963 L3.1162963,3.80592593 C3.02296296,3.52592593 3.17333333,3.21481481 3.45333333,3.1162963 C3.57259259,3.08 3.69703704,3.08 3.80592593,3.1162963 Z" id="Shape" fill="#FFFFFF" fill-rule="nonzero"></path>
                    </g>
                    <path d="M0.5,15.5 L12.5,15.5" id="Line-3" stroke="#5A6B7B" stroke-width="2" stroke-linecap="square"></path>
                </g>
            </g>
        </g>
    </g>
</svg>